<svg width="40" height="40" viewBox="0 0 1.2 1.2" xmlns="http://www.w3.org/2000/svg"><g fill="none"><path d="M1.2 0v1.2H0V0zM0.63 1.163l-0.001 0 -0.004 0.002 -0.001 0 -0.001 0 -0.004 -0.002q-0.001 0 -0.001 0l0 0.001 -0.001 0.021 0 0.001 0.001 0.001 0.005 0.004 0.001 0 0.001 0 0.005 -0.004 0.001 -0.001 0 -0.001 -0.001 -0.021q0 -0.001 -0.001 -0.001m0.013 -0.006 -0.001 0 -0.009 0.005 -0.001 0.001 0 0.001 0.001 0.022 0 0.001 0 0 0.01 0.005q0.001 0 0.001 0l0 -0.001 -0.002 -0.031q0 -0.001 -0.001 -0.001m-0.036 0a0.001 0.001 0 0 0 -0.001 0l0 0.001 -0.002 0.031q0 0.001 0.001 0.001l0.001 0 0.01 -0.005 0.001 0 0 -0.001 0.001 -0.022 0 -0.001 -0.001 -0.001z"/><path d="M0.95 0.2a0.1 0.1 0 0 1 0.1 0.1v0.6a0.1 0.1 0 0 1 -0.1 0.1H0.25a0.1 0.1 0 0 1 -0.1 -0.1V0.3a0.1 0.1 0 0 1 0.1 -0.1zm0 0.3H0.25v0.35a0.05 0.05 0 0 0 0.044 0.05L0.3 0.9h0.6a0.05 0.05 0 0 0 0.05 -0.044L0.95 0.85zM0.3 0.3a0.05 0.05 0 1 0 0 0.1 0.05 0.05 0 0 0 0 -0.1m0.15 0a0.05 0.05 0 1 0 0 0.1 0.05 0.05 0 0 0 0 -0.1m0.15 0a0.05 0.05 0 1 0 0 0.1 0.05 0.05 0 0 0 0 -0.1" fill="#ffffff"/></g></svg>