<svg width="100px" height="100px" viewBox="0 0 3 3" version="1.1" xmlns="http://www.w3.org/2000/svg" xmlns:xlink="http://www.w3.org/1999/xlink"><title>chart_line_line</title><g id="é¡µé¢-1" stroke="none" stroke-width="1" fill="none" fill-rule="evenodd"><g id="Business" transform="translate(-240)" fill-rule="nonzero"><g id="chart_line_line" transform="translate(240)"><path d="M3 0v3H0V0zM1.574 2.907l-0.001 0 -0.009 0.004 -0.003 0.001 -0.002 -0.001 -0.009 -0.004q-0.002 -0.001 -0.003 0.001l-0.001 0.001 -0.002 0.053 0.001 0.003 0.001 0.002 0.013 0.009 0.002 0.001 0.002 -0.001 0.013 -0.009 0.002 -0.002 0.001 -0.002 -0.002 -0.053q-0.001 -0.002 -0.002 -0.002m0.033 -0.014 -0.002 0 -0.023 0.012 -0.001 0.001 0 0.001 0.002 0.054 0.001 0.002 0.001 0.001 0.025 0.012q0.002 0.001 0.004 -0.001l0.001 -0.002 -0.004 -0.077q-0.001 -0.002 -0.003 -0.003m-0.089 0a0.003 0.003 0 0 0 -0.003 0.001l-0.001 0.002 -0.004 0.077q0 0.002 0.002 0.003l0.002 0 0.025 -0.012 0.001 -0.001 0.001 -0.001 0.002 -0.054 0 -0.002 -0.001 -0.001z" id="MingCute" fill-rule="nonzero"/><path d="M0.5 0.5a0.125 0.125 0 0 1 0.124 0.11L0.625 0.625v1.625h1.875a0.125 0.125 0 0 1 0.015 0.249L2.5 2.5H0.5a0.125 0.125 0 0 1 -0.124 -0.11L0.375 2.375V0.625a0.125 0.125 0 0 1 0.125 -0.125m2.024 0.352c0.113 0 0.169 0.136 0.089 0.215l-0.696 0.696a0.138 0.138 0 0 1 -0.194 0l-0.345 -0.345 -0.442 0.442a0.125 0.125 0 0 1 -0.177 -0.177l0.521 -0.521a0.138 0.138 0 0 1 0.195 0l0.345 0.345 0.405 -0.405h-0.052a0.125 0.125 0 1 1 0 -0.25z" id="å½¢çŠ¶" fill="#ffffff"/></g></g></g></svg>