<svg xmlns="http://www.w3.org/2000/svg" viewBox="0 0 100 100" xml:space="preserve" width="100" height="100" fill="#fff"><path d="M64.983 14.95a3.036 3.036 0 0 0 -3.825 -1.949l-12.699 4.127a3.036 3.036 0 0 0 -1.949 3.825l0.635 1.954 -32.304 23.729 -12.743 4.14a3.036 3.036 0 0 0 -1.949 3.825l7.742 23.824a3.036 3.036 0 0 0 2.886 2.098 3.036 3.036 0 0 0 0.939 -0.149l12.741 -4.14 6.546 0.034c1.315 6.207 6.835 10.88 13.428 10.88 6.542 0 12.027 -4.602 13.395 -10.738l6.714 0.035 0.635 1.955a3.034 3.034 0 0 0 2.887 2.097c0.316 0 0.633 -0.049 0.938 -0.149l12.7 -4.126a3.036 3.036 0 0 0 1.949 -3.825zM12.727 73.662l-5.866 -18.051 7.433 -2.415 5.865 18.051zm31.704 7.415c-3.202 0 -5.947 -1.978 -7.088 -4.775l14.149 0.074c-1.159 2.758 -3.886 4.7 -7.061 4.7m-18.238 -10.905 -3.193 -9.826 -3.193 -9.826 29.312 -21.53 8.989 27.664 4.455 13.71zm43.818 3.465 -0.373 -1.147 -0.002 -0.007 -8.02 -24.683 -8.395 -25.837 6.926 -2.251 16.789 51.673zm5.195 -43.93a3.036 3.036 0 0 0 4.083 -1.326l5.448 -10.689a3.036 3.036 0 1 0 -5.409 -2.757l-5.448 10.689a3.036 3.036 0 0 0 1.326 4.084m22.815 28.866 -10.691 -5.446a3.036 3.036 0 0 0 -2.756 5.41l10.691 5.446a3.036 3.036 0 0 0 2.756 -5.41m-15.354 -17.61a3.036 3.036 0 0 0 2.886 2.098 3.036 3.036 0 0 0 0.939 -0.149l11.409 -3.708a3.036 3.036 0 0 0 -1.877 -5.774l-11.409 3.708a3.036 3.036 0 0 0 -1.948 3.825"/></svg>