<svg xmlns="http://www.w3.org/2000/svg" viewBox="0 0 2400 1496" height="400" width="630" xml:space="preserve"><path style="fill:#fff;fill-opacity:1;fill-rule:nonzero;stroke:none" d="M16300 0H0v10160.3h16300z" transform="matrix(.14724 0 0 -.14724 0 1496)"/>
    <path style="fill:#d1562c;fill-opacity:1;fill-rule:nonzero;stroke:none"
          d="M14160.2 1358.97h-340v35.41h340zM11167.5 1172l-24.3 25.7 303.5 287.51 24.4-25.7zm860.5.5-318.1 324.17 25.3 24.79 318.1-324.16zm1294.2 1748.93-86.2 458.85 34.8 6.54 86.2-458.86zm254.5-55.12-18.4 30.24 395.9 241.29 18.4-30.24zm-2075.2-1120.99-476.3 358.27 21.3 28.31 476.2-358.27z"
          transform="matrix(.13333 0 0 -.13333 0 1496)"/>
    <path style="fill:#59595b;fill-opacity:1;fill-rule:nonzero;stroke:none"
          d="m12265.2 2065.95-21.6 28.05 56.1 43.23 21.6-28.06zm-84.1-64.85-21.7 28.06 56.2 43.23 21.6-28.06zm-84.2-64.84-21.6 28.06 56.1 43.22 21.6-28.05zm-84.2-64.84-21.6 28.05 56.1 43.24 21.7-28.06zm-84.1-64.84-21.6 28.05 56.1 43.23 21.6-28.05zm-84.2-64.84-21.6 28.05 56.1 43.23 21.6-28.05zm1075.8 122.08-63.6 31.13 15.5 31.81 63.6-31.13zm95.4-46.69-63.6 31.13 15.5 31.8 63.7-31.12zm95.4-46.7-63.6 31.13 15.6 31.81 63.6-31.12zm95.5-46.68-63.7 31.12 15.6 31.81 63.6-31.13zm95.4-46.7-63.6 31.13 15.5 31.81 63.7-31.13zm95.4-46.69-63.6 31.13 15.6 31.81 63.6-31.13zm42.7-20.85-10.9 5.28 15.6 31.82 10.8-5.29zm-244.5 891.59-21.8 27.91 55.9 43.58 21.8-27.91zm-83.7-65.37-21.8 27.91 55.8 43.58 21.8-27.91zm-83.8-65.37-21.8 27.91 55.9 43.58 21.8-27.91zm-83.7-65.37-21.8 27.91 55.8 43.58 21.8-27.92z"
          transform="matrix(.13333 0 0 -.13333 0 1496)"/>
    <path style="fill:#88c3ee;fill-opacity:1;fill-rule:nonzero;stroke:none"
          d="m11353.7 2353.84-32 42.4c238.9 180.42 457.7 388.23 650.4 617.64 193.6 230.59 360.8 483.15 497 750.66 138.7 272.32 245.5 560.78 317.5 857.36 74.1 305.25 111.7 620.81 111.7 937.9 0 534.84-104.7 1053.66-311.3 1542.07-99.3 234.74-222.2 461.14-365.3 672.93-141.7 209.78-304.5 407.06-483.7 586.34-179.3 179.28-376.6 342.04-586.4 483.77-211.8 143.08-438.2 265.97-672.9 365.26-488.42 206.58-1007.24 311.32-1542.08 311.32v53.12c541.99 0 1067.78-106.16 1562.78-315.51 237.9-100.63 467.3-225.17 682-370.17 212.5-143.62 412.4-308.56 594.1-490.23s346.6-381.58 490.2-594.16c145-214.63 269.6-444.09 370.2-681.98 209.4-494.99 315.5-1020.77 315.5-1562.76 0-321.31-38.1-641.08-113.1-950.43-73-300.59-181.3-592.94-321.8-868.94-138.1-271.09-307.5-527.03-503.7-760.71-195.2-232.47-417-443.05-659.1-625.88"
          transform="matrix(.13333 0 0 -.13333 0 1496)"/>
    <path style="fill:#d1562c;fill-opacity:1;fill-rule:nonzero;stroke:none"
          d="m10614.1 1948.44-21.8 48.45c21.3 9.57 42.8 19.47 63.9 29.43l22.7-48.06c-21.4-10.09-43.2-20.12-64.8-29.82M5340.57 7202.42l-48.65 21.33a4086 4086 0 0 0 59.33 129.13l47.87-23.03a4013 4013 0 0 1-58.55-127.43m-79.32-194.81-49.71 18.73a4078 4078 0 0 0 52.43 132.08l49.02-20.46c-17.92-42.95-35.33-86.8-51.74-130.35m-68.95-198.73-50.63 16.09c14.28 44.94 29.55 90.24 45.4 134.66l50.03-17.85a4003 4003 0 0 1-44.8-132.9m-58.36-202.09-51.41 13.39c11.89 45.64 24.75 91.69 38.23 136.88l50.9-15.19c-13.3-44.59-25.99-90.04-37.72-135.08m-47.62-204.9-52.04 10.65c9.46 46.2 19.87 92.87 30.95 138.71l51.63-12.48a4003 4003 0 0 1-30.54-136.88m-36.71-207.13-52.54 7.88c7 46.6 14.93 93.76 23.57 140.15l52.22-9.73c-8.53-45.78-16.35-92.32-23.25-138.3m-25.69-208.8-52.87 5.08c4.51 46.92 9.93 94.43 16.1 141.22l52.66-6.96c-6.09-46.16-11.44-93.04-15.89-139.34m-14.56-209.87-53.07 2.27c2.01 47.08 4.9 94.82 8.58 141.87l52.96-4.15a3951 3951 0 0 1-8.47-139.99m-56.48-210.91c-.16 14.21-.23 28.41-.23 42.6 0 32.99.42 66.48 1.24 99.53l53.1-1.32a3974 3974 0 0 1-1-140.24zm7.96-213.07c-3.02 47.09-5.23 94.87-6.57 142l53.1 1.51c1.32-46.51 3.5-93.64 6.48-140.1zm19.35-212.35c-5.54 46.87-10.3 94.46-14.16 141.45l52.94 4.34c3.81-46.36 8.51-93.31 13.97-139.56zm30.68-211.02a4006 4006 0 0 0-21.71 140.49l52.63 7.18c6.29-46.13 13.5-92.77 21.42-138.62zm41.93-209.09a3982 3982 0 0 0-29.19 139.13l52.17 9.98c8.74-45.68 18.43-91.87 28.8-137.28zm53.04-206.56a3983 3983 0 0 0-36.58 137.38l51.56 12.75c11.16-45.13 23.31-90.74 36.1-135.55zm63.96-203.45a4065 4065 0 0 0-43.84 135.23l50.82 15.49c13.56-44.51 28.12-89.41 43.26-133.45zm74.65-199.78a4047 4047 0 0 0-50.93 132.73l49.92 18.16c15.9-43.72 32.81-87.8 50.26-130.99zm85.04-195.58a4086 4086 0 0 0-57.82 129.87l48.9 20.76c18.16-42.8 37.36-85.93 57.07-128.19zm95.09-190.79c-22.1 41.56-43.79 84.16-64.49 126.61l47.75 23.28c20.43-41.9 41.84-83.94 63.64-124.97zm104.92-185.5a4090 4090 0 0 0-71.04 123.05l46.47 25.75c22.59-40.77 46.17-81.63 70.1-121.43zm114.59-179.69a4064 4064 0 0 0-77.45 119.12l45.04 28.17c24.67-39.45 50.38-79 76.43-117.55zm123.99-173.36a4019 4019 0 0 0-83.69 114.84l43.48 30.51c26.76-38.11 54.54-76.24 82.58-113.31zm133.07-166.5a3995 3995 0 0 0-89.7 110.21l41.79 32.79c28.72-36.6 58.5-73.18 88.51-108.74zm141.39-158.73a3977 3977 0 0 0-95.25 105.03l39.99 34.98c30.56-34.94 62.17-69.81 93.97-103.64zm149.72-151.03a3986 3986 0 0 0-100.75 99.84l38.05 37.06a3946 3946 0 0 1 99.41-98.5zm157.62-142.88c-35.75 30.71-71.4 62.46-105.97 94.36l36.03 39.03c34.1-31.47 69.28-62.79 104.55-93.09zm165.05-134.32a4037 4037 0 0 0-110.87 88.6l33.9 40.91c35.79-29.67 72.6-59.08 109.39-87.43zm172.01-125.39c-38.8 26.74-77.64 54.53-115.44 82.6l31.67 42.65c37.3-27.7 75.63-55.12 113.92-81.51zm178.48-116.12a4041 4041 0 0 0-119.69 76.38l29.36 44.27a3981 3981 0 0 1 118.11-75.37zm184.41-106.53a4055 4055 0 0 0-123.59 69.94l26.98 45.77c40.01-23.59 81.04-46.82 121.96-69.03zm189.83-96.66a4076 4076 0 0 0-127.14 63.33l24.52 47.13a3991 3991 0 0 1 125.47-62.5zm194.71-86.53c-43.6 18.02-87.45 37.04-130.33 56.56l22 48.35c42.31-19.26 85.58-38.03 128.61-55.81zm2983.03-34.15-19.2 49.52c43.3 16.82 87 34.67 129.9 53.06l20.9-48.82c-43.4-18.63-87.7-36.72-131.6-53.76m-2783.99-41.99c-44.51 15.7-89.31 32.39-133.15 49.61l19.42 49.44a3998 3998 0 0 1 131.4-48.95zm2583.29-29.9-16.6 50.47c44.2 14.51 88.7 30.03 132.5 46.13l18.3-49.85c-44.3-16.32-89.5-32.05-134.2-46.75m-2380.48-35.65a4068 4068 0 0 0-135.6 42.51l16.78 50.4c44.17-14.7 89.2-28.82 133.82-41.95zm2176.08-25.49-13.82 51.28c44.92 12.14 90.22 25.27 134.72 39.02l15.7-50.76c-45.1-13.93-91-27.23-136.6-39.54m-1970.04-29.29a4047 4047 0 0 0-137.68 35.32l14.1 51.21c44.83-12.35 90.54-24.06 135.87-34.84zm1762.83-20.88-11.12 51.94c45.56 9.74 91.53 20.44 136.62 31.79l12.96-51.52c-45.7-11.5-92.29-22.34-138.46-32.21m-1554.14-22.93a4042 4042 0 0 0-139.39 27.98l11.38 51.89a3987 3987 0 0 1 137.54-27.61zm1344.49-16.08-8.31 52.46c45.95 7.28 92.42 15.51 138.11 24.43l10.19-52.14c-46.31-9.04-93.41-17.38-139.99-24.75m-1133.73-16.63c-46.81 6-94.14 12.92-140.7 20.57l8.62 52.41c45.94-7.54 92.65-14.38 138.83-20.29zm922.32-11.12-5.5 52.83c46.35 4.83 93.19 10.55 139.22 17.01l7.38-52.61c-46.65-6.54-94.12-12.34-141.1-17.23m-710.07-10.37c-47.1 3.51-94.74 7.9-141.62 13.07l5.82 52.81c46.26-5.11 93.27-9.45 139.74-12.9zm497.48-6.02-2.67 53.05c46.51 2.34 93.59 5.55 139.93 9.54l4.56-52.93c-46.97-4.04-94.68-7.29-141.82-9.66m-284.34-4.14c-47.16.98-94.98 2.84-142.14 5.51l3 53.04c46.53-2.64 93.72-4.47 140.26-5.45zm83.97-.89c-4.27 0-8.53.01-12.8.02l.18 53.12c46.57-.17 93.73.54 140.24 2.05l1.72-53.09c-42.88-1.4-86.4-2.1-129.34-2.1M5430.62 7393.85l-47.46 23.88a4157 4157 0 0 0 32.61 63.4l47.03-24.72a3919 3919 0 0 1-32.18-62.56"
          transform="matrix(.13333 0 0 -.13333 0 1496)"/>
    <path style="fill:#a5a6a9;fill-opacity:1;fill-rule:nonzero;stroke:none"
          d="M8936.62 1862.32c-499.15 0-983.37 97.76-1439.23 290.58-440.3 186.23-835.72 452.82-1175.29 792.39-339.56 339.56-606.16 734.98-792.39 1175.28-192.81 455.86-290.58 940.08-290.58 1439.23s97.77 983.38 290.58 1439.24c186.23 440.3 452.83 835.72 792.39 1175.28 339.57 339.57 734.99 606.17 1175.29 792.4 455.86 192.81 940.08 290.57 1439.23 290.57 305.55 0 609.34-37.36 902.93-111.04 285.15-71.55 561.65-177.57 821.95-315.12 255.8-135.14 496-300.72 714-492.16 217.1-190.68 411.9-406.74 578.9-642.19l-34.7-24.59c-165.1 232.75-357.6 446.35-572.3 634.85-215.4 189.24-452.9 352.93-705.7 486.51-257.3 135.96-530.7 240.76-812.49 311.48-290.21 72.84-590.52 109.76-892.59 109.76-493.43 0-972.09-96.63-1422.68-287.21-435.23-184.09-826.11-447.63-1161.79-783.31-335.67-335.67-599.21-726.56-783.3-1161.78-190.58-450.6-287.22-929.25-287.22-1422.69 0-493.43 96.64-972.09 287.22-1422.68 184.09-435.23 447.63-826.11 783.3-1161.79 335.68-335.67 726.56-599.21 1161.79-783.3 450.59-190.58 929.25-287.22 1422.68-287.22z"
          transform="matrix(.13333 0 0 -.13333 0 1496)"/>
    <path style="fill:#59595b;fill-opacity:1;fill-rule:nonzero;stroke:none"
          d="M15230.4 2261.87h-17.7v195.78l3.9 2.63 394.2 263.68 9.8-14.73-390.2-261.04zm488.8-505.06h-17.7v195.75l3.9 2.63 538.4 364.25 9.9-14.66-534.5-361.62z"
          transform="matrix(.13333 0 0 -.13333 0 1496)"/>
    <path style="fill:#59595b;fill-opacity:1;fill-rule:nonzero;stroke:none"
          d="M15978.8 1657.18h-17.3v192.12l4 2.56 325.3 206.67 9.2-14.66-321.2-204.11z"
          transform="matrix(.13596 0 0 -.13596 0 1496)"/>
    <path style="fill:#59595b;fill-opacity:1;fill-rule:nonzero;stroke:none"
          d="M1984.48 9845.48h-70.83v35.41h70.83zm106.24 0h-70.83v35.41h70.83zm106.24 0h-70.83v35.41h70.83zm106.24 0h-70.83v35.41h70.83zm106.24 0h-70.82v35.41h70.82zm106.24 0h-70.82v35.41h70.82zm106.25 0h-70.83v35.41h70.83zm106.24 0h-70.83v35.41h70.83zm106.24 0h-70.83v35.41h70.83zm106.24 0h-70.83v35.41h70.83zm106.24 0h-70.83v35.41h70.83zm106.24 0h-70.83v35.41h70.83zm106.24 0h-70.83v35.41h70.83zm106.24 0h-70.82v35.41h70.82zm106.24 0h-70.82v35.41h70.82zm106.25 0h-70.83v35.41h70.83zm106.24 0h-70.83v35.41h70.83zm106.24 0h-70.83v35.41h70.83zm106.24 0h-70.83v35.41h70.83zm106.24 0h-70.83v35.41h70.83zm106.24 0h-70.82v35.41h70.82zm106.24 0h-70.82v35.41h70.82zm106.24 0h-70.82v35.41h70.82zm106.25 0h-70.83v35.41h70.83zm106.24 0h-70.83v35.41h70.83zm106.24 0h-70.83v35.41h70.83zm106.24 0h-70.83v35.41h70.83zm106.24 0h-70.83v35.41h70.83zm106.24 0h-70.82v35.41h70.82zm-3107.19-9.22h-35.42v44.63h61.62v-35.41h-26.2zm0-106.24h-35.42v70.83h35.42zm0-67.66h-35.42v32.25h35.42zm10966.16-587.14h-348.4l-235.9 235.96h-331.7l-287.6 287.65h-392.1l-287.7-287.65h-703.1v35.42h688.4l287.7 287.64h421.4l287.7-287.64h331.6l236-235.97h319l236 235.97h499v-35.42h-484.4zm2174.7 553.11h-421.5l-287.6 287.65h-331.7l-235.9 235.92h-319l-236-235.92h-499v35.42h484.3l236 236h348.4l235.9-236h331.6l287.7-287.65h392.1l287.7 287.65h555v-35.42h-540.4z"
          transform="matrix(.13333 0 0 -.13333 0 1496)"/>
    <path style="fill:#59595b;fill-opacity:1;fill-rule:nonzero;stroke:none"
          d="m10565.2 9342.09-24.8 25.28 651.1 638.73h797.2l265.2-306.28h1487.2l4.4-2.84 363.2-235.24-19.3-29.72-358.7 232.38h-1493l-265.2 306.3H11206z"
          transform="matrix(.13333 0 0 -.13333 0 1496)"/>
    <path style="fill:#59595b;fill-opacity:1;fill-rule:nonzero;stroke:none"
          d="m10852.3 9663.99-312.1 312.03 25.1 25.08 312-312.07zm4448.2-479.86h-35.4v35.41h35.4zm0 166.93h-35.4v65.76h35.4zm0-98.64h-35.4v65.76h35.4zm0 197.27h-35.4v53.13h53.1v-35.42h-17.7z"
          transform="matrix(.13333 0 0 -.13333 0 1496)"/>
    <path style="fill:#59595b;fill-opacity:1;fill-rule:nonzero;stroke:none"
          d="M14926.1 9159.79h-70.4v34.27h70.4zm105.7 0h-70.4v34.27h70.4zm105.7 0h-70.4v34.27h70.4zm105.7 0h-70.4v34.27h70.4zm105.6 0h-70.4v34.27h70.4zm105.8 0h-70.5v34.27h70.5zm105.6 0h-70.4v34.27h70.4zm105.7 0h-70.4v34.27h70.4zm105.6 0h-70.4v34.27h70.4zm105.8 0h-70.4v34.27h70.4zm105.6 0h-70.4v34.27h70.4zm105.7 0h-70.4v34.27h70.4zm105.7 0h-70.5v34.27h70.5zm105.7 0h-70.4v34.27h70.4z"
          transform="matrix(.13781 0 0 -.13781 0 1496)"/>
    <path style="fill:#59595b;fill-opacity:1;fill-rule:nonzero;stroke:none"
          d="M16300 9094.34h-34.1v17.05h-17v34.08h51.1zm0-84.51h-34.1v56.34h34.1zm0-84.52h-34.1v56.35h34.1zm0-62.25h-34.1v34.08h34.1z"
          transform="matrix(.13854 0 0 -.13854 0 1496)"/>
    <path style="fill:#59595b;fill-opacity:1;fill-rule:nonzero;stroke:none"
          d="M15856.5 9414.28h-35.5v70.83h35.5zm0-106.24h-35.5v70.83h35.5zm0-106.24h-35.5v70.83h35.5zm0-42.27h-35.5v6.86h35.5z"
          transform="matrix(.13333 0 0 -.13333 0 1496)"/>
    <path style="fill:#59595b;fill-opacity:1;fill-rule:nonzero;stroke:none"
          d="M16300 9357.5h-35.2v70.4h35.2zm0-105.6h-35.2v70.41h35.2zm0-105.6h-35.2v70.41h35.2zm0-42.01h-35.2v6.82h35.2z"
          transform="matrix(.13414 0 0 -.13414 0 1496)"/>
    <path style="fill:#59595b;fill-opacity:1;fill-rule:nonzero;stroke:none"
          d="M16127.7 9734.94h-35.4v70.82h35.4zm0-106.24h-35.4v70.82h35.4zm0-106.25h-35.4v70.83h35.4zm0-42.26h-35.4v6.85h35.4zm-3225.5-1555.25-137.8 132.14 24.5 25.57 137.9-132.14zm512.3 551.19-34.7 6.96 13.9 69.44 34.8-6.95zm-20.8-104.17-34.8 6.96 14 69.44 34.7-6.95zm-20.9-104.17-34.7 6.96 13.9 69.44 34.7-6.96zm-20.9-104.17-34.7 6.96 13.9 69.44 34.7-6.96zm-15.5-77.4-34.7 6.95 8.5 42.68 34.8-6.96zm164.6-102.02-25.2 24.85 306.3 311.05 25.2-24.85zm435.1-718.45-422.3 237.92 17.4 30.86 422.3-237.92zm-1423.6-46.79-20.1 29.11 412 285.58 20.2-29.1z"
          transform="matrix(.13333 0 0 -.13333 0 1496)"/>
    <path style="fill:#a5a6a9;fill-opacity:1;fill-rule:nonzero;stroke:none"
          d="M4175.51 7833.13h-261.94v35.42h250.14l154.82 116.09h249.28v-35.41h-237.48zm-850.71 473.42h-35.41v471.23l154.08 357.49 32.52-14.02-151.19-350.77zm1060-216.44h-471.23v35.42h463.93l350.78 151.18 14.01-32.52zm-806.74 216.44h-35.42v281.95l-120.8 169.55 28.84 20.55 127.38-178.78zm-542.32 0h-35.41v287.31l-233.66 415.42 30.87 17.36 238.2-423.51zm739.15 0h-35.42v468.87l243.17 254.77 25.62-24.46-233.37-244.5zm846.01-932.89-244.51 233.38h-454.67v35.41h468.86l254.77-243.17zm-1306.09-1000.8-32.52 14.01 151.19 350.78v463.93h35.41v-471.23zm-7.22 356.67-127.37 178.78v293.27h35.41v-281.95l120.81-169.55zm-531.95-251.59-25.62 24.46 233.37 244.5v454.68h35.42v-468.87zm1185.1 3.55L3722.54 6905v296.58h35.41v-287.31l233.65-415.42zm412.47 776.65-169.55 120.81h-281.94v35.41h293.27l178.77-127.38zM2853.3 8108.38h-261.94l-154.81 116.09h-237.48v35.42h249.28l154.82-116.1h250.13zm0-269.83h-471.23l-357.49 154.09 14.02 32.52 350.78-151.19h463.92zm-695.71-717.93-24.45 25.63 254.76 243.16h468.87v-35.42h-454.68zm247.68 373.95-20.55 28.84 178.78 127.38h293.27v-35.42h-281.95z"
          transform="matrix(.13333 0 0 -.13333 0 1496)"/>
    <path style="fill:#e5e5e6;fill-opacity:1;fill-rule:nonzero;stroke:none"
          d="M7601.51 9580.21H8230v628.49h-628.49zm672.68-44.19h-716.87v716.88h716.87zm2757.71-8034.86c-386.6 0-700 313.4-700 700.01 0 386.6 313.4 700.01 700 700.01s700-313.41 700-700.01c0-386.61-313.4-700.01-700-700.01m0 1466.44c-423.3 0-766.4-343.15-766.4-766.43 0-423.29 343.1-766.43 766.4-766.43s766.5 343.14 766.5 766.43c0 423.28-343.2 766.43-766.5 766.43M4739.82 8052.82c-306.44 0-554.87 248.42-554.87 554.87 0 306.44 248.43 554.86 554.87 554.86 306.45 0 554.87-248.42 554.87-554.86 0-306.45-248.42-554.87-554.87-554.87m0 1162.38c-335.52 0-607.51-271.99-607.51-607.51s271.99-607.51 607.51-607.51 607.51 271.99 607.51 607.51-271.99 607.51-607.51 607.51"
          transform="matrix(.13333 0 0 -.13333 0 1496)"/>
    <path style="fill:#e5e5e6;fill-opacity:1;fill-rule:nonzero;stroke:none"
          d="M15416.3 3618.36h825.7v825.67h-825.7zm883.7-58.06h-941.8v941.79h941.8z"
          transform="matrix(.14315 0 0 -.14315 0 1496)"/>
    <path style="fill:#e5e5e6;fill-opacity:1;fill-rule:nonzero;stroke:none" d="M2157.55 4956.05H979.398V6134.2H2157.55z"
          transform="matrix(.13333 0 0 -.13333 0 1496)"/>
    <path style="fill:#e5e5e6;fill-opacity:1;fill-rule:nonzero;stroke:none"
          d="M16053.6 5812.24c0 68.07 55.1 123.24 123.1 123.24 68.2 0 123.3-55.17 123.3-123.24 0-68.06-55.1-123.24-123.3-123.24-68 0-123.1 55.18-123.1 123.24"
          transform="matrix(.13349 0 0 -.13349 0 1496)"/>
    <path style="fill:#d9d9da;fill-opacity:1;fill-rule:nonzero;stroke:none"
          d="M16195.4 5695.56c-68.1 0-123.3 55.24-123.3 123.39 0 68.14 55.2 123.38 123.3 123.38z"
          transform="matrix(.13333 0 0 -.13333 0 1496)"/>
    <path style="fill:#a5a6a9;fill-opacity:1;fill-rule:nonzero;stroke:none"
          d="M2583.55 4363.91c0 87.26 70.74 158 158 158 87.27 0 158.01-70.74 158.01-158 0-87.27-70.74-158-158.01-158-87.26 0-158 70.73-158 158"
          transform="matrix(.13333 0 0 -.13333 0 1496)"/>
    <path style="fill:#9c9da0;fill-opacity:1;fill-rule:nonzero;stroke:none"
          d="M2741.55 4205.91c-87.26 0-158 70.73-158 158 0 87.26 70.74 158 158 158z"
          transform="matrix(.13333 0 0 -.13333 0 1496)"/>
    <path style="fill:#e5e5e6;fill-opacity:1;fill-rule:nonzero;stroke:none"
          d="M3039.13 3881.08c0 51.63 41.85 93.48 93.48 93.48 51.62 0 93.47-41.85 93.47-93.48s-41.85-93.48-93.47-93.48c-51.63 0-93.48 41.85-93.48 93.48"
          transform="matrix(.13333 0 0 -.13333 0 1496)"/>
    <path style="fill:#d9d9da;fill-opacity:1;fill-rule:nonzero;stroke:none"
          d="M3132.61 3787.6c-51.63 0-93.48 41.85-93.48 93.48s41.85 93.48 93.48 93.48z"
          transform="matrix(.13333 0 0 -.13333 0 1496)"/>
    <path style="fill:#a5a6a9;fill-opacity:1;fill-rule:nonzero;stroke:none"
          d="M3951.27 2117.53H3727.6v1364.29h223.67zm1232.56 0h-223.68v1506.75h223.68zm-295.23 0h-223.67v1143.26h223.67z"
          transform="matrix(.13333 0 0 -.13333 0 1496)"/>
    <path style="fill:#d1562c;fill-opacity:1;fill-rule:nonzero;stroke:none" d="M4581.6 2117.53h-223.68v938.48h223.68z"
          transform="matrix(.13333 0 0 -.13333 0 1496)"/>
    <path style="fill:#6792b1;fill-opacity:1;fill-rule:nonzero;stroke:none" d="M4261.43 2117.53h-223.68v1876.95h223.68z"
          transform="matrix(.13333 0 0 -.13333 0 1496)"/>
    <path style="fill:#59595b;fill-opacity:1;fill-rule:nonzero;stroke:none"
          d="M5201.38 1942.5H3524.8v2207.51h35.41V1977.92h1641.17zm142.05 0h-96.81v35.42h96.81zm130.23 0h-96.81v35.42h96.81zm38.8 121.92 151.48-104.21L5512.46 1856Z"
          transform="matrix(.13333 0 0 -.13333 0 1496)"/>
    <path style="fill:#6792b1;fill-opacity:1;fill-rule:nonzero;stroke:none"
          d="m13650.2 2924.7-264.5-139.78-264.5 139.78 264.5 139.77z" transform="matrix(.13333 0 0 -.13333 0 1496)"/>
    <path style="fill:#dbdbdb;fill-opacity:1;fill-rule:nonzero;stroke:none"
          d="M13121.2 2924.7v-286.05l264.5-139.77v286.04z" transform="matrix(.13333 0 0 -.13333 0 1496)"/>
    <path style="fill:#a5a6a9;fill-opacity:1;fill-rule:nonzero;stroke:none"
          d="M13649.3 2924.7v-286.05l-264.4-139.77v286.04z" transform="matrix(.13333 0 0 -.13333 0 1496)"/>
    <path style="fill:#6792b1;fill-opacity:1;fill-rule:nonzero;stroke:none"
          d="m13842.7 1544.95-264.5-139.77-264.4 139.77 264.4 139.78z" transform="matrix(.13333 0 0 -.13333 0 1496)"/>
    <path style="fill:#dbdbdb;fill-opacity:1;fill-rule:nonzero;stroke:none"
          d="M13313.8 1544.95v-286.04l264.4-139.81v286.08z" transform="matrix(.13333 0 0 -.13333 0 1496)"/>
    <path style="fill:#a5a6a9;fill-opacity:1;fill-rule:nonzero;stroke:none"
          d="M13841.9 1544.95v-286.04l-264.5-139.81v286.08z" transform="matrix(.13333 0 0 -.13333 0 1496)"/>
    <path style="fill:#6792b1;fill-opacity:1;fill-rule:nonzero;stroke:none"
          d="m11855.6 1759.48-264.4-139.78-264.5 139.78 264.5 139.77z" transform="matrix(.13333 0 0 -.13333 0 1496)"/>
    <path style="fill:#dbdbdb;fill-opacity:1;fill-rule:nonzero;stroke:none"
          d="M11326.7 1759.48v-286.05l264.5-139.78v286.05z" transform="matrix(.13333 0 0 -.13333 0 1496)"/>
    <path style="fill:#a5a6a9;fill-opacity:1;fill-rule:nonzero;stroke:none"
          d="M11854.8 1759.48v-286.05l-264.5-139.78v286.05z" transform="matrix(.13333 0 0 -.13333 0 1496)"/>
    <path style="fill:#59595b;fill-opacity:1;fill-rule:nonzero;stroke:none"
          d="M12221.9 1018.3h-239v239.01h239zM13373 3312.74h-239.1v239.04h239.1zm688.2-293.06h-239v239.04h239zm338-1762.52h-239v239.04h239zm-3192-238.86h-239.1v239.01h239.1zm-51.8 1021.4h-239.1v239.04h239.1z"
          transform="matrix(.13333 0 0 -.13333 0 1496)"/>
    <path style="fill:#d1562c;fill-opacity:1;fill-rule:nonzero;stroke:none"
          d="m13045.3 2362.17-446.1-235.76-446.1 235.76 446.1 235.75z" transform="matrix(.13333 0 0 -.13333 0 1496)"/>
    <path style="fill:#dbdbdb;fill-opacity:1;fill-rule:nonzero;stroke:none"
          d="M12153.1 2362.17V1879.7l446.1-235.75v482.46z" transform="matrix(.13333 0 0 -.13333 0 1496)"/>
    <path style="fill:#a5a6a9;fill-opacity:1;fill-rule:nonzero;stroke:none"
          d="M13043.9 2362.17V1879.7l-446.1-235.75v482.46z" transform="matrix(.13333 0 0 -.13333 0 1496)"/>
    <path style="fill:#6792b1;fill-opacity:1;fill-rule:nonzero;stroke:none"
          d="m9149.43 9358.11-357.57 180.19 357.57 180.19z" transform="matrix(.13333 0 0 -.13333 0 1496)"/>
    <path style="fill:#dbdbdb;fill-opacity:1;fill-rule:nonzero;stroke:none"
          d="m11494.4 5698.89 844.9 34.09c-20.1 505.68-150.4 983-367.7 1408.55l-753.6-383.97c163.3-319.85 261.3-678.6 276.4-1058.67M8938 3037.29c-701.03 0-1336.18 281.98-1798.29 738.66l-594.33-601.43c614.84-607.63 1459.9-982.8 2392.62-982.8 58.48 0 116.62 1.48 174.38 4.4l-43.32 844.47c-43.41-2.19-87.11-3.3-131.06-3.3m2324.7 1488.77 768.4-353.53c51.3 111.38 96.8 225.99 136.1 343.47l-801.6 269.82c-29.7-88.86-64-175.54-102.9-259.76m-957-1092.88 452-714.71c414.3 262.6 768.1 612.22 1035.5 1023.2l-709.3 460.55c-200.9-308.88-466.8-571.66-778.2-769.04m1162.7 1782.95c-16.6-112.07-40.6-221.76-71.3-328.59l812.2-235.95c41 142.39 73 288.62 95.3 438.03zm13.5 105.61 840.7-91.32c6.6 61.94 11.6 124.36 14.8 187.25l-844.4 44.23c-2.4-47.07-6.2-93.79-11.1-140.16"
          transform="matrix(.13333 0 0 -.13333 0 1496)"/>
    <path style="fill:#a5a6a9;fill-opacity:1;fill-rule:nonzero;stroke:none"
          d="m11100.6 6963.41 714.7 452.01c-573.7 905.23-1562.8 1521.18-2699.23 1579.75l-44.24-844.42c854.16-44.02 1597.57-506.97 2028.77-1187.34"
          transform="matrix(.13333 0 0 -.13333 0 1496)"/>
    <path style="fill:#dbdbdb;fill-opacity:1;fill-rule:nonzero;stroke:none"
          d="m6470.11 4918.73-815.63-223.75c40.01-146.21 89.5-288.51 147.82-426.15l778.91 329.61a2538 2538 0 0 0-111.1 320.29m2706.03-1870.47 78.7-841.94c355.34 32.81 694.86 120.18 1010.06 253.73l-329.59 778.91c-236.92-100.38-492.1-166.05-759.17-190.7M6379.53 5595.75c0 767.68 338.15 1456.36 873.58 1925.31l-552.49 640.13c-714.92-624.02-1166.65-1541.96-1166.65-2565.44 0-262.05 29.65-517.17 85.7-762.22l824.28 189.33c-42.13 184.19-64.42 375.93-64.42 572.89m471.29-1480.02-689.8-489.14a3420.5 3420.5 0 0 1 284.85-349.63l619.04 575.99a2571 2571 0 0 0-214.09 262.78m3182.38-832.77 362-764.37c29.8 14.12 59.3 28.62 88.6 43.56l-384 753.55c-22-11.23-44.2-22.13-66.6-32.74M6625.21 4500.49l-764.37-361.97c64.75-136.49 138.32-267.99 219.96-393.75l709.73 459.78a2556 2556 0 0 0-165.32 295.94m2209.64 3651.65-34.09 844.88c-216.96-8.6-428.7-37.49-633.37-84.86l193.91-823.22c153.06 35.26 311.37 56.77 473.55 63.2m-697.99-125.91L7867.6 8828c-332.02-109.89-641.39-269.51-919.29-470.04l490.92-688.53c210.67 152.53 445.48 273.73 697.63 356.8"
          transform="matrix(.13333 0 0 -.13333 0 1496)"/>
    <path style="fill:#d1562c;fill-opacity:1;fill-rule:nonzero;stroke:none"
          d="M3371.72 1669.54c-109.86 0-209.47-43.7-282.6-114.54l282.6-291.73z"
          transform="matrix(.13333 0 0 -.13333 0 1496)"/>
    <path style="fill:#a5a6a9;fill-opacity:1;fill-rule:nonzero;stroke:none"
          d="M3022.44 918.102 3353.82 1153l-282.6 291.73c-76.21-73.85-123.66-177.21-123.66-291.73 0-87.5 27.78-168.5 74.88-234.898"
          transform="matrix(.13333 0 0 -.13333 0 1496)"/>
    <path style="fill:#dbdbdb;fill-opacity:1;fill-rule:nonzero;stroke:none"
          d="M3851.18 1208.7a412 412 0 0 1-9.8 41.52c-1.71 5.85-3.54 11.63-5.49 17.36a406 406 0 0 1-14.56 36.81 392 392 0 0 1-7.35 15.49 418 418 0 0 1-18.45 32.91c-2.91 4.68-5.86 9.32-8.95 13.88a421 421 0 0 1-24.55 32.52 438 438 0 0 1-10.59 12.24c-8.11 8.99-16.64 17.6-25.51 25.86-3.93 3.67-7.96 7.26-12.04 10.78a416 416 0 0 1-28.72 22.64c-4.43 3.22-8.91 6.34-13.47 9.36-10.39 6.88-21.08 13.35-32.1 19.28-4.96 2.68-10 5.25-15.08 7.73-13 6.34-26.38 12.02-40.11 16.98-5.62 2.04-11.29 4-17.03 5.78a415 415 0 0 1-40.85 10.56 437 437 0 0 1-19.35 3.46c-15.37 2.37-31.05 3.83-46.91 4.45-5.53.21-11.05.42-16.63.42a8.06 8.06 0 0 1-8.07-8.07V1138.5l-28.71-20.3-78.38-55.5-176.4-125.098-44.49-31.5c-1.75-1.2-2.94-3.102-3.29-5.204-.36-2.097.14-4.296 1.37-6.097l1.56-2c7.16-10 14.8-19.5 22.74-28.699 3.53-4 7.07-8.102 10.76-12a385 385 0 0 1 25.94-25.403c4.02-3.597 8.11-7.199 12.24-10.597 10.48-8.7 21.26-17 32.49-24.602 4.57-3.102 9.28-6 13.97-8.898 10.7-6.602 21.66-12.801 32.9-18.403 5.1-2.597 10.22-5.097 15.42-7.398 12.04-5.5 24.39-10.199 36.92-14.5 5.74-1.899 11.49-3.801 17.32-5.5 13.59-4 27.39-7.403 41.4-10 6.56-1.199 13.18-2.102 19.8-3 17.59-2.301 35.4-3.602 53.37-3.699h1.14c7.47 0 14.89.199 22.27.597 19.99 1 39.61 3.602 58.76 7.403 10.17 2 20.18 4.5 30.06 7.199 30.24 8.398 59.13 20.101 86.17 34.801 27.51 15 53.09 33 76.4 53.597 13.12 11.602 25.49 23.903 37.05 37 20.57 23.301 38.63 48.903 53.58 76.403 14.71 27.097 26.37 56 34.8 86.198 2.76 9.9 5.21 19.9 7.24 30.1 3.81 19.1 6.33 38.7 7.4 58.7.39 7.4.61 14.8.61 22.3l-.03 1.1c-.05 18.2-1.37 36-3.67 53.4-.88 6.7-1.92 13.2-3.1 19.8"
          transform="matrix(.13333 0 0 -.13333 0 1496)"/>
    <path style="fill:#59595b;fill-opacity:1;fill-rule:nonzero;stroke:none" d="M6937.09 833.102h-893.76V2308.57h893.76z"
          transform="matrix(.13333 0 0 -.13333 0 1496)"/>
    <path style="fill:#dbdbdb;fill-opacity:1;fill-rule:nonzero;stroke:none"
          d="M6805.63 1079.3h-630.84v1081.18h630.84zm-373.45-145.398c0 31.996 25.98 58 58.03 58s58.03-26.004 58.03-58c0-32.101-25.98-58.004-58.03-58.004s-58.03 25.903-58.03 58.004"
          transform="matrix(.13333 0 0 -.13333 0 1496)"/>
    <path style="fill:#d1562c;fill-opacity:1;fill-rule:nonzero;stroke:none"
          d="M6371.29 1960.97h-116.08v116.08h116.08zm176.96 0h-116.08v116.08h116.08zm176.96 0h-116.08v116.08h116.08zm-353.92-163.69h-116.08v116.08h116.08zm176.96 0h-116.08v116.08h116.08zm176.96 0h-116.08v116.08h116.08zm-353.92-163.68h-116.08v116.08h116.08zm176.96 0h-116.08v116.08h116.08zm176.96 0h-116.08v116.08h116.08zm-353.92-163.69h-116.08V1586h116.08zm176.96 0h-116.08V1586h116.08zm-176.96-165.12h-116.08v116.09h116.08zm176.96 0h-116.08v116.09h116.08zm176.96 165.12h-116.08V1586h116.08z"
          transform="matrix(.13333 0 0 -.13333 0 1496)"/>
    <path style="fill:#a5a6a9;fill-opacity:1;fill-rule:nonzero;stroke:none" d="M6725.21 1152.1h-470v99.77h470z"
          transform="matrix(.13333 0 0 -.13333 0 1496)"/>
    <path style="fill:#e5e5e6;fill-opacity:1;fill-rule:nonzero;stroke:none"
          d="M6130.74 1039.3h736.52l-7.94 1164.95H6122.8Zm754.35-17.7h-771.93l-8.19 1200.36h771.93z"
          transform="matrix(.13333 0 0 -.13333 0 1496)"/>
    <path style="fill:#6792b1;fill-opacity:1;fill-rule:nonzero;stroke:none"
          d="m14936.2 3615.88-112-111.96-148.7 148.75 111.9 111.96z" transform="matrix(.13333 0 0 -.13333 0 1496)"/>
    <path style="fill:#a5a6a9;fill-opacity:1;fill-rule:nonzero;stroke:none"
          d="M14781.4 4378.66c198.8-198.82 198.8-521.16 0-719.98s-521.2-198.82-720 0-198.8 521.16 0 719.98 521.2 198.82 720 0"
          transform="matrix(.13333 0 0 -.13333 0 1496)"/>
    <path style="fill:#59595b;fill-opacity:1;fill-rule:nonzero;stroke:none"
          d="M14675.9 4273.19c140.6-140.57 140.6-368.47 0-509.04-140.5-140.57-368.4-140.57-509 0s-140.6 368.47 0 509.04 368.5 140.57 509 0"
          transform="matrix(.13333 0 0 -.13333 0 1496)"/>
    <path style="fill:#a5a6a9;fill-opacity:1;fill-rule:nonzero;stroke:none"
          d="m15056.6 3567.29-183.8-183.8-84.5 84.51 183.8 183.8z" transform="matrix(.13333 0 0 -.13333 0 1496)"/>
    <path style="fill:#d1562c;fill-opacity:1;fill-rule:nonzero;stroke:none"
          d="m15470.2 3109.11-139.2-139.2-435.9 435.88 139.2 139.2z" transform="matrix(.13333 0 0 -.13333 0 1496)"/>
    <path style="fill:#59595b;fill-opacity:1;fill-rule:nonzero;stroke:none"
          d="M14421.4 4458.09c-112.6 0-225.1-42.85-310.8-128.56-171.4-171.41-171.4-450.31 0-621.72s450.3-171.41 621.7 0 171.4 450.31 0 621.72c-85.7 85.71-198.3 128.56-310.9 128.56m0-896.54c-117.1 0-234.2 44.58-323.4 133.74-178.3 178.31-178.3 468.45 0 646.76 178.4 178.32 468.5 178.32 646.8 0 178.3-178.31 178.3-468.45 0-646.76-89.2-89.16-206.3-133.74-323.4-133.74"
          transform="matrix(.13333 0 0 -.13333 0 1496)"/>
    <path style="fill:#a5a6a9;fill-opacity:1;fill-rule:nonzero;stroke:none"
          d="M3360.8 8306.55c0-29.66-24.04-53.7-53.7-53.7s-53.71 24.04-53.71 53.7 24.05 53.71 53.71 53.71 53.7-24.05 53.7-53.71m253.26 0c0-29.66-24.05-53.7-53.71-53.7s-53.7 24.04-53.7 53.7 24.04 53.71 53.7 53.71 53.71-24.05 53.71-53.71m353.22-455.71c0-29.66-24.05-53.71-53.71-53.71s-53.7 24.05-53.7 53.71 24.04 53.71 53.7 53.71 53.71-24.05 53.71-53.71m821.71 409.61c0-29.66-24.05-53.7-53.71-53.7s-53.7 24.04-53.7 53.7 24.04 53.71 53.7 53.71 53.71-24.05 53.71-53.71m-167.48-293.52c0-29.66-24.04-53.7-53.7-53.7s-53.71 24.04-53.71 53.7 24.05 53.71 53.71 53.71 53.7-24.05 53.7-53.71m-654.23 140.89c0-29.66-24.05-53.71-53.71-53.71s-53.7 24.05-53.7 53.71 24.04 53.7 53.7 53.7 53.71-24.04 53.71-53.7m-895.54 198.73c0-29.66-24.04-53.7-53.71-53.7-29.65 0-53.7 24.04-53.7 53.7s24.05 53.71 53.7 53.71c29.67 0 53.71-24.05 53.71-53.71m-235.93 711.41c0-29.66-24.04-53.71-53.7-53.71s-53.71 24.05-53.71 53.71 24.05 53.71 53.71 53.71 53.7-24.05 53.7-53.71m654.16-249.63c0-29.67-24.05-53.71-53.71-53.71s-53.7 24.04-53.7 53.71c0 29.66 24.04 53.7 53.7 53.7s53.71-24.04 53.71-53.7m320.92-461.78c0-29.66-24.05-53.7-53.71-53.7s-53.71 24.04-53.71 53.7 24.05 53.71 53.71 53.71 53.71-24.05 53.71-53.71m218.99 699.8c0-29.66-24.05-53.71-53.71-53.71s-53.7 24.05-53.7 53.71 24.04 53.7 53.7 53.7 53.71-24.04 53.71-53.7m-108.16-1435.31c-29.66 0-53.71 24.04-53.71 53.7s24.05 53.71 53.71 53.71 53.7-24.05 53.7-53.71-24.04-53.7-53.7-53.7m699.79-219c-29.66 0-53.7 24.05-53.7 53.71s24.04 53.7 53.7 53.7 53.71-24.04 53.71-53.7-24.05-53.71-53.71-53.71m-1224.03-150.46c0 29.66 24.04 53.7 53.7 53.7s53.71-24.04 53.71-53.7-24.05-53.71-53.71-53.71-53.7 24.05-53.7 53.71m-253.26 0c0 29.66 24.04 53.7 53.71 53.7 29.66 0 53.7-24.04 53.7-53.7s-24.04-53.71-53.7-53.71c-29.67 0-53.71 24.05-53.71 53.71m-196.83 0c0 29.66 24.05 53.7 53.71 53.7s53.7-24.04 53.7-53.7-24.04-53.71-53.7-53.71-53.71 24.05-53.71 53.71m739.15 0c0 29.66 24.04 53.7 53.7 53.7s53.71-24.04 53.71-53.7-24.05-53.71-53.71-53.71-53.7 24.05-53.7 53.71m235.93-711.41c0 29.66 24.04 53.71 53.7 53.71s53.71-24.05 53.71-53.71-24.05-53.71-53.71-53.71-53.7 24.05-53.7 53.71m-677.63-110.3c0 29.66 24.04 53.7 53.71 53.7 29.66 0 53.7-24.04 53.7-53.7s-24.04-53.71-53.7-53.71c-29.67 0-53.71 24.05-53.71 53.71m23.47 359.93c0 29.66 24.04 53.71 53.71 53.71 29.65 0 53.7-24.05 53.7-53.71 0-29.65-24.05-53.7-53.7-53.7-29.67 0-53.71 24.05-53.71 53.7m653.41 710.56c-29.66 0-53.71-24.05-53.71-53.71s24.05-53.7 53.71-53.7 53.7 24.04 53.7 53.7-24.04 53.71-53.7 53.71m461.77-124.09c-29.66 0-53.71-24.04-53.71-53.71 0-29.65 24.05-53.7 53.71-53.7s53.7 24.05 53.7 53.7c0 29.67-24.04 53.71-53.7 53.71M2799.6 8126.09c0-29.66 24.04-53.71 53.7-53.71s53.71 24.05 53.71 53.71-24.05 53.7-53.71 53.7-53.7-24.04-53.7-53.7m-654.24 116.09c0-29.66 24.05-53.7 53.71-53.7s53.7 24.04 53.7 53.7-24.04 53.71-53.7 53.71-53.71-24.05-53.71-53.71m-167.47-233.28c0-29.66 24.04-53.71 53.7-53.71s53.71 24.05 53.71 53.71-24.05 53.7-53.71 53.7-53.7-24.04-53.7-53.7m821.71-152.64c0-29.66 24.04-53.7 53.7-53.7s53.71 24.04 53.71 53.7-24.05 53.71-53.71 53.71-53.7-24.05-53.7-53.71m57.17-538.27c29.66 0 53.7 24.05 53.7 53.71s-24.04 53.71-53.7 53.71-53.71-24.05-53.71-53.71 24.05-53.71 53.71-53.71M2156.97 7099c29.66 0 53.71 24.05 53.71 53.71s-24.05 53.71-53.71 53.71-53.7-24.05-53.7-53.71 24.04-53.71 53.7-53.71m699.8 587.78c29.66 0 53.7-24.04 53.7-53.7s-24.04-53.71-53.7-53.71-53.71 24.05-53.71 53.71 24.05 53.7 53.71 53.7M2395 7562.7c29.66 0 53.7-24.05 53.7-53.71s-24.04-53.71-53.7-53.71-53.71 24.05-53.71 53.71 24.05 53.71 53.71 53.71m333.4-1060.92c0 29.66 24.05 53.71 53.71 53.71s53.7-24.05 53.7-53.71-24.04-53.7-53.7-53.7-53.71 24.04-53.71 53.7"
          transform="matrix(.13333 0 0 -.13333 0 1496)"/>
    <path style="fill:#59595b;fill-opacity:1;fill-rule:nonzero;stroke:none" d="M3913.57 7185.76H2860.8v1124.61h1052.77z"
          transform="matrix(.13333 0 0 -.13333 0 1496)"/>
    <path style="fill:#88c3ee;fill-opacity:1;fill-rule:nonzero;stroke:none" d="M3774.24 7334.61h-774.1v826.91h774.1z"
          transform="matrix(.13333 0 0 -.13333 0 1496)"/>
    <path style="fill:#dbdbdb;fill-opacity:1;fill-rule:nonzero;stroke:none"
          d="M3132.45 8051.85h-60.71v53.73h60.71zm87.33 0h-60.72v53.73h60.72zm87.32 0h-60.72v53.73h60.72zm87.32 0h-60.72v53.73h60.72zm87.32 0h-60.71v53.73h60.71zm126.03 0h-60.72v53.73h60.72zm-475.32-480.29h-60.71v53.73h60.71zm87.33 0h-60.72v53.73h60.72zm-87.33-83.18h-60.71v53.73h60.71zm87.33 0h-60.72v53.73h60.72zm87.32 83.18h-60.72v53.73h60.72zm87.32 0h-60.72v53.73h60.72zm126.02 0h-60.71v53.73h60.71zm87.33 0h-60.72v53.73h60.72zm-475.32 395.37h-60.71v53.73h60.71zm87.33 0h-60.72v53.73h60.72zm87.32 0h-60.72v53.73h60.72zm87.32 0h-60.72v53.73h60.72zm87.32 0h-60.71v53.73h60.71zm87.32 0h-60.71v53.73h60.71zm-436.61-583.77h-60.71v53.73h60.71zm87.33 0h-60.72v53.73h60.72zm87.32 0h-60.72v53.73h60.72zm126.02 0h-60.71v53.73h60.71zm87.32 0h-60.71v53.73h60.71zm87.33 0h-60.72v53.73h60.72zm-475.32 498.86h-60.71v53.73h60.71zm26.61-108.47h-87.32v77.29h87.32zm0-112.91h-87.32v77.28h87.32zm537.16 391.21h-60.71v53.73h60.71zm0-480.29h-60.71v53.73h60.71zm0-83.18h-60.71v53.73h60.71zm0 478.55h-60.71v53.73h60.71zm0-583.77h-60.71v53.73h60.71zm0 498.86h-60.71v53.73h60.71zm7.25-108.47h-87.32v77.29h87.32zm-7.74-112.91h-87.32v77.28h87.32zm-366.62 0h-87.33v77.28h87.33zm150.81 0h-87.32v77.28h87.32zm-146.21-195.81h-87.33v77.28h87.33zm143.07 0h-87.32v77.28h87.32zm143.08 0h-87.32v77.28h87.32zm-361.38 417.19h-60.71v53.73h60.71zm87.32 0h-60.71v53.73h60.71zm164.73 0h-60.71v53.73h60.71zm87.33 0h-60.72v53.73h60.72zm-347.73-96.69h-60.71v53.74h60.71zm87.32 0h-60.71v53.74h60.71zm87.32 0h-60.71v53.74h60.71zm87.33 0h-60.72v53.74h60.72zm79.58 0h-60.71v53.74h60.71zm-37.23-112.91h-60.72v53.73h60.72z"
          transform="matrix(.13333 0 0 -.13333 0 1496)"/>
    <path style="fill:#a5a6a9;fill-opacity:1;fill-rule:nonzero;stroke:none"
          d="M3519.75 9132.29c0-30.91-25.06-55.98-55.98-55.98s-55.99 25.07-55.99 55.98c0 30.93 25.07 55.99 55.99 55.99s55.98-25.06 55.98-55.99m1668.74 1412.41v-136.6h1293.83V8795.12h126.41v1749.58z"
          transform="matrix(.13333 0 0 -.13333 0 1496)"/>
    <path style="fill:#dbdbdb;fill-opacity:1;fill-rule:nonzero;stroke:none"
          d="M5075.26 9781.9h783v-385.38h-783zm0 136h1231.98v-17.71H5075.26Zm0 107.9h1231.98v-17.7H5075.26Zm334.03 96.7h897.95v-17.7h-897.95zm518.65-725.98v385.38h354.55v-385.38zm379.3-120.29H5075.26v17.71h1231.98zm0-107.92H5075.26v17.7h1231.98zm0-114.09H5075.26v17.71h1231.98zm0-107.93H5075.26V8964h1231.98zm-244.27-114.74h-987.71v17.71h987.71zm-1105.43-271.78h1238.15v272.65h246.29v1535.38H4957.54z"
          transform="matrix(.13333 0 0 -.13333 0 1496)"/>
    <path style="fill:#a5a6a9;fill-opacity:1;fill-rule:nonzero;stroke:none" d="m6195.69 8559.77 246.29 272.65h-246.29z"
          transform="matrix(.13333 0 0 -.13333 0 1496)"/>
    <path style="fill:#59595b;fill-opacity:1;fill-rule:nonzero;stroke:none"
          d="M6307.24 10122.5h-897.95v-17.7h897.95zm0-96.7H5075.26v-17.7h1231.98zm0-107.9H5075.26v-17.71h1231.98zm-1231.98-641.67h1231.98v17.71H5075.26zm0-107.92h1231.98v17.7H5075.26zm0-114.09h1231.98v17.71H5075.26zm0-107.93h1231.98V8964H5075.26zm0-114.74h987.71v17.71h-987.71z"
          transform="matrix(.13333 0 0 -.13333 0 1496)"/>
    <path style="fill:#88c3ee;fill-opacity:1;fill-rule:nonzero;stroke:none" d="M5858.26 9781.9h-783v-385.38h783z"
          transform="matrix(.13333 0 0 -.13333 0 1496)"/>
    <path style="fill:#d1562c;fill-opacity:1;fill-rule:nonzero;stroke:none" d="M5927.94 9781.9v-385.38h354.55v385.38z"
          transform="matrix(.13333 0 0 -.13333 0 1496)"/>
    <path style="fill:#59595b;fill-opacity:1;fill-rule:nonzero;stroke:none"
          d="M1617.26 7467.8c0-132.61-107.5-240.11-240.11-240.11s-240.12 107.5-240.12 240.11c0 132.62 107.51 240.12 240.12 240.12s240.11-107.5 240.11-240.12m131.82-68.06v106.74h-61.52a310.6 310.6 0 0 1-12.29 56.22l49.89 28.8-53.38 92.44-45.89-26.49a316 316 0 0 1-42.14 45.19l24.8 42.97-92.44 53.37-23.35-40.45a310.7 310.7 0 0 1-62.24 17.51v44.72h-106.74v-44.72a310.8 310.8 0 0 1-62.78-17.73l-22.24 38.53-92.44-53.38 23.79-41.21a314.5 314.5 0 0 1-43.02-46.52l-42.44 24.5-53.37-92.44 47.07-27.18a311 311 0 0 1-12.1-58.41h-56.76v-106.75h63.29a310.4 310.4 0 0 1 17.4-52.25l-56.76-32.76 53.37-92.44 62.17 35.89c11.6-12.38 24.2-23.8 37.67-34.16l-36.61-63.4 92.45-53.37 38.72 67.06c15.15-4.88 30.8-8.64 46.87-11.17v-77.68h106.74v79.16c15.8 2.94 31.17 7.07 46.03 12.3l38.99-67.53 92.44 53.37-38.25 66.27a314 314 0 0 1 35.78 33.99l64.13-37.03 53.38 92.45-60.66 35.02a311.5 311.5 0 0 1 15.86 50.57z"
          transform="matrix(.13333 0 0 -.13333 0 1496)"/>
    <path style="fill:#59595b;fill-opacity:1;fill-rule:nonzero;stroke:none"
          d="M1377.15 7303.84c-90.55 0-163.96 73.41-163.96 163.96s73.41 163.96 163.96 163.96 163.96-73.41 163.96-163.96-73.41-163.96-163.96-163.96m0 362.28c-109.53 0-198.32-88.79-198.32-198.32s88.79-198.32 198.32-198.32 198.32 88.79 198.32 198.32-88.79 198.32-198.32 198.32"
          transform="matrix(.13333 0 0 -.13333 0 1496)"/>
    <path style="fill:#a5a6a9;fill-opacity:1;fill-rule:nonzero;stroke:none"
          d="M9613.04 9867.8c0-46.01 37.29-83.38 83.4-83.38s83.44 37.37 83.44 83.38c0 46.11-37.33 83.45-83.44 83.45s-83.4-37.34-83.4-83.45"
          transform="matrix(.13333 0 0 -.13333 0 1496)"/>
    <path style="fill:#a5a6a9;fill-opacity:1;fill-rule:nonzero;stroke:none"
          d="m9464.94 10024.6 85.49-75.9c34.53 45.79 86.67 75 144.89 75 60.41 0 114.23-31.46 148.63-80.24l86.36 74.74c-54.59 76.8-139.58 126.4-234.99 126.4-92.75 0-175.69-46.8-230.38-120"
          transform="matrix(.13333 0 0 -.13333 0 1496)"/>
    <path style="fill:#a5a6a9;fill-opacity:1;fill-rule:nonzero;stroke:none"
          d="m9329.78 10144.7 85.53-76c65.93 90 166.93 147.7 280.01 147.7 116.05 0 219.33-60.8 285.09-154.8l86.39 74.8c-85.98 122-220.45 200.9-371.48 200.9-147.59 0-279.45-75.3-365.54-192.6m6009.62-4854.83H15093v162.66h246.4z"
          transform="matrix(.13333 0 0 -.13333 0 1496)"/>
    <path style="fill:#dbdbdb;fill-opacity:1;fill-rule:nonzero;stroke:none" d="M15339.4 5506.72H15093v162.66h246.4z"
          transform="matrix(.13333 0 0 -.13333 0 1496)"/>
    <path style="fill:#4f4f4f;fill-opacity:1;fill-rule:nonzero;stroke:none" d="M15339.4 4719.7H15093v507.92h246.4z"
          transform="matrix(.13333 0 0 -.13333 0 1496)"/>
    <path style="fill:#a5a6a9;fill-opacity:1;fill-rule:nonzero;stroke:none"
          d="M15028.5 5289.87h-246.3v162.66h246.3zm0 216.85h-246.3v162.66h246.3z"
          transform="matrix(.13333 0 0 -.13333 0 1496)"/>
    <path style="fill:#dbdbdb;fill-opacity:1;fill-rule:nonzero;stroke:none"
          d="M15028.5 5721.96h-246.3v162.66h246.3zm0 216.85h-246.3v162.66h246.3z"
          transform="matrix(.13333 0 0 -.13333 0 1496)"/>
    <path style="fill:#4f4f4f;fill-opacity:1;fill-rule:nonzero;stroke:none" d="M15028.5 4719.7h-246.3v507.92h246.3z"
          transform="matrix(.13333 0 0 -.13333 0 1496)"/>
    <path style="fill:#a5a6a9;fill-opacity:1;fill-rule:nonzero;stroke:none" d="M15658.4 5068.99h-246.3v162.66h246.3z"
          transform="matrix(.13333 0 0 -.13333 0 1496)"/>
    <path style="fill:#dbdbdb;fill-opacity:1;fill-rule:nonzero;stroke:none" d="M15658.4 5285.84h-246.3v162.66h246.3z"
          transform="matrix(.13333 0 0 -.13333 0 1496)"/>
    <path style="fill:#4f4f4f;fill-opacity:1;fill-rule:nonzero;stroke:none"
          d="M15938.1 4719.7h-246.3v162.66h246.3zm-279.7 0h-246.3v287.03h246.3z"
          transform="matrix(.13333 0 0 -.13333 0 1496)"/>
    <path style="fill:#59595b;fill-opacity:1;fill-rule:nonzero;stroke:none"
          d="m2924.37 5697.76-26.23 23.8 40.89 45.05 27.53-1.62 5.8-8.13-12.65-9.02 5.54-5.03zm80.84-47.96-41.13 57.67 28.84 20.56 41.12-57.67zm-152.24-30.71-26.23 23.8 47.6 52.45 26.23-23.81zm213.92-55.79-41.12 57.67 28.83 20.55 41.12-57.66zm564.43-5.92-22.24 27.56 55.11 44.48 22.25-27.55zm-849.75-16.96-26.23 23.79 47.6 52.45 26.23-23.8zm767.08-49.77-22.24 27.56 55.11 44.49 22.25-27.56zm-420.08-13.86-41.12 57.67 28.83 20.56 41.12-57.66zm-418.4-15.05-26.22 23.8 47.59 52.45 26.23-23.8zm755.81-37.81-22.24 27.55 55.11 44.49 22.24-27.56zm-275.73-33.64-41.12 57.67 28.83 20.56 41.12-57.67zm-551.48-7.22-26.22 23.8 47.59 52.45 26.23-23.8zm744.54-25.87-22.25 27.55 55.12 44.49 22.24-27.56zm-1517.04-14.49-58.59 39.79 19.89 29.3 58.6-39.78zm-108.81-20.49-26.22 23.8 47.61 52.45 26.22-23.81zm809.91-17.83-26.22 23.8 47.6 52.45 26.22-23.79zm684.56-.6-41.12 57.67 28.83 20.56 41.13-57.67zm48.71-13.32-22.25 27.56 55.12 44.48 22.24-27.55zm-1346.48-7.44-58.59 39.79 19.89 29.3 58.6-39.79zm-268.1-39.48-26.22 23.8 47.6 52.44 26.22-23.79zm809.91-17.83-26.22 23.8 47.6 52.45 26.22-23.8zm-453.92-2.37-58.59 39.79 19.9 29.3 58.59-39.79zm-427.4-58.46-26.22 23.8 47.61 52.44 26.22-23.8zm515.3-1.22-58.6 39.78 19.9 29.3 58.59-39.79zm294.62-16.62-26.22 23.8 47.6 52.45 26.22-23.8zm-206.73-43.07-58.6 39.79 19.9 29.3 58.6-39.79zm-674.59-17.76-26.22 23.8 47.6 52.45 26.22-23.8zm809.93-17.84-26.23 23.8 47.6 52.45 26.23-23.8zm-47.45-24.08-58.59 39.79 19.89 29.3 58.6-39.79zm-833.89-36.75-26.22 23.8 47.61 52.45 26.22-23.8zm-71.4-78.66-26.22 23.8 47.6 52.44 26.22-23.8zm-71.41-78.67-26.22 23.8 47.61 52.44 26.22-23.8zm-71.4-78.67-26.23 23.8 47.61 52.45 26.22-23.8z"
          transform="matrix(.13333 0 0 -.13333 0 1496)"/>
    <path style="fill:#6792b1;fill-opacity:1;fill-rule:nonzero;stroke:none"
          d="M1318.04 4783.45c0-40.61-32.92-73.52-73.52-73.52-40.61 0-73.53 32.91-73.53 73.52s32.92 73.53 73.53 73.53c40.6 0 73.52-32.92 73.52-73.53"
          transform="matrix(.13333 0 0 -.13333 0 1496)"/>
    <path style="fill:#a5a6a9;fill-opacity:1;fill-rule:nonzero;stroke:none"
          d="M1870.19 5400.76c0-40.61-32.92-73.53-73.53-73.53-40.6 0-73.52 32.92-73.52 73.53s32.92 73.52 73.52 73.52c40.61 0 73.53-32.91 73.53-73.52m520.23-337.03c0-40.61-32.92-73.52-73.53-73.52-40.6 0-73.52 32.91-73.52 73.52s32.92 73.53 73.52 73.53c40.61 0 73.53-32.92 73.53-73.53"
          transform="matrix(.13333 0 0 -.13333 0 1496)"/>
    <path style="fill:#d1562c;fill-opacity:1;fill-rule:nonzero;stroke:none"
          d="M3025.67 5754.71c0-40.6-32.92-73.52-73.53-73.52s-73.52 32.92-73.52 73.52c0 40.61 32.91 73.53 73.52 73.53s73.53-32.92 73.53-73.53"
          transform="matrix(.13333 0 0 -.13333 0 1496)"/>
    <path style="fill:#a5a6a9;fill-opacity:1;fill-rule:nonzero;stroke:none"
          d="M3352.78 5304.35c0-40.61-32.92-73.53-73.52-73.53-40.61 0-73.53 32.92-73.53 73.53 0 40.6 32.92 73.52 73.53 73.52 40.6 0 73.52-32.92 73.52-73.52m421.21 330.97c0-40.61-32.92-73.53-73.52-73.53-40.61 0-73.53 32.92-73.53 73.53s32.92 73.52 73.53 73.52c40.6 0 73.52-32.91 73.52-73.52m766.09-4703.422h310.53V1106h-310.53v81.8L4371.26 1019l168.82-168.898zm390.4 454.772h-310.52V1212.5h310.52v-81.7l168.83 168.78-168.83 168.83z"
          transform="matrix(.13333 0 0 -.13333 0 1496)"/>
    <path style="fill:#dbdbdb;fill-opacity:1;fill-rule:nonzero;stroke:none"
          d="m14966.4 1600.2 248.1 600.22 139.4-634.35z" transform="matrix(.13333 0 0 -.13333 0 1496)"/>
    <path style="fill:#a5a6a9;fill-opacity:1;fill-rule:nonzero;stroke:none"
          d="m15214.5 2200.42 247.6-459.45-108.2-174.9z" transform="matrix(.13333 0 0 -.13333 0 1496)"/>
    <path style="fill:#dbdbdb;fill-opacity:1;fill-rule:nonzero;stroke:none"
          d="m15915.9 1048.73 245.9 594.99 138.2-628.89z" transform="matrix(.1345 0 0 -.1345 0 1496)"/>
    <path style="fill:#a5a6a9;fill-opacity:1;fill-rule:nonzero;stroke:none"
          d="m16056.1 1632.96 243.9-452.52-106.7-172.25z" transform="matrix(.13538 0 0 -.13538 0 1496)"/>
    <path style="fill:#88c3ee;fill-opacity:1;fill-rule:nonzero;stroke:none"
          d="m15334 854.398 360.7 872.702 202.7-922.299z" transform="matrix(.13333 0 0 -.13333 0 1496)"/>
    <path style="fill:#a5a6a9;fill-opacity:1;fill-rule:nonzero;stroke:none" d="m15694.7 1727.1 360.1-668-157.4-254.299z"
          transform="matrix(.13333 0 0 -.13333 0 1496)"/>
    <path style="fill:#59595b;fill-opacity:1;fill-rule:nonzero;stroke:none"
          d="m15680.8 2771.93-73.7 34.65 13.1 7.98 61.2-28.84 2.4 67.72 12.9 7.89-2.8-81.42 74.6-34.98-13.1-7.99-62 29.18-2.4-68.53-13.1-7.99zm93.7 57.23-73.7 34.65 13 7.98 61.2-28.84 2.5 67.72 12.9 7.89-2.8-81.42 74.5-34.98-13-7.99-62.1 29.18-2.3-68.53-13.1-7.98zm134.3 81.63c-11.9 19.45-37.5 46.08-60.7 31.91-22.9-13.97-11.2-49.16.4-68.13 12.7-20.85 37.9-45.63 60.6-31.75 22.6 13.78 11.8 48.22-.3 67.97m11.2 7.26c16.8-27.54 23.3-68.89-4.4-85.81-27.7-16.93-61.6 7.7-78.4 35.24-14.8 24.26-25.1 67.74 4.4 85.8 29.6 18.06 63.5-10.97 78.4-35.23m-.2 65.04-6.5 10.58 19.3 11.78 71.3-116.68-11.5-7.04-64.9 106.11z"
          transform="matrix(.13333 0 0 -.13333 0 1496)"/>
    <path style="fill:#59595b;fill-opacity:1;fill-rule:nonzero;stroke:none"
          d="m16212.8 2342.78-73.2 34.44 13 7.94 60.8-28.67 2.4 67.32 12.8 7.84-2.8-80.94 74.2-34.77-13-7.94-61.7 29-2.3-68.12-13.1-7.93z"
          transform="matrix(.13412 0 0 -.13412 0 1496)"/>
    <path style="fill:#59595b;fill-opacity:1;fill-rule:nonzero;stroke:none"
          d="m16213.3 2386.04-72.8 34.25 12.8 7.89 60.6-28.51 2.4 66.94 12.7 7.8-2.7-80.48 73.7-34.59-12.9-7.88-61.4 28.84-2.3-67.75-13-7.89z"
          transform="matrix(.13489 0 0 -.13489 0 1496)"/>
    <path style="fill:#59595b;fill-opacity:1;fill-rule:nonzero;stroke:none"
          d="M16266.1 2454.66c-11.7 19.13-36.9 45.31-59.7 31.38-22.6-13.74-11.1-48.34.4-67.01 12.4-20.51 37.2-44.89 59.6-31.24 22.2 13.56 11.6 47.44-.3 66.87m11 7.13c16.5-27.08 22.9-67.76-4.3-84.4-27.3-16.65-60.6 7.57-77.2 34.65-14.5 23.88-24.7 66.65 4.4 84.41 29.1 17.77 62.5-10.78 77.1-34.66"
          transform="matrix(.13555 0 0 -.13555 0 1496)"/>
    <path style="fill:#59595b;fill-opacity:1;fill-rule:nonzero;stroke:none"
          d="m16293.6 2454.29 6.4-10.35-71.6-43.76 12.5 79.06c2.1 13.46 5.1 28.43-2.3 40.59-8.3 13.54-24.6 17.35-37.8 9.27-14.4-8.74-16.2-24.74-8.4-38.95l-11.3-6.87c-11.4 20.39-6.9 43.8 13 55.98 19.2 11.71 43.5 7.12 55.6-12.64 10.5-17.19 5.2-37.07 2.5-55.45l-7.2-46.61z"
          transform="matrix(.1364 0 0 -.1364 0 1496)"/>
    <path style="fill:#59595b;fill-opacity:1;fill-rule:nonzero;stroke:none"
          d="m16214.7 2084.44-71.6 33.68 12.7 7.76 59.5-28.04 2.4 65.83 12.5 7.67-2.7-79.14 72.5-34.01-12.7-7.76-60.3 28.37-2.3-66.63-12.8-7.75z"
          transform="matrix(.13716 0 0 -.13716 0 1496)"/>
    <path style="fill:#59595b;fill-opacity:1;fill-rule:nonzero;stroke:none"
          d="m16215.3 2128.19-71.2 33.5 12.5 7.71 59.2-27.88 2.4 65.47 12.5 7.63-2.7-78.7 72-33.83-12.6-7.71-60 28.19-2.2-66.24-12.7-7.72z"
          transform="matrix(.13792 0 0 -.13792 0 1496)"/>
    <path style="fill:#59595b;fill-opacity:1;fill-rule:nonzero;stroke:none"
          d="M16266.8 2196.53c-11.4 18.71-36.1 44.32-58.4 30.7-22-13.44-10.8-47.3.4-65.55 12.2-20.06 36.5-43.9 58.3-30.54 21.7 13.25 11.3 46.37-.3 65.39m10.8 6.98c16.1-26.5 22.4-66.28-4.2-82.56-26.7-16.27-59.3 7.41-75.5 33.9-14.2 23.35-24.2 65.18 4.3 82.55 28.4 17.38 61-10.55 75.4-33.89"
          transform="matrix(.13859 0 0 -.13859 0 1496)"/>
    <path style="fill:#59595b;fill-opacity:1;fill-rule:nonzero;stroke:none"
          d="m16230.2 2233.29 2.9 1.82c12.4 7.54 13.1 21.07 7.6 30.15-6.1 9.97-19.4 13.93-30.4 7.2-10.3-6.27-13.3-19.61-8.2-30.75l-10.6-6.45c-8.9 16.99-2.6 38.05 12.6 47.32 15.9 9.74 37.5 4.91 47.1-10.87 6.4-10.41 5.6-22.14 2-30.67 15 .41 28.4-6.98 35.5-18.59 11.3-18.45 5.2-44.01-13.9-55.65-17.8-10.92-41.2-6.01-53.1 9.41l10.4 6.37c9.5-10.78 24.7-12.93 36.6-5.66 13.1 8 18 25.33 9.6 39.17-8.7 14.28-26.2 16.72-38.9 8.89l-3-1.82z"
          transform="matrix(.13939 0 0 -.13939 0 1496)"/>
    <path style="fill:#e5e5e6;fill-opacity:1;fill-rule:nonzero;stroke:none"
          d="M5450.78 7264.38c-132.05 0-239.09 107.04-239.09 239.09 0 132.04 107.04 239.09 239.09 239.09 132.04 0 239.09-107.05 239.09-239.09 0-132.05-107.05-239.09-239.09-239.09m0 514.79c-152.27 0-275.7-123.43-275.7-275.7s123.43-275.7 275.7-275.7c152.26 0 275.7 123.43 275.7 275.7s-123.44 275.7-275.7 275.7"
          transform="matrix(.13333 0 0 -.13333 0 1496)"/>
    <path style="fill:#a5a6a9;fill-opacity:1;fill-rule:nonzero;stroke:none"
          d="M16088.5 5139.34c-101.4 0-183.6 82.17-183.6 183.51 0 101.36 82.2 183.53 183.6 183.53 101.3 0 183.4-82.17 183.4-183.53 0-101.34-82.1-183.51-183.4-183.51m0 395.14c-117 0-211.7-94.75-211.7-211.63 0-116.87 94.7-211.61 211.7-211.61 116.8 0 211.5 94.74 211.5 211.61 0 116.88-94.7 211.63-211.5 211.63"
          transform="matrix(.13784 0 0 -.13784 0 1496)"/>
    <path style="fill:#e5e5e6;fill-opacity:1;fill-rule:nonzero;stroke:none"
          d="M3612.9 9627.37c-104.79 0-189.73 84.95-189.73 189.73s84.94 189.7 189.73 189.7c104.78 0 189.72-84.92 189.72-189.7s-84.94-189.73-189.72-189.73m0 408.53c-120.83 0-218.79-97.97-218.79-218.8s97.96-218.78 218.79-218.78 218.78 97.95 218.78 218.78-97.95 218.8-218.78 218.8M14440.2 893.699c0 68.199 55.3 123.401 123.4 123.401 68.2 0 123.4-55.202 123.4-123.401 0-68.097-55.2-123.297-123.4-123.297-68.1 0-123.4 55.2-123.4 123.297"
          transform="matrix(.13333 0 0 -.13333 0 1496)"/>
    <path style="fill:#d9d9da;fill-opacity:1;fill-rule:nonzero;stroke:none"
          d="M14563.6 770.402c-68.1 0-123.4 55.2-123.4 123.297 0 68.199 55.3 123.401 123.4 123.401z"
          transform="matrix(.13333 0 0 -.13333 0 1496)"/>
    <path style="fill:#e5e5e6;fill-opacity:1;fill-rule:nonzero;stroke:none"
          d="M3031.36 10028.9c0 68.2 55.24 123.4 123.38 123.4 68.15 0 123.39-55.2 123.39-123.4 0-68.12-55.24-123.36-123.39-123.36-68.14 0-123.38 55.24-123.38 123.36"
          transform="matrix(.13333 0 0 -.13333 0 1496)"/>
    <path style="fill:#d9d9da;fill-opacity:1;fill-rule:nonzero;stroke:none"
          d="M3154.74 9905.54c-68.14 0-123.38 55.24-123.38 123.36 0 68.2 55.24 123.4 123.38 123.4z"
          transform="matrix(.13333 0 0 -.13333 0 1496)"/>
    <path style="fill:#e5e5e6;fill-opacity:1;fill-rule:nonzero;stroke:none"
          d="M1555 4080.62h628.49v628.48H1555Zm672.68-44.2h-716.87v716.87h716.87z"
          transform="matrix(.13333 0 0 -.13333 0 1496)"/>
    <path style="fill:#a5a6a9;fill-opacity:1;fill-rule:nonzero;stroke:none"
          d="M831.672 7107.69c-42.012-3.69-79.059 27.43-82.711 69.43-3.648 42.02 27.441 79.05 69.437 82.69 42.028 3.68 79.075-27.42 82.719-69.41 3.649-42.04-27.441-79.08-69.445-82.71m168.768 16.7a183.4 183.4 0 0 1 9.05 43.53l-30.013 14.56c.027 4.85-.137 9.75-.571 14.67-.129 1.7-.355 3.39-.551 5.07l28.235 17.84c-2.94 14.83-7.617 28.99-13.805 42.21l-33.355-2.41a152 152 0 0 1-10.84 16.58l15.527 29.52c-9.816 11.17-20.949 21.1-33.125 29.63l-27.637-18.73a159 159 0 0 1-17.671 8.96l-1.309 33.33a184.7 184.7 0 0 1-43.496 9.08l-14.555-30.04c-4.851.03-9.746-.14-14.679-.56-1.719-.15-3.399-.37-5.075-.57l-17.816 28.26c-14.844-2.96-29-7.62-42.242-13.82l2.414-33.35a151 151 0 0 1-16.555-10.86l-29.555 15.54a186 186 0 0 1-29.605-33.13l18.75-27.64c-3.356-5.68-6.371-11.56-8.988-17.66l-33.332-1.29a183 183 0 0 1-9.043-43.53l30.023-14.55c-.043-4.87.117-9.75.551-14.68.152-1.71.363-3.37.574-5.07l-28.254-17.83c2.965-14.82 7.617-28.99 13.821-42.21l33.332 2.41c3.273-5.77 6.89-11.3 10.851-16.57l-15.531-29.52a185.2 185.2 0 0 1 33.129-29.64l27.636 18.75c5.68-3.37 11.567-6.38 17.653-8.99l1.32-33.32a183.4 183.4 0 0 1 43.5-9.07l14.574 30.03c4.836-.02 9.746.13 14.684.55 1.695.15 3.363.38 5.035.59l17.832-28.29c14.852 2.97 29 7.63 42.235 13.84l-2.391 33.35a157 157 0 0 1 16.551 10.84l29.527-15.52a186.3 186.3 0 0 1 29.625 33.13l-18.73 27.63a162 162 0 0 1 8.968 17.65z"
          transform="matrix(.13333 0 0 -.13333 0 1496)"/>
    <path style="fill:#dbdbdb;fill-opacity:1;fill-rule:nonzero;stroke:none" d="M16300 3444.42h-974.9v632.66h974.9z"
          transform="matrix(.13823 0 0 -.13823 0 1496)"/>
    <path style="fill:#4f4f4f;fill-opacity:1;fill-rule:nonzero;stroke:none"
          d="m15812.6 3692.24-487.5 298.5v20.72l487.5-298.36 487.4 298.36v-20.72z"
          transform="matrix(.13823 0 0 -.13823 0 1496)"/>
    <path style="fill:#4f4f4f;fill-opacity:1;fill-rule:nonzero;stroke:none"
          d="M15888.3 3570.99v12.98l355.1 351.31 13-13.12-355-351.17z" transform="matrix(.13333 0 0 -.13333 0 1496)"/>
    <path style="fill:#4f4f4f;fill-opacity:1;fill-rule:nonzero;stroke:none"
          d="M16300 3444.42h-9.6l-342.4 338.72 12.6 12.65 339.4-335.85z" transform="matrix(.13823 0 0 -.13823 0 1496)"/>
    <path style="fill:#59595b;fill-opacity:1;fill-rule:nonzero;stroke:none" d="M7832.23 9283.98H7005.3v476.44h826.93z"
          transform="matrix(.13333 0 0 -.13333 0 1496)"/>
    <path style="fill:#a5a6a9;fill-opacity:1;fill-rule:nonzero;stroke:none"
          d="M7233.74 9842.57v51.88h-201.1v-134.03h55.27v52.94h661.7v-52.94h55.28v82.15z"
          transform="matrix(.13333 0 0 -.13333 0 1496)"/>
    <path style="fill:#a5a6a9;fill-opacity:1;fill-rule:nonzero;stroke:none" d="M16300 6398.16h-2460.9v1613.73H16300z"
          transform="matrix(.13998 0 0 -.13998 0 1496)"/>
    <path style="fill:#dbdbdb;fill-opacity:1;fill-rule:nonzero;stroke:none" d="M16300 6706.46h-2061.3v1188.18H16300z"
          transform="matrix(.13815 0 0 -.13815 0 1496)"/>
    <path style="fill:#d1562c;fill-opacity:1;fill-rule:nonzero;stroke:none"
          d="m15739.3 6938.56-153.2 906.76-188.8-403.68h-457.7v48.95h426.6l242 517.6 141.5-837.36 111.9 426.34h438.4v-48.95h-400.5z"
          transform="matrix(.13505 0 0 -.13505 0 1496)"/>
    <path style="fill:#59595b;fill-opacity:1;fill-rule:nonzero;stroke:none" d="M16206 6499.43h-770.5v217.7h770.5z"
          transform="matrix(.13333 0 0 -.13333 0 1496)"/>
    <path style="fill:#a5a6a9;fill-opacity:1;fill-rule:nonzero;stroke:none" d="M16300 6330.67h-1213.1v116.47H16300z"
          transform="matrix(.13441 0 0 -.13441 0 1496)"/>
    <path style="fill:#e5e5e6;fill-opacity:1;fill-rule:nonzero;stroke:none"
          d="M14084.9 6587.51H16283v1344.48h-2198.1zm2215.1-17h-2232.1v1378.48H16300z"
          transform="matrix(.13892 0 0 -.13892 0 1496)"/>
    <path style="fill:#e5e5e6;fill-opacity:1;fill-rule:nonzero;stroke:none"
          d="M8942.68 1470.76c-90.93 0-164.64 73.72-164.64 164.65 0 90.92 73.71 164.63 164.64 164.63s164.64-73.71 164.64-164.63c0-90.93-73.71-164.65-164.64-164.65m0 354.49c-104.85 0-189.85-85-189.85-189.84 0-104.86 85-189.86 189.85-189.86s189.85 85 189.85 189.86c0 104.84-85 189.84-189.85 189.84"
          transform="matrix(.13333 0 0 -.13333 0 1496)"/>
    <path style="fill:#59595b;fill-opacity:1;fill-rule:nonzero;stroke:none"
          d="M8080.58 749.699c-195.14 0-353.33 158.203-353.33 353.401 0 195.1 158.19 353.3 353.33 353.3 195.15 0 353.34-158.2 353.34-353.3 0-195.198-158.19-353.401-353.34-353.401m0 767.561c-228.75 0-414.19-185.44-414.19-414.16 0-228.799 185.44-414.198 414.19-414.198 228.76 0 414.2 185.399 414.2 414.198 0 228.72-185.44 414.16-414.2 414.16"
          transform="matrix(.13333 0 0 -.13333 0 1496)"/>
    <path style="fill:#dbdbdb;fill-opacity:1;fill-rule:nonzero;stroke:none"
          d="M8080.58 805.801c-164.15 0-297.23 133.101-297.23 297.299 0 164.12 133.08 297.2 297.23 297.2 164.16 0 297.24-133.08 297.24-297.2 0-164.198-133.08-297.299-297.24-297.299"
          transform="matrix(.13333 0 0 -.13333 0 1496)"/>
    <path style="fill:#59595b;fill-opacity:1;fill-rule:nonzero;stroke:none"
          d="M8095.71 1327.06h-27.74v76.5h27.74zm-114.02-22.45-24.03-13.87-38.26 66.25 24.03 13.87zm-87.53-76.45-13.87-24.06-66.26 38.29 13.88 24.02zm-37.57-109.96v-27.8h-76.51v27.8zm22.45-114 13.87-24.098-66.26-38.204-13.87 24zm76.45-87.598 24.02-13.801-38.25-66.301-24.02 13.902zm109.97-37.5h27.74v-76.5h-27.74zm114.02 22.398 24.03 13.902 38.25-66.3-24.02-13.801zm87.53 76.5 13.87 24 66.25-38.301-13.87-24zm37.57 109.9v27.8h76.51v-27.8zm-22.45 114.1-13.87 23.99 66.26 38.25 13.87-24.03zm-76.45 87.49-24.03 13.87 38.26 66.25 24.02-13.87z"
          transform="matrix(.13333 0 0 -.13333 0 1496)"/>
    <path style="fill:#59595b;fill-opacity:1;fill-rule:nonzero;stroke:none"
          d="M8080.58 1421.5c-175.59 0-318.44-142.85-318.44-318.4 0-175.6 142.85-318.498 318.44-318.498 175.6 0 318.45 142.898 318.45 318.498 0 175.55-142.85 318.4-318.45 318.4m0-654.602c-185.35 0-336.15 150.801-336.15 336.202 0 185.32 150.8 336.11 336.15 336.11 185.36 0 336.16-150.79 336.16-336.11 0-185.401-150.8-336.202-336.16-336.202"
          transform="matrix(.13333 0 0 -.13333 0 1496)"/>
    <path style="fill:#d1562c;fill-opacity:1;fill-rule:nonzero;stroke:none"
          d="m8257.59 1185.6-179.12-95.2-13.01 24.5 179.12 95.2z" transform="matrix(.13333 0 0 -.13333 0 1496)"/>
    <path style="fill:#59595b;fill-opacity:1;fill-rule:nonzero;stroke:none"
          d="M8029.78 1098.6c0 25 20.29 45.3 45.31 45.3 25.03 0 45.32-20.3 45.32-45.3s-20.29-45.3-45.32-45.3c-25.02 0-45.31 20.3-45.31 45.3m609.56-24.4h-70.82v35.4h70.82zm106.25 0h-70.83v35.4h70.83zm106.24 0H8781v35.4h70.83zm106.24 0h-70.83v35.4h70.83zm106.24 0h-70.83v35.4h70.83zm106.24 0h-70.83v35.4h70.83z"
          transform="matrix(.13333 0 0 -.13333 0 1496)"/>
    <path style="fill:#88c3ee;fill-opacity:1;fill-rule:nonzero;stroke:none" d="M10295.4 854.801H9158.7v466.319h1136.7z"
          transform="matrix(.13333 0 0 -.13333 0 1496)"/>
    <path style="fill:#59595b;fill-opacity:1;fill-rule:nonzero;stroke:none" d="M10222.9 932.402h-991.67v311.038h991.67z"
          transform="matrix(.13333 0 0 -.13333 0 1496)"/>
    <path style="fill:#e5e5e6;fill-opacity:1;fill-rule:nonzero;stroke:none"
          d="M9527.61 1177.6h-.09v-68.2h.09l11.67-15.9 11.69 15.9h.06v68.2h-.06l-11.69 15.9zm.47-107.5h-.06v-68.2h.06l11.7-15.9 11.67 15.9h.06l.03.1h-.03v67.9h.03l-.03.1v.1h-.03l-11.7 15.9zm108.97 107.5h-.07v-68.2h.1l11.66-15.9 11.7 15.9h.06v68.2h-.06l-11.7 15.9zm.5-107.5h-.09v-68.2h.09l11.7-15.9 11.66 15.9h.07l.03.1h-.03v67.9h.03l-.03.1v.1h-.07l-11.66 15.9zm-9.53 136.4h-68.09l-15.89-11.7 15.89-11.7v-.1h68.21v.1l15.86 11.7-15.86 11.7h-.09l-.03.1zm-68 0v.1zm66.53-212.598h-68.09l-15.92-11.703 15.92-11.699v-.098h68.22v.098l15.85 11.699-15.85 11.703h-.09l-.04.098zm-68 0V994zm273.02 183.698h-.09v-68.2h.09l11.67-15.9 11.7 15.9h.06v68.2h-.06l-11.7 15.9zm.48-107.5h-.06v-68.2h.06l11.69-15.9 11.67 15.9h.06l.03.1h-.03v67.9h.03l-.03.1v.1h-.03l-11.7 15.9zm108.96 107.5h-.07v-68.2h.1l11.67-15.9 11.69 15.9h.07v68.2h-.07l-11.69 15.9zm.5-107.5h-.09v-68.2h.09l11.7-15.9 11.67 15.9h.06l.03.1h-.03v67.9h.03l-.03.1v.1h-.06l-11.67 15.9zm-9.53 136.4h-68.09l-15.88-11.7 15.88-11.7v-.1h68.22v.1l15.85 11.7-15.85 11.7h-.09l-.04.1zm-68 0v.1zm66.54-212.598h-68.1l-15.91-11.703 15.91-11.699v-.098h68.22v.098l15.85 11.699-15.85 11.703h-.09l-.03.098zm-68.01 0V994zM9279.14 1177.6h-.09v-68.2h.09l11.67-15.9 11.69 15.9h.07v68.2h-.07l-11.69 15.9zm.47-107.5h-.06v-68.2h.06l11.7-15.9 11.67 15.9h.06l.03.1h-.03v67.9h.03l-.03.1v.1h-.03l-11.7 15.9zm108.97 107.5h-.07v-68.2h.1l11.66-15.9 11.7 15.9h.06v68.2h-.06l-11.7 15.9zm.5-107.5h-.09v-68.2h.09l11.7-15.9 11.66 15.9h.07l.03.1h-.03v67.9h.03l-.03.1v.1h-.07l-11.66 15.9zm-9.53 136.4h-68.09l-15.89-11.7 15.89-11.7v-.1h68.21v.1l15.85 11.7-15.85 11.7h-.09l-.03.1zm-68 0v.1zm66.53-212.598h-68.09l-15.92-11.703 15.92-11.699v-.098h68.22v.098l15.85 11.699-15.85 11.703h-.09l-.04.098zm-68 0V994zM9458.1 1187.9h-.06v-77.2h.09l11.67-17.9 11.69 17.9h.07v77.2h-.07l-11.69 17.9zm.52-121.7h-.11v-77.098h.11l11.7-18 11.65 18h.08v76.998h.03l-.03.1h-.08l-11.65 18zm23.43-77.001h.03zm216.28 198.701h-.06v-77.2h.1l11.66-17.9 11.7 17.9h.06v77.2h-.06l-11.7 17.9zm.53-121.7h-.11v-77.098h.11l11.69-18 11.65 18h.08v76.998h.03l-.03.1h-.08l-11.65 18zm23.42-77.001h.03zm46.96 198.701h-.07v-77.2h.1l11.66-17.9 11.7 17.9h.07v77.2h-.07l-11.7 17.9zm.52-121.7h-.11v-77.098h.11l11.7-18 11.65 18h.07v76.998h.04l-.04.1h-.07l-11.65 18zm23.42-77.001h.04zm213.12 198.701h-.1v-77.2h.1l11.7-17.9 11.7 17.9h.1v77.2h-.1l-11.7 17.9zm.5-121.7h-.1v-77.098h.1l11.7-18 11.7 18v76.998h.1l-.1.1-11.7 18zm23.4-77.001h.1zm50.3 198.701v-77.2h.1l11.6-17.9 11.7 17.9h.1v77.2h-.1l-11.7 17.9zm.6-121.7h-.2v-77.098h.2l11.7-18 11.6 18h.1v77.098h-.1l-11.6 18zm76.2 121.7v-77.2h.1l11.6-17.9 11.7 17.9h.1v77.2h-.1l-11.7 17.9zm.6-121.7h-.1v-77.098h.1l11.7-18 11.6 18h.1v77.098h-.1l-11.6 18zm23.4-77.001"
          transform="matrix(.13333 0 0 -.13333 0 1496)"/>
    <path style="fill:#59595b;fill-opacity:1;fill-rule:nonzero;stroke:none"
          d="m8350.32 675.301-18.92 29.898C8468.79 792 8550.81 940.801 8550.81 1103.1c0 259.25-210.94 470.19-470.23 470.19v35.42c278.82 0 505.64-226.84 505.64-505.61 0-174.6-88.19-334.498-235.9-427.799"
          transform="matrix(.13333 0 0 -.13333 0 1496)"/>
    <path style="fill:#6792b1;fill-opacity:1;fill-rule:nonzero;stroke:none"
          d="M8639.4 1091.9c0-33.5-27.14-60.6-60.62-60.6s-60.63 27.1-60.63 60.6 27.15 60.6 60.63 60.6 60.62-27.1 60.62-60.6"
          transform="matrix(.13333 0 0 -.13333 0 1496)"/>
    <path style="fill:#59595b;fill-opacity:1;fill-rule:nonzero;stroke:none"
          d="M1423.77 9440.98c85.45 103.26 209.06 173.76 348.99 189.96-91.41-74.98-160.02-169.56-201.89-276.12-51.66 21.8-101.12 50.51-147.1 86.16m-17.12-21.86c48.31-37.46 100.33-67.57 154.64-90.36-24.74-71.51-37.96-147.82-37.96-226.89 0-1.51.12-3 .12-4.52l-221.74.13c-.02 1.48-.12 2.92-.12 4.39 0 118.76 39.09 228.56 105.06 317.25m-103.99-349.39 221.6-.12c3.55-78.64 20.03-154.21 48.19-224.57-52.37-20.55-102.56-47.75-149.21-81.66-69.58 84.36-113.65 190.42-120.58 306.35m138.89-327.33c44.29 31.91 91.9 57.58 141.52 77.04 42.47-94.58 106.79-178.63 189.69-246.63-130.53 15.09-246.83 77.45-331.21 169.59m167.73 86.67c68.2 23.42 139.64 35.4 211.18 35.99v-294.08c-93.6 68.46-165.39 156.99-211.18 258.09m211.18 63.67c-75.2-.59-150.3-13.26-221.93-38.07-27.04 67.35-42.96 139.66-46.5 214.92l268.43-.13zm0 204.46-269.24.15c0 1.5-.13 3.01-.13 4.52 0 75.51 12.57 148.33 36.07 216.66a685 685 0 0 1 233.3-43.02zm0 206.13c-75.86.63-151.61 14.35-223.77 41.23 44.65 113.58 121 213.02 223.77 288.2zm27.75 330.91c1.38-.03 2.77-.04 4.14-.09 101.43-73.67 177.24-170.91 222.54-282.04-72.61-29.7-149.41-45.86-226.68-48.45zm0-358.37c80.66 2.62 160.88 19.34 236.69 50.29 25.24-70.5 38.68-145.97 38.68-224.29 0-1.61-.13-3.21-.13-4.84l-275.24.17zm0-206.44 274.41-.14c-3.68-77.83-20.61-152.49-49.41-221.76-72.21 27.48-148.4 42.44-225 44.88zm0-204.72c72.78-2.41 145.17-16.62 213.82-42.61-46.2-98.84-117.32-185.45-209.68-252.52-1.37-.03-2.76-.05-4.14-.11zm54.77-291c80.1 65.96 142.62 147 184.87 237.99 46.53-19.91 91.07-45.34 132.53-76.38-82.24-86.58-193.16-145.57-317.4-161.61m336.04 182.28c-43.75 33.02-90.82 60.03-140.05 81.12 30.1 72.51 47.71 150.69 51.41 232.17l215.59-.11c-7.25-119.16-53.84-227.8-126.95-313.18m127.93 340.94-215.75.1c.01 1.63.14 3.22.14 4.84 0 82.2-14.17 161.45-40.86 235.37 51.15 23.35 99.99 53.37 145.3 89.95 69.68-90.07 111.29-202.9 111.29-325.32 0-1.66-.09-3.29-.12-4.94m-128.72 351.75c-43.01-34.72-89.34-63.22-137.85-85.52-41.96 102.72-108.95 194.02-197.4 266.88 133.49-17.26 251.58-84.06 335.25-181.36m-964.4-346.81c0-301.89 239.96-548.69 539.16-559.96l1.98-1.5 1 1.43c6.12-.2 12.2-.46 18.36-.46 8.14 0 16.21.26 24.27.61l1.09-1.58 2.2 1.64c296.31 14.44 532.94 260 532.94 559.82 0 299.8-236.63 545.37-532.94 559.8l-2.2 1.64-1.09-1.55c-8.06.33-16.13.6-24.27.6-6.16 0-12.24-.27-18.36-.45l-1 1.4-1.98-1.49c-299.2-11.29-539.16-258.07-539.16-559.95"
          transform="matrix(.13333 0 0 -.13333 0 1496)"/>
    <path style="fill:#d1562c;fill-opacity:1;fill-rule:nonzero;stroke:none"
          d="M1135.71 5866.55c-147.448 0-267.409 119.98-267.409 267.43 0 117.39 76.078 217.28 181.489 253.16v-72.75c-67.313-32.2-113.931-100.96-113.931-180.41 0-110.21 89.651-199.87 199.851-199.87 110.22 0 199.85 89.66 199.85 199.87 0 79.45-46.6 148.21-113.93 180.39v72.77c105.42-35.88 181.5-135.77 181.5-253.16 0-147.45-119.97-267.43-267.42-267.43m-41.41 563.03h81.28v-246.35h-81.28zm41.41 40.35c-185.413 0-335.718-150.31-335.718-335.73s150.305-335.72 335.718-335.72c185.42 0 335.73 150.3 335.73 335.72s-150.31 335.73-335.73 335.73"
          transform="matrix(.13333 0 0 -.13333 0 1496)"/>
    <path style="fill:#000;fill-opacity:1;fill-rule:nonzero;stroke:none"
          d="M4449.95 5961.97h-305.66V4901.54h-109.16v1060.43h-307.21v109.16h722.03zm254.17 0v-327.49h421.05v-109.16h-421.05V5010.7h481.87v-109.16h-595.71v1169.59h595.71v-109.16zm1668.61-895.13c-110.72-116.96-271.35-180.9-430.41-180.9-330.61 0-600.39 269.79-600.39 600.39 0 330.61 269.78 600.39 600.39 600.39 157.5 0 319.69-63.93 428.85-179.33l-77.97-73.3c-112.29 106.05-233.92 143.47-350.88 143.47-269.79 0-491.23-219.88-491.23-491.23 0-269.78 221.44-491.23 491.23-491.23 118.52 0 235.48 37.43 350.88 143.47zm1018.31 1004.29V4901.54h-109.16v530.21h-612.87v-530.21h-109.16v1169.59h109.16v-530.22h612.87v530.22zm274.46 0 739.18-899.81v899.81h109.16V4901.54h-28.07l-736.06 895.13v-895.13h-109.16v1169.59zm1160.21-584.8c0-271.34 224.57-491.23 494.35-491.23 269.79 0 494.35 219.89 494.35 491.23 0 271.35-224.56 491.23-494.35 491.23-271.34 0-494.35-219.88-494.35-491.23m-109.16 0c0 330.61 272.9 600.39 603.51 600.39s603.51-269.78 603.51-600.39c0-332.16-272.9-600.39-603.51-600.39s-603.51 268.23-603.51 600.39m1525.15-475.63h377.4v-109.16h-492.8v1169.59h115.4zm595.7 475.63c0-271.34 224.5-491.23 494.3-491.23s494.4 219.89 494.4 491.23c0 271.35-224.6 491.23-494.4 491.23-271.3 0-494.3-219.88-494.3-491.23m-109.2 0c0 330.61 272.9 600.39 603.5 600.39s603.5-269.78 603.5-600.39c0-332.16-272.9-600.39-603.5-600.39s-603.5 268.23-603.5 600.39m1487.7 0c0-269.78 221.5-491.23 491.3-491.23 116.9 0 232.3 42.11 321.2 118.52v318.13h-335.3v109.16h442.9v-639.37h-107.6v77.97c-96.7-60.82-207.4-93.57-321.2-93.57-330.6 0-600.4 269.79-600.4 600.39 0 330.61 269.8 600.39 600.4 600.39 141.9 0 286.9-51.46 394.5-148.14l-73.3-79.54c-88.9 76.42-204.3 118.52-321.2 118.52-269.8 0-491.3-221.44-491.3-491.23m1564.2-14.03v-570.76h-109.2v570.76l-394.6 598.83h131l318.2-483.43 319.7 483.43h131z"
          transform="matrix(.13333 0 0 -.13333 0 1496)"/>
    <path style="fill:#59595b;fill-opacity:1;fill-rule:nonzero;stroke:none"
          d="M10917.6 9390.93c-33.3 0-60.4-27.11-60.4-60.43 0-33.31 27.1-60.42 60.4-60.42s60.5 27.11 60.5 60.42c0 33.32-27.2 60.43-60.5 60.43m0-142.1c-45 0-81.6 36.64-81.6 81.67 0 45.04 36.6 81.68 81.6 81.68 45.1 0 81.7-36.64 81.7-81.68 0-45.03-36.6-81.67-81.7-81.67"
          transform="matrix(.13333 0 0 -.13333 0 1496)"/>
    <path style="fill:#d1562c;fill-opacity:1;fill-rule:nonzero;stroke:none"
          d="M11281.9 9616.54c0-39.24-31.8-71.05-71.1-71.05-39.2 0-71 31.81-71 71.05s31.8 71.04 71 71.04c39.3 0 71.1-31.8 71.1-71.04"
          transform="matrix(.13333 0 0 -.13333 0 1496)"/>
    <path style="fill:#a5a6a9;fill-opacity:1;fill-rule:nonzero;stroke:none"
          d="M11691.5 9616.54c0-39.24-31.8-71.05-71.1-71.05-39.2 0-71 31.81-71 71.05s31.8 71.04 71 71.04c39.3 0 71.1-31.8 71.1-71.04"
          transform="matrix(.13333 0 0 -.13333 0 1496)"/>
    <path style="fill:#59595b;fill-opacity:1;fill-rule:nonzero;stroke:none"
          d="M11909.6 9389.31c-33.4 0-60.5-27.1-60.5-60.42s27.1-60.42 60.5-60.42c33.3 0 60.4 27.1 60.4 60.42s-27.1 60.42-60.4 60.42m0-142.09c-45.1 0-81.7 36.64-81.7 81.67s36.6 81.67 81.7 81.67c45 0 81.6-36.64 81.6-81.67s-36.6-81.67-81.6-81.67"
          transform="matrix(.13333 0 0 -.13333 0 1496)"/>
    <path style="fill:#d1562c;fill-opacity:1;fill-rule:nonzero;stroke:none"
          d="M12316.8 9328.89c0-39.24-31.8-71.05-71-71.05s-71.1 31.81-71.1 71.05c0 39.23 31.9 71.05 71.1 71.05s71-31.82 71-71.05"
          transform="matrix(.13333 0 0 -.13333 0 1496)"/>
    <path style="fill:#a5a6a9;fill-opacity:1;fill-rule:nonzero;stroke:none"
          d="M12545.5 9092.93c0-39.24-31.8-71.05-71.1-71.05-39.2 0-71 31.81-71 71.05s31.8 71.05 71 71.05c39.3 0 71.1-31.81 71.1-71.05m330.8 0c0-39.24-31.8-71.05-71-71.05-39.3 0-71.1 31.81-71.1 71.05s31.8 71.05 71.1 71.05c39.2 0 71-31.81 71-71.05m239.4 237.57c0-39.24-31.8-71.04-71-71.04-39.3 0-71.1 31.8-71.1 71.04 0 39.25 31.8 71.05 71.1 71.05 39.2 0 71-31.8 71-71.05m-2787.3 0c0-39.24-31.8-71.04-71-71.04-39.3 0-71.1 31.8-71.1 71.04 0 39.25 31.8 71.05 71.1 71.05 39.2 0 71-31.8 71-71.05"
          transform="matrix(.13333 0 0 -.13333 0 1496)"/>
    <path style="fill:#d1562c;fill-opacity:1;fill-rule:nonzero;stroke:none"
          d="M13609.5 9330.5c0-39.24-31.8-71.04-71-71.04-39.3 0-71.1 31.8-71.1 71.04 0 39.25 31.8 71.05 71.1 71.05 39.2 0 71-31.8 71-71.05"
          transform="matrix(.13333 0 0 -.13333 0 1496)"/>
    <path style="fill:#59595b;fill-opacity:1;fill-rule:nonzero;stroke:none"
          d="M15283 9992.5c-33.3 0-60.4-27.1-60.4-60.42s27.1-60.42 60.4-60.42c33.4 0 60.5 27.1 60.5 60.42s-27.1 60.42-60.5 60.42m0-142.09c-45 0-81.6 36.63-81.6 81.67 0 45.03 36.6 81.72 81.6 81.72 45.1 0 81.7-36.69 81.7-81.72 0-45.04-36.6-81.67-81.7-81.67"
          transform="matrix(.13333 0 0 -.13333 0 1496)"/>
    <path style="fill:#a5a6a9;fill-opacity:1;fill-rule:nonzero;stroke:none"
          d="M14918.8 9646.04c0 39.24 31.8 71.05 71 71.05 39.3 0 71.1-31.81 71.1-71.05 0-39.23-31.8-71.04-71.1-71.04-39.2 0-71 31.81-71 71.04"
          transform="matrix(.13333 0 0 -.13333 0 1496)"/>
    <path style="fill:#d1562c;fill-opacity:1;fill-rule:nonzero;stroke:none"
          d="M14509.2 9646.04c0 39.24 31.8 71.05 71 71.05 39.3 0 71.1-31.81 71.1-71.05 0-39.23-31.8-71.04-71.1-71.04-39.2 0-71 31.81-71 71.04"
          transform="matrix(.13333 0 0 -.13333 0 1496)"/>
    <path style="fill:#59595b;fill-opacity:1;fill-rule:nonzero;stroke:none"
          d="M14291.1 9994.11c-33.3 0-60.4-27.1-60.4-60.42s27.1-60.42 60.4-60.42 60.4 27.1 60.4 60.42-27.1 60.42-60.4 60.42m0-142.09c-45 0-81.7 36.64-81.7 81.67 0 45.04 36.7 81.71 81.7 81.71s81.7-36.67 81.7-81.71c0-45.03-36.7-81.67-81.7-81.67"
          transform="matrix(.13333 0 0 -.13333 0 1496)"/>
    <path style="fill:#a5a6a9;fill-opacity:1;fill-rule:nonzero;stroke:none"
          d="M13883.8 9933.69c0 39.24 31.8 71.01 71.1 71.01 39.2 0 71-31.77 71-71.01s-31.8-71.05-71-71.05c-39.3 0-71.1 31.81-71.1 71.05m-228.6 236.01c0 39.2 31.8 71 71 71 39.3 0 71.1-31.8 71.1-71 0-39.3-31.8-71.1-71.1-71.1-39.2 0-71 31.8-71 71.1"
          transform="matrix(.13333 0 0 -.13333 0 1496)"/>
    <path style="fill:#d1562c;fill-opacity:1;fill-rule:nonzero;stroke:none"
          d="M13324.3 10169.7c0 39.2 31.8 71 71.1 71 39.2 0 71-31.8 71-71 0-39.3-31.8-71.1-71-71.1-39.3 0-71.1 31.8-71.1 71.1"
          transform="matrix(.13333 0 0 -.13333 0 1496)"/>
    <path style="fill:#a5a6a9;fill-opacity:1;fill-rule:nonzero;stroke:none"
          d="M13084.9 9932.08c0 39.23 31.9 71.02 71.1 71.02s71-31.79 71-71.02c0-39.24-31.8-71.05-71-71.05s-71.1 31.81-71.1 71.05m2639.3 0c0 39.23 31.8 71.02 71 71.02 39.3 0 71.1-31.79 71.1-71.02 0-39.24-31.8-71.05-71.1-71.05-39.2 0-71 31.81-71 71.05"
          transform="matrix(.13333 0 0 -.13333 0 1496)"/>
    <path style="fill:#59595b;fill-opacity:1;fill-rule:nonzero;stroke:none"
          d="M12662.2 9992.5c-33.3 0-60.4-27.1-60.4-60.42s27.1-60.42 60.4-60.42 60.4 27.1 60.4 60.42-27.1 60.42-60.4 60.42m0-142.09c-45 0-81.7 36.63-81.7 81.67 0 45.03 36.7 81.72 81.7 81.72s81.7-36.69 81.7-81.72c0-45.04-36.7-81.67-81.7-81.67"
          transform="matrix(.13333 0 0 -.13333 0 1496)"/>
    <path style="fill:#d1562c;fill-opacity:1;fill-rule:nonzero;stroke:none"
          d="M10623.8 9330.5c0-39.24-31.8-71.04-71-71.04-39.3 0-71.1 31.8-71.1 71.04 0 39.25 31.8 71.05 71.1 71.05 39.2 0 71-31.8 71-71.05"
          transform="matrix(.13333 0 0 -.13333 0 1496)"/>
    <path style="fill:#a5a6a9;fill-opacity:1;fill-rule:nonzero;stroke:none"
          d="M11281.3 9989.79c0-39.23-31.8-71.04-71.1-71.04-39.2 0-71 31.81-71 71.04 0 39.21 31.8 71.01 71 71.01 39.3 0 71.1-31.8 71.1-71.01m762.3-8.07c0-39.23-31.8-71.04-71.1-71.04-39.2 0-71 31.81-71 71.04 0 39.28 31.8 71.08 71 71.08 39.3 0 71.1-31.8 71.1-71.08m273.2-293.8c0-39.24-31.8-71.05-71-71.05s-71.1 31.81-71.1 71.05c0 39.23 31.9 71.04 71.1 71.04s71-31.81 71-71.04"
          transform="matrix(.13333 0 0 -.13333 0 1496)"/>
    <path style="fill:#59595b;fill-opacity:1;fill-rule:nonzero;stroke:none"
          d="M13733.3 9748.33c-33.3 0-60.4-27.1-60.4-60.41 0-33.32 27.1-60.42 60.4-60.42s60.4 27.1 60.4 60.42c0 33.31-27.1 60.41-60.4 60.41m0-142.08c-45 0-81.7 36.63-81.7 81.67 0 45.03 36.7 81.66 81.7 81.66s81.7-36.63 81.7-81.66c0-45.04-36.7-81.67-81.7-81.67"
          transform="matrix(.13333 0 0 -.13333 0 1496)"/>
    <path style="fill:#a5a6a9;fill-opacity:1;fill-rule:nonzero;stroke:none"
          d="M14170.1 9448.52c0-39.24-31.8-71.05-71-71.05-39.3 0-71.1 31.81-71.1 71.05 0 39.23 31.8 71.05 71.1 71.05 39.2 0 71-31.82 71-71.05"
          transform="matrix(.13333 0 0 -.13333 0 1496)"/>
    <path style="fill:#d1562c;fill-opacity:1;fill-rule:nonzero;stroke:none"
          d="M10621.3 9981.72c0-39.23-31.8-71.04-71-71.04s-71 31.81-71 71.04c0 39.28 31.8 71.08 71 71.08s71-31.8 71-71.08"
          transform="matrix(.13333 0 0 -.13333 0 1496)"/>
    <path style="fill:#a5a6a9;fill-opacity:1;fill-rule:nonzero;stroke:none" d="M15403 8928.1h-235.6v235.64h235.6z"
          transform="matrix(.13333 0 0 -.13333 0 1496)"/>
    <path style="fill:#59595b;fill-opacity:1;fill-rule:nonzero;stroke:none" d="M15956.6 8928.1h-235.7v235.64h235.7z"
          transform="matrix(.13333 0 0 -.13333 0 1496)"/>
    <path style="fill:#a5a6a9;fill-opacity:1;fill-rule:nonzero;stroke:none" d="M16300 8820.42h-232.8v232.8h232.8z"
          transform="matrix(.13496 0 0 -.13496 0 1496)"/>
    <path style="fill:#a5a6a9;fill-opacity:1;fill-rule:nonzero;stroke:none" d="M16300 8539.63h-225.4v225.39h225.4z"
          transform="matrix(.1394 0 0 -.1394 0 1496)"/>
    <path style="fill:#88c3ee;fill-opacity:1;fill-rule:nonzero;stroke:none"
          d="M15440.4 9749.35c0-93.6 76.1-169.77 169.7-169.77 9.3 0 18.7.78 28.1 2.35h499.9l1.6.13c88.5 2.87 160.3 76.84 160.3 165.54 0 89.7-71.6 162.97-160.7 165.61-8.8 51.13-52.9 88.69-105.7 88.69-21.3 0-42-6.37-59.6-18.11-43.3 64.41-114.6 102.61-192.8 102.61-106 0-199.9-73.7-225.4-176.15-68.2-23.08-115.4-88.45-115.4-160.9"
          transform="matrix(.13535 0 0 -.13535 0 1496)"/>
    <path style="fill:#a5a6a9;fill-opacity:1;fill-rule:nonzero;stroke:none"
          d="m809.297 1947.97 959.603-554.03 959.59 554.03v1108.05l-959.59 554.02-959.603-554.02zm959.603-594.92-995.017 574.47v1148.94l995.017 574.48 995.01-574.48V1927.52z"
          transform="matrix(.13333 0 0 -.13333 0 1496)"/>
    <path style="fill:#59595b;fill-opacity:1;fill-rule:nonzero;stroke:none"
          d="m1780.59 3566.44-25.58 44.29-9.84 5.68 23.73 41.1 42.35-73.37zm-57.87-59.74-30.67 17.7 35.41 61.34 30.67-17.7zm110.98-32.27-35.41 61.34 30.67 17.7 35.41-61.33zm-164.1-59.74-30.67 17.71 35.41 61.33 30.67-17.7zm217.23-32.27-35.42 61.34 30.67 17.71 35.41-61.34zm-270.35-59.74-30.67 17.71 35.41 61.34 30.67-17.71zm323.46-32.27-35.41 61.34 30.67 17.71 35.42-61.34zm-376.59-59.74-30.66 17.72 35.41 61.33 30.67-17.71zm429.72-32.27-35.42 61.34 30.67 17.71 35.42-61.34zm-482.83-59.73-30.67 17.71 35.41 61.33 30.67-17.71zm535.95-32.27-35.41 61.34 30.66 17.7 35.42-61.33zm-589.08-59.74-30.66 17.71 35.41 61.34 30.67-17.71zm642.2-32.27-35.42 61.34 30.67 17.71 35.42-61.34zM1404 2954.66l-30.67 17.7 35.41 61.34 30.67-17.71zm748.43-32.28-35.41 61.34 30.67 17.7 35.41-61.33zm-801.56-59.74-30.66 17.71 35.41 61.34 30.67-17.7zm854.68-32.26-35.42 61.33 30.67 17.71 35.42-61.34zm-907.79-59.74-30.67 17.7 35.41 61.34 30.67-17.7zm960.91-32.27-35.41 61.34 30.67 17.7 35.41-61.33zm-1014.04-59.74-30.67 17.71 35.42 61.34 30.67-17.71zm1067.16-32.27-35.41 61.34 30.66 17.71 35.42-61.34zm-1120.28-59.74-30.67 17.71 35.42 61.34 30.66-17.71zm1173.4-32.27-35.41 61.34 30.67 17.71 35.41-61.34zm-1226.52-59.74-30.67 17.72 35.42 61.33 30.67-17.71zm1279.64-32.27-35.41 61.34 30.67 17.71 35.41-61.34zm-1332.76-59.73-30.67 17.71 35.41 61.34 30.67-17.72zm1385.88-32.27-35.41 61.34 30.67 17.7 35.41-61.34zm-732.42-15.89-14.59 32.26 44.76 20.24 34.37-15.54-14.59-32.27-19.78 8.95zm146.76-39.07-64.54 29.17 14.59 32.27 64.54-29.18zm-243.57-4.7-14.58 32.27 64.53 29.17 14.59-32.26zm-609.77-.08-30.67 17.71 35.42 61.33 30.67-17.7zm1492.12-32.27-35.41 61.34 30.67 17.7 35.41-61.33zm-541.98-6.72-64.54 29.18 14.6 32.26 64.53-29.18zm-437.17-4.7-14.59 32.26 64.53 29.19 14.6-32.27zm533.98-39.07-64.54 29.18 14.59 32.26 64.54-29.18zm-630.79-4.69-14.59 32.26 64.54 29.18 14.59-32.27zm-469.283-4.55-30.668 17.7 35.414 61.34 30.667-17.71zm1598.363-32.28-35.41 61.34 30.67 17.7 35.41-61.33zm-401.48-2.25-64.54 29.18 14.59 32.27 64.54-29.18zm-824.41-4.7-14.59 32.27 64.54 29.18 14.59-32.26zm921.22-39.07-64.54 29.18 14.58 32.27 64.54-29.18zm-1018.02-4.69-14.59 32.26 64.54 29.19 14.58-32.28zm-328.79-9.02-30.672 17.7 35.418 61.34 30.668-17.7zm1443.61-30.06-64.54 29.19 14.59 32.26 64.54-29.18zm260.99-2.22-35.41 61.34 30.67 17.71 35.41-61.34zm-1472.62-2.47-14.59 32.27 64.54 29.18 14.59-32.27zm1308.44-39.07-64.54 29.17 14.59 32.28 64.54-29.19zm-1405.25-4.7-14.59 32.27 64.54 29.18 14.59-32.27zm-188.291-13.5-30.668 17.71 35.414 61.34 30.668-17.71zM2563.14 2009l-64.54 29.18 14.58 32.26 64.55-29.17zm-1598.863-4.69-14.589 32.26 64.532 29.18 14.59-32.27zm1719.353-2-35.41 61.33 30.67 17.71 35.42-61.33zm-23.69-37.08-64.54 29.17 14.59 32.28 64.54-29.19zm-1792.471-4.69-14.594 32.26 64.543 29.18 14.59-32.27zm-105.985-47.92 62.926 108.99 30.668-17.7-25.844-44.77 5.965-13.2zm2014.826 0-84.1 38.02 9.33 20.65-.2.35.49.28 4.97 10.99 7.89-3.57 17.32 10.01z"
          transform="matrix(.13333 0 0 -.13333 0 1496)"/>
    <path style="fill:#59595b;fill-opacity:1;fill-rule:nonzero;stroke:none"
          d="m2732.01 3006.25-17.32 10-7.89-3.57-4.97 10.99-.49.28.2.35-9.33 20.65 84.1 38.03zm-1907.6-32.27-62.926 109 73.715-33.33-5.965-13.2 25.844-44.76zm93.008-.37-64.543 29.18 14.594 32.26 64.539-29.17zm1692.572-4.69-14.59 32.27 64.54 29.17 14.59-32.27zm-1595.77-39.08-64.532 29.18 14.589 32.27 64.533-29.18zm1498.96-4.7-14.58 32.28 64.54 29.17 14.59-32.26zm165.71-10.9-30.67 17.71 35.41 61.34 30.68-17.71zm-1567.86-28.16-64.54 29.17 14.59 32.27 64.54-29.18zm-233.495-4.11-35.414 61.34 30.668 17.71 35.414-61.34zm1538.845-.59-14.59 32.27 64.54 29.17 14.59-32.26zm-1208.54-39.08-64.54 29.19 14.59 32.26 64.54-29.17zm1111.73-4.69-14.59 32.27 64.54 29.18 14.59-32.27zm306.2-15.38-30.67 17.71 35.41 61.34 30.67-17.7zm-1321.12-23.69-64.54 29.17 14.59 32.27 64.53-29.18zm918.11-4.7-14.58 32.27 64.54 29.18 14.58-32.27zm-1292.104-3.88-35.418 61.34 30.672 17.7 35.414-61.33zm470.794-35.19-64.54 29.18 14.59 32.26 64.54-29.17zm724.51-4.7-14.59 32.28 64.54 29.17 14.59-32.27zm446.69-19.85-30.67 17.71 35.41 61.34 30.67-17.71zM1498.26 2711l-64.54 29.18 14.59 32.27 64.54-29.18zm530.89-4.69-14.59 32.26 64.54 29.19 14.59-32.27zm-1045.377-8.35-35.414 61.33 30.668 17.71 35.413-61.34zm611.287-30.73-64.53 29.18 14.59 32.27 64.54-29.18zm337.29-4.69-14.6 32.27 64.54 29.17 14.59-32.26zm587.18-24.32-30.67 17.7 35.41 61.34 30.67-17.7zm-827.66-14.76-64.53 29.19 14.58 32.26 64.54-29.18zm143.67-4.69-14.59 32.27 64.54 29.17 14.59-32.26zm-798.64-12.82-35.42 61.34 30.67 17.7 35.42-61.34zm732-17.31-44.76 20.24 14.59 32.26 30.17-13.63 19.78 8.94 14.59-32.27zm697.51-42.43-30.67 17.71 35.41 61.33 30.67-17.7zm-1376.4-32.28-35.41 61.35 30.67 17.71 35.41-61.35zm1323.28-59.73-30.67 17.71 35.41 61.34 30.67-17.71zm-1270.15-32.27-35.42 61.34 30.67 17.71 35.42-61.34zm1217.03-59.74-30.67 17.71 35.41 61.34 30.67-17.71zm-1163.91-32.26-35.42 61.33 30.67 17.71 35.41-61.34zm1110.78-59.74-30.66 17.7 35.41 61.34 30.67-17.71zm-1057.66-32.27-35.42 61.34 30.67 17.7 35.42-61.34zm1004.55-59.74-30.67 17.7 35.41 61.34 30.67-17.7zm-951.43-32.27-35.41 61.33 30.67 17.71 35.41-61.34zm898.3-59.74-30.67 17.71 35.42 61.34 30.67-17.71zm-845.18-32.27-35.41 61.34 30.66 17.7 35.42-61.33zm792.07-59.74-30.67 17.71 35.41 61.34 30.67-17.71zm-738.95-32.26-35.41 61.33 30.67 17.71 35.41-61.34zm685.82-59.75-30.67 17.71 35.42 61.34 30.67-17.71zm-632.7-32.26-35.41 61.33 30.66 17.71 35.42-61.34zm579.58-59.74-30.66 17.71 35.41 61.33 30.67-17.71zm-526.46-32.28-35.41 61.34 30.67 17.72 35.41-61.35zm473.34-59.73-30.67 17.71 35.42 61.34 30.67-17.71zm-420.22-32.27-35.41 61.34 30.66 17.71 35.42-61.34zm367.1-59.74-30.67 17.71 35.41 61.34 30.68-17.71zm-313.98-32.27-35.41 61.34 30.67 17.71 35.41-61.34zm260.86-59.73-30.67 17.7 35.42 61.34 30.66-17.71zm-207.74-32.27-35.41 61.33 30.67 17.71 35.41-61.34zm154.62-59.74-30.67 17.7 35.41 61.34 30.67-17.7zm-101.5-32.27-35.41 61.34 30.67 17.7 35.41-61.34zm41.44-71.77-23.73 41.1 9.84 5.69 25.58 44.29 30.66-17.71z"
          transform="matrix(.13333 0 0 -.13333 0 1496)"/>
    <path style="fill:#6792b1;fill-opacity:1;fill-rule:nonzero;stroke:none"
          d="M1596.26 3630.49c0 95.34 77.29 172.63 172.64 172.63 95.34 0 172.63-77.29 172.63-172.63 0-95.35-77.29-172.63-172.63-172.63-95.35 0-172.64 77.28-172.64 172.63"
          transform="matrix(.13333 0 0 -.13333 0 1496)"/>
    <path style="fill:#487396;fill-opacity:1;fill-rule:nonzero;stroke:none"
          d="M1768.9 3457.86c-23.64 0-46.16 4.75-66.67 13.34-10.99 4.6-21.4 10.31-31.09 16.98a173.5 173.5 0 0 0-42.12 41.11 172.6 172.6 0 0 0-17.73 30.65c-9.66 21.54-15.03 45.41-15.03 70.55 0 95.34 77.29 172.63 172.64 172.63z"
          transform="matrix(.13333 0 0 -.13333 0 1496)"/>
    <path style="fill:#dbdbdb;fill-opacity:1;fill-rule:nonzero;stroke:none"
          d="M1576.31 1373.5c0 106.36 86.22 192.59 192.59 192.59 106.36 0 192.59-86.23 192.59-192.59 0-106.37-86.23-192.6-192.59-192.6-106.37 0-192.59 86.23-192.59 192.6"
          transform="matrix(.13333 0 0 -.13333 0 1496)"/>
    <path style="fill:#bcbcbc;fill-opacity:1;fill-rule:nonzero;stroke:none"
          d="M1768.9 1180.9c-106.37 0-192.59 86.23-192.59 192.6 0 106.36 86.22 192.59 192.59 192.59z"
          transform="matrix(.13333 0 0 -.13333 0 1496)"/>
    <path style="fill:#dbdbdb;fill-opacity:1;fill-rule:nonzero;stroke:none"
          d="M599.004 3044.17c0 106.36 86.223 192.6 192.59 192.6 106.359 0 192.586-86.24 192.586-192.6s-86.227-192.59-192.586-192.59c-106.367 0-192.59 86.23-192.59 192.59"
          transform="matrix(.13333 0 0 -.13333 0 1496)"/>
    <path style="fill:#d1562c;fill-opacity:1;fill-rule:nonzero;stroke:none"
          d="M2535.38 3055.5c0 119.34 96.74 216.09 216.08 216.09s216.08-96.75 216.08-216.09c0-119.33-96.74-216.07-216.08-216.07s-216.08 96.74-216.08 216.07"
          transform="matrix(.13333 0 0 -.13333 0 1496)"/>
    <path style="fill:#be391a;fill-opacity:1;fill-rule:nonzero;stroke:none"
          d="M2751.46 2839.43c-36.58 0-71.05 9.09-101.25 25.14a216 216 0 0 0-29.84 19.15 217.1 217.1 0 0 0-56.44 64.37 215 215 0 0 0-15.05 32.06c-8.73 23.46-13.5 48.85-13.5 75.35 0 119.34 96.74 216.09 216.08 216.09z"
          transform="matrix(.13333 0 0 -.13333 0 1496)"/>
    <path style="fill:#a5a6a9;fill-opacity:1;fill-rule:nonzero;stroke:none"
          d="M1347.03 2501.99c0 233 188.88 421.87 421.87 421.87s421.86-188.87 421.86-421.87c0-232.99-188.87-421.86-421.86-421.86s-421.87 188.87-421.87 421.86"
          transform="matrix(.13333 0 0 -.13333 0 1496)"/>
    <path style="fill:#6792b1;fill-opacity:1;fill-rule:nonzero;stroke:none"
          d="M791.594 1803.62c-81.633 0-147.805 66.17-147.805 147.8s66.172 147.81 147.805 147.81c81.629 0 147.801-66.18 147.801-147.81s-66.172-147.8-147.801-147.8m0 439.39c-161.043 0-291.598-130.55-291.598-291.59s130.555-291.59 291.598-291.59c161.039 0 291.586 130.55 291.586 291.59s-130.547 291.59-291.586 291.59"
          transform="matrix(.13333 0 0 -.13333 0 1496)"/>
    <path style="fill:#487396;fill-opacity:1;fill-rule:nonzero;stroke:none"
          d="M791.594 1659.83c-161.043 0-291.598 130.55-291.598 291.59s130.555 291.59 291.598 291.59v-96.48c-107.758 0-195.114-87.35-195.114-195.11 0-107.75 87.356-195.11 195.114-195.11z"
          transform="matrix(.13333 0 0 -.13333 0 1496)"/>
    <path style="fill:#dbdbdb;fill-opacity:1;fill-rule:nonzero;stroke:none"
          d="M1768.9 1707.34c-63.62 0-125.47 7.47-184.77 21.59l-20.78 35.99-30.66-17.71 2.93-5.08c-179.25 54.95-331.5 171.58-432.04 325.15l22.04 9.97-14.59 32.27-26.35-11.92c-31.81 53.71-57.46 111.45-76.02 172.32l5.78 10.01-10.49 6.06c-19.356 68.68-29.712 141.13-29.712 216 0 71.26 9.379 140.32 26.972 206.03l13.23 7.64-7.44 12.89a790.2 790.2 0 0 0 73.8 171.2l30.23-13.67 14.59 32.26-26.25 11.87c101.56 158.44 257.82 278.48 442.12 333.43l-8.8-15.25 30.66-17.72 26.39 45.7c57.58 13.27 117.55 20.28 179.16 20.28v-315.11c-153.12 0-289.46-71.75-377.26-183.47l-40.14 18.14-14.59-32.26 33.47-15.13c-51.17-76.28-81.03-168.07-81.03-266.83 0-101.54 31.55-195.71 85.41-273.24l-37.85-17.11 14.59-32.27 45.06 20.38c87.93-108.18 222.07-177.31 372.34-177.31s284.4 69.13 372.33 177.31l34.68-15.68 14.59 32.27-27.46 12.41c53.85 77.53 85.4 171.7 85.4 273.24 0 10.17-.35 20.27-.98 30.28h150.03l-14.87-8.59 14.95-25.88-14.95-25.89 30.67-17.71 4.72 8.18.02-.04 30.67 17.71-10.24 17.75 10.24 17.74-28.97 16.73h143.19c.38-10.05.63-20.14.63-30.28 0-63.27-7.4-124.85-21.37-183.85l-22.65 39.23-30.67-17.7 35.41-61.34 8.85 5.11c-18.79-65.84-45.86-128.18-80.01-185.83l-36.73 16.61-14.59-32.28 32.43-14.65c-100.55-153.57-252.8-270.21-432.05-325.16l21.57 37.35-30.67 17.71-35.42-61.34 7.22-4.17c-62.69-15.9-128.34-24.34-195.97-24.34m-258.66 149.59-30.67-17.72 35.41-61.34 30.67 17.71zm535.95 32.26-35.41-61.33 30.66-17.71 35.42 61.33zm-589.08 59.74-30.66-17.71 35.41-61.33 30.67 17.7zm642.2 32.27-35.42-61.34 30.67-17.71 35.42 61.34zM1404 2040.94l-30.67-17.71 35.41-61.33 30.67 17.7zm748.43 32.27-35.41-61.34 30.67-17.71 35.41 61.34zm-801.56 59.73-30.66-17.7 35.41-61.34 30.67 17.71zm854.68 32.28-35.42-61.34 30.67-17.71 35.42 61.34zm-997.71-11.93-64.54-29.18 14.59-32.27 64.54 29.18zm1111.73 4.69-14.59-32.26 64.54-29.19 14.59 32.27zm-1040.04 27.72-39.42-17.83 14.59-32.26 42.62 19.27 5.18-8.97 30.67 17.7-35.41 61.34-30.67-17.71zm943.23 16.05-14.58-32.27 64.54-29.18 14.58 32.27-29.03 13.13 31.07 53.82-30.67 17.7-32.83-56.86zm-978.13 115.21-30.67-17.7 35.42-61.34 30.67 17.7zm1067.16 32.27-35.41-61.34 30.66-17.7 35.42 61.33zm-1274.89 40.41-35.42-61.33 30.67-17.71 35.42 61.34zm154.61 19.33-30.67-17.71 35.42-61.33 30.66 17.7zm1173.4 32.27-35.41-61.34 30.67-17.71 35.41 61.34zm101.5 8.14-30.67-17.7 35.41-61.34 30.67 17.7zm-1376.4 32.28-35.41-61.34 30.67-17.71 34.51 59.77 23.36-40.45 30.67 17.71-33.58 58.15 33.58 58.16-30.67 17.71-23.36-40.45-34.51 59.78-30.67-17.71 35.41-61.35 27.96 16.15-10.25-17.75 25.16-14.54-25.16-14.52 10.26-17.76zm106.25 184.01-35.42-61.34 30.67-17.71 35.41 61.34zm-164.11 19.32-30.67-17.7 35.42-61.34 30.67 17.7zm217.23 72.69-35.42-61.34 30.67-17.71 35.42 61.34zm30.15 52.21-12.44-21.55 30.67-17.7 35.41 61.34-30.67 17.7-5.18-8.97-42.62 19.27-14.59-32.27zm-121.64 93.86-14.59-32.26 64.54-29.19 14.59 32.28zm197.73 37.94-35.41-61.34 30.66-17.71 35.42 61.35zm53.12 92.01-35.41-61.34 30.67-17.7 35.41 61.33zm53.12 92.01-35.41-61.34 30.66-17.71 35.42 61.34zm53.12 92-35.41-61.33 30.67-17.71 35.41 61.33z"
          transform="matrix(.13333 0 0 -.13333 0 1496)"/>
    <path style="fill:#4c4c4e;fill-opacity:1;fill-rule:nonzero;stroke:none"
          d="M1103.58 2067.28a800 800 0 0 0-18.9 30.32l26.35 11.92 14.59-32.27zm1330.64.01-32.43 14.65 14.59 32.28 36.73-16.61a792 792 0 0 0-18.89-30.32m-1276.33 24.55-14.59 32.27 64.54 29.18 14.59-32.27zm1211.63 4.69-64.54 29.19 14.59 32.26 64.54-29.18zm-1114.82 39.08-14.59 32.26 39.42 17.83 17.79-30.82zm1018.02 4.69-64.54 29.18 14.58 32.27 3.08-1.39-2.58-4.48 30.67-17.7 4.34 7.52 29.03-13.13zm-921.22 39.07-14.59 32.27 37.85 17.11c6.91-9.95 14.18-19.62 21.8-29zm824.41 4.7-34.68 15.68c7.62 9.38 14.9 19.06 21.81 29l27.46-12.41zm-1167.25 85.85a782 782 0 0 0-4.71 16.07l10.49-6.06zm1515.61 8.41-35.41 61.34 30.67 17.7 22.65-39.23a785 785 0 0 0-9.06-34.7zm-1492.12 32.27-30.67 17.71 35.42 61.33 30.67-17.7zm1439 59.74-35.41 61.34 30.67 17.7 35.41-61.34zm-1385.88 32.27-30.67 17.71 35.41 61.34 27.97-16.15 1.8-3.13zm1332.76 59.73-.02.04 20.45 35.42 10.24-17.75zm-1277.8 35.45-1.84 3.19-5.51-3.19-25.16 14.54 10.25 17.75 2.71 1.56-.9 1.57 23.36 40.45 30.67-17.71zm1257.34.01-14.95 25.88 14.87 8.59h19.98zm-1206.06 88.82-30.67 17.71 35.42 61.34 30.66-17.71zm53.12 92.01-30.67 17.71 35.42 61.34 30.67-17.71zm53.13 92.01-30.67 17.7 12.44 21.55 25.12-11.35 14.58 32.26-21.91 9.91 5.18 8.97 30.67-17.7zm53.11 92-30.66 17.71 35.41 61.34 30.67-17.7zm53.13 92.02-30.67 17.7 35.41 61.34 30.67-17.71zm53.11 92-30.66 17.71 35.41 61.34 30.67-17.71zm53.13 92.01-30.67 17.71 35.41 61.33 30.67-17.71zm53.11 92-30.66 17.72 8.8 15.25c15.87 4.73 31.98 8.98 48.25 12.73z"
          transform="matrix(.13333 0 0 -.13333 0 1496)"/>
    <path style="fill:#4c4c4e;fill-opacity:1;fill-rule:nonzero;stroke:none"
          d="M1584.13 1728.93a786 786 0 0 0-48.51 13.2l-2.93 5.08 30.66 17.71zm380.74 2.75-7.22 4.17 35.42 61.34 30.67-17.71-21.57-37.35a787 787 0 0 0-37.3-10.45m-449.89 46.19-35.41 61.34 30.67 17.72 35.41-61.35zm526.46 32.28-30.66 17.71 35.41 61.33 30.67-17.71zm-579.58 59.74-35.41 61.33 30.66 17.71 35.42-61.34zm632.7 32.26-30.67 17.71 35.42 61.34 30.67-17.71zm-685.82 59.75-35.41 61.33 30.67 17.71 35.41-61.34zm738.95 32.26-30.67 17.71 35.41 61.34 30.67-17.71zm-792.07 59.74-35.41 61.34 30.66 17.7 35.42-61.33zm845.18 32.27-30.67 17.71 35.42 61.34 30.67-17.71zm-898.3 59.74-5.18 8.97-17.79 30.82-12.44 21.54 30.67 17.71 35.41-61.34zm951.43 32.27-30.67 17.7 2.58 4.48 32.83 56.86 30.67-17.7-31.07-53.82zm-1004.55 59.74-35.42 61.34 30.67 17.7 35.42-61.34zm1057.66 32.27-30.66 17.7 35.41 61.34 30.67-17.71zm-1110.78 59.74-35.42 61.33 30.67 17.71 35.41-61.34zm1163.91 32.26-30.67 17.71 35.41 61.34 30.67-17.71zm-1217.03 59.74-23.36 40.45-1.8 3.13-10.26 17.76 25.16 14.52 5.51 3.19 1.84-3.19 33.58-58.15zm1270.15 32.27-30.67 17.71 14.95 25.89 19.9 34.47h2.26l28.97-16.73-10.24-17.74-20.45-35.42zm-1323.28 59.73-35.41 61.35 30.67 17.71 34.51-59.78.9-1.57-2.71-1.56zm-53.11 92.02-35.42 61.34 30.67 17.7 35.42-61.34zm-35.69 102.07c1.84 6.89 3.77 13.71 5.79 20.53l7.44-12.89zm369.17 60.8-33.47 15.13 14.59 32.26 40.14-18.14a474 474 0 0 1-21.26-29.25m-65.73 29.72-25.12 11.35-39.42 17.82 14.59 32.27 42.62-19.27 21.91-9.91zm-96.81 43.76-64.54 29.19 14.59 32.26 64.54-29.17zm-96.81 43.78-30.23 13.67a785 785 0 0 0 18.57 30.46l26.25-11.87z"
          transform="matrix(.13333 0 0 -.13333 0 1496)"/>
    <path style="fill:#bcbcbc;fill-opacity:1;fill-rule:nonzero;stroke:none"
          d="M791.594 2851.58c-106.367 0-192.59 86.23-192.59 192.59s86.223 192.6 192.59 192.6z"
          transform="matrix(.13333 0 0 -.13333 0 1496)"/>
    <path style="fill:#e5e5e6;fill-opacity:1;fill-rule:nonzero;stroke:none"
          d="M2600.12 1945.36c0 83.59 67.76 151.34 151.34 151.34s151.34-67.75 151.34-151.34c0-83.58-67.76-151.34-151.34-151.34s-151.34 67.76-151.34 151.34"
          transform="matrix(.13333 0 0 -.13333 0 1496)"/>
    <path style="fill:#d9d9da;fill-opacity:1;fill-rule:nonzero;stroke:none"
          d="M2751.46 1794.02c-48.21 0-91.16 22.55-118.88 57.68-7.3 9.25-13.54 19.37-18.54 30.19-8.94 19.3-13.92 40.8-13.92 63.47 0 83.59 67.76 151.34 151.34 151.34z"
          transform="matrix(.13333 0 0 -.13333 0 1496)"/>
    <path style="fill:#6792b1;fill-opacity:1;fill-rule:nonzero;stroke:none"
          d="M13230.4 7414.94c-149.4 0-270.5 121.11-270.5 270.5s121.1 270.5 270.5 270.5c149.3 0 270.5-121.11 270.5-270.5s-121.2-270.5-270.5-270.5m0 674.76c-223.3 0-404.3-181-404.3-404.26 0-223.27 181-404.26 404.3-404.26 223.2 0 404.2 180.99 404.2 404.26 0 223.26-181 404.26-404.2 404.26"
          transform="matrix(.13333 0 0 -.13333 0 1496)"/>
    <path style="fill:#487396;fill-opacity:1;fill-rule:nonzero;stroke:none"
          d="M13230.4 7281.18c-146.9 0-275.4 78.28-346.2 195.37-6.2 10.14-11.8 20.56-17.1 31.25-26.3 53.62-41 113.9-41 177.64 0 223.26 181 404.26 404.3 404.26v-133.76c-149.4 0-270.5-121.11-270.5-270.5s121.1-270.5 270.5-270.5z"
          transform="matrix(.13333 0 0 -.13333 0 1496)"/>
    <path style="fill:#88c3ee;fill-opacity:1;fill-rule:nonzero;stroke:none"
          d="M12667.2 8109.56c-46.1 0-83.5 37.39-83.5 83.52s37.4 83.53 83.5 83.53c46.2 0 83.6-37.4 83.6-83.53s-37.4-83.52-83.6-83.52m0 248.3c-91 0-164.7-73.77-164.7-164.78 0-91 73.7-164.78 164.7-164.78s164.8 73.78 164.8 164.78c0 91.01-73.8 164.78-164.8 164.78"
          transform="matrix(.13333 0 0 -.13333 0 1496)"/>
    <path style="fill:#68ace6;fill-opacity:1;fill-rule:nonzero;stroke:none"
          d="M12667.2 8028.3c-91 0-164.7 73.78-164.7 164.78 0 91.01 73.7 164.78 164.7 164.78v-54.52c-60.9 0-110.2-49.37-110.2-110.26s49.3-110.26 110.2-110.26z"
          transform="matrix(.13333 0 0 -.13333 0 1496)"/>
    <path style="fill:#d1562c;fill-opacity:1;fill-rule:nonzero;stroke:none"
          d="M13591.8 8575.14c0-99.82-80.9-180.75-180.7-180.75s-180.7 80.93-180.7 180.75 80.9 180.73 180.7 180.73 180.7-80.91 180.7-180.73"
          transform="matrix(.13333 0 0 -.13333 0 1496)"/>
    <path style="fill:#a5a6a9;fill-opacity:1;fill-rule:nonzero;stroke:none"
          d="M12683.2 7233.52c0-99.82-80.9-180.75-180.7-180.75-99.9 0-180.8 80.93-180.8 180.75 0 99.81 80.9 180.73 180.8 180.73 99.8 0 180.7-80.92 180.7-180.73M13897 8307.67c0-56.49-45.8-102.28-102.3-102.28s-102.3 45.79-102.3 102.28c0 56.5 45.8 102.29 102.3 102.29s102.3-45.79 102.3-102.29m150.1-1026.49c0-56.49-45.8-102.29-102.3-102.29s-102.3 45.8-102.3 102.29 45.8 102.29 102.3 102.29 102.3-45.8 102.3-102.29"
          transform="matrix(.13333 0 0 -.13333 0 1496)"/>
    <path style="fill:#e5e5e6;fill-opacity:1;fill-rule:nonzero;stroke:none"
          d="M5334.48 7496.39c0 68.14 55.24 123.38 123.38 123.38 68.15 0 123.39-55.24 123.39-123.38 0-68.15-55.24-123.39-123.39-123.39-68.14 0-123.38 55.24-123.38 123.39"
          transform="matrix(.13333 0 0 -.13333 0 1496)"/>
    <path style="fill:#d9d9da;fill-opacity:1;fill-rule:nonzero;stroke:none"
          d="M5457.86 7373c-68.14 0-123.38 55.24-123.38 123.39 0 68.14 55.24 123.38 123.38 123.38z"
          transform="matrix(.13333 0 0 -.13333 0 1496)"/></svg>