<svg width="512" height="120" viewBox="135.234 413.498 831.591 246.72"><path d="m189.891 455.95.705-.002c7.465-.008 14.606.348 21.895 2.124q.944.225 1.888.438c5.089 1.157 9.978 2.816 14.868 4.631l.788.289a182 182 0 0 1 2.216.838l.67.246c1.393.547 2.232 1.061 3.009 2.363.031 1.464-.758 2.935-1.298 4.276l-.326.815-1.063 2.656-1.501 3.758-.195.487a643 643 0 0 0-2.744 6.982q-.651 1.681-1.309 3.361l-.717 1.858a395 395 0 0 1-1.004 2.591l-.295.782-.281.709-.24.618c-.297.467-.297.467-.807.68-.834.08-1.466-.186-2.253-.459l-.518-.178c-1.837-.645-3.637-1.389-5.442-2.122-7.037-2.855-13.773-4.745-21.344-5.464l-.729-.07c-2.701-.246-5.3-.383-8.004-.047l-.657.072c-2.533.295-4.88.688-6.945 2.288l-.698.53c-1.462 1.397-1.808 2.585-1.927 4.561-.033 2.3.025 4.332 1.659 6.095l.707.61.387.342c2.621 2.257 5.718 3.75 8.792 5.292 1.004.508 2.001 1.036 2.994 1.563 5.163 2.728 10.453 5.202 15.755 7.639 2.437 1.124 4.839 2.243 7.1 3.693l1.087.692.553.352a86 86 0 0 0 1.636.997 38.3 38.3 0 0 1 5.743 4.174 43 43 0 0 0 2.187 1.778c1.169.932 2.103 1.944 3.047 3.097l.526.58c6.097 6.926 8.301 16.316 8.305 25.34l.002.756c-.025 10.887-3.654 21.596-11.438 29.426l-.418.408a49 49 0 0 0-1.024 1.044c-1.485 1.423-3.201 2.591-4.866 3.789l-.834.6c-4.551 3.086-9.554 5.362-14.78 7.018l-.535.174a65 65 0 0 1-4.037 1.122l-.674.18c-5.919 1.532-11.995 1.36-18.065 1.343q-1.812-.004-3.623.016c-14.27.154-27.333-2.288-40.29-8.358-.262-.262-.262-.262-.293-.836v-.772l-.002-.883.002-.977v-1.024l.004-2.785.002-2.906.006-5.509.006-6.271.012-12.902 2.173.59a25 25 0 0 1 2.165.709l.754.283.758.289.723.27a100 100 0 0 1 3.887 1.552 82 82 0 0 0 10.379 3.568l.784.221c7.006 1.954 13.795 3.33 21.084 3.406q.926.012 1.849.037c4.397.119 9.863.031 13.468-2.92a9.2 9.2 0 0 0 1.479-1.972l.492-.735c1.395-2.341 1.208-4.42.602-7-1.853-5.489-8.688-8.02-13.498-10.404a303 303 0 0 0-5.945-2.828l-.518-.242-4.358-2.021a158 158 0 0 1-6.025-2.918 197 197 0 0 0-1.929-.967c-3.729-1.851-7.268-3.754-10.557-6.337-.412-.317-.84-.616-1.266-.911-8.143-5.644-13.236-14.61-15.178-24.201-.537-3.013-.487-6.06-.457-9.112l.006-.997c.086-10.65 2.654-19.622 10.398-27.263l.571-.58c2.122-2.15 4.176-3.899 6.799-5.423q.506-.293 1.004-.596c4.755-2.855 9.777-4.79 15.153-6.101l.522-.127a84 84 0 0 1 3.738-.805l.559-.113c4.94-.965 9.992-.854 15.004-.854" fill="#010101"/><path d="M581.435 490.209q7.473-.027 14.942-.039 3.469-.006 6.937-.018 3.023-.012 6.046-.014l3.203-.008q1.505-.008 3.011-.006l1.108-.004q.756-.004 1.507 0l.854-.002.664.096c.53.795.59.944.592 1.833l.004.645-.002.711.004.756q.004 1.257.002 2.517l.006 1.802.008 3.887.012 6.169.02 8.667.002.555.014 8.317.002.549q.008 4.565.023 9.134.008 2.558.01 5.116c-.031 8.323-.031 8.323.311 16.636l.057.821c.389 4.633 2.13 8.821 5.491 12.1l.76.432.549.352c.033.678.033.678 0 1.311q1.972-.008 3.942-.039.668-.008 1.335-.01c2.97-.01 5.349-.283 8.092-1.522l.573-.24c3.723-1.694 5.13-5.888 6.504-9.46.479-1.382.788-2.757 1.049-4.194l.18-.778c.492-2.144.778-4.223.907-6.414l.063-.991c.209-3.537.268-7.076.301-10.621l.027-2.308q.086-7.369.15-14.744l.041-4.487.008-.901.047-5.259c.057-6.783.162-13.56.371-20.339q7.252-.018 14.506-.027l6.736-.012q2.935-.008 5.87-.01 1.554 0 3.109-.006 1.464-.006 2.925-.004l1.585-.006.954.002.827-.002c.723.066 1.153.195 1.759.59.698 1.479.586 3.416.662 5.028l.033.698c.111 2.406.182 4.811.24 7.219l.016.705c.127 5.503.139 11.006.137 16.511v4.213l-.002 7.08v7.152c.006 12.227.002 24.447-.248 36.669a1038 1038 0 0 0-.133 9.212l-.008.774-.049 4.473-.041 3.906-.08 7.512a18.8 18.8 0 0 1-4.927.6l-.741.006q-1.204.008-2.408.006l-1.686.006-3.523.004q-2.253 0-4.506.016-1.737.008-3.478.006l-1.661.006q-1.161.008-2.324 0l-.686.008c-1.499-.014-2.71-.297-3.944-1.186-.444-.733-.444-.733-.705-1.581l-.307-.95-.299-1.01-.496-1.544-.332-1.032a61 61 0 0 0-1.698-4.583l-.272-.668-.612-1.479c-1.831.799-2.836 1.794-3.901 3.424-1.419 2.042-3.062 3.316-5.161 4.614a80 80 0 0 0-1.597 1.022 46 46 0 0 1-7.69 4.045l-.758.315c-5.036 2.032-9.638 2.423-15.008 2.353q-1.573-.016-3.144.008c-5.552.061-10.24-.649-15.434-2.677l-.262-1.311-.555-.049-.723-.068-.719-.066c-.623-.08-.623-.08-1.147-.342v-1.049l-2.884-.786-.262-1.311-1.032-.082c-1.507-.334-2.124-1.245-2.996-2.458-.573-.774-1.243-1.403-1.942-2.064-1.468-1.452-2.484-3.054-3.482-4.852l-.27-.483c-4.913-8.8-5.691-17.707-5.585-27.56q.016-2.009.023-4.018.018-3.639.051-7.279.035-4.467.059-8.931l.004-.623.012-2.527q.033-6.148.072-12.296l.004-.633c.066-10.877.176-21.752.408-32.625m274.205-2.15.604-.002 3.168-.008 2.587-.01c9.157-.063 9.157-.063 13.558.86l.825.158q1.001.203 1.993.465l.725.188c4.372 1.217 8.548 3.17 12.71 4.956v1.311l.424.125c4.139 1.296 6.506 3.619 9.159 6.98.633.752 1.307 1.403 2.023 2.077 1.528 1.491 2.597 3.14 3.633 5.007l.268.479c4.657 8.331 6.648 17.94 6.627 27.429l.004 1.479q.004 1.528 0 3.06-.004 1.952.01 3.908.004 1.516.004 3.035 0 .721.004 1.44.006 1.001-.004 2.009l.008.59c-.023 1.618-.383 2.118-1.188 3.727h-67.109c-.301 2.093-.301 2.093.145 3.873l.289.797.319.817.324.848c.827 2.062 1.71 3.459 3.379 4.936a29 29 0 0 1 .737.92c.528.604.877.903 1.622 1.182v1.311l.42.135a57 57 0 0 1 3.265 1.167l.7.272q.698.27 1.391.555c3.871 1.477 8.19 1.393 12.28 1.393l.711.002c7.401-.004 14.789-1.071 21.848-3.312l.985-.311q3.224-1.018 6.418-2.114l.768-.262.7-.246.61-.211c.543-.201.543-.201 1.018-.737.682-.051.682-.051 1.475-.033l.797.014.612.018q.018 4.737.027 9.474l.012 4.401q.008 2.126.01 4.254l.006 1.618c.037 7.399.037 7.399-.983 8.462a6.6 6.6 0 0 1-1.481.727l-.575.248a45 45 0 0 1-1.178.483 45 45 0 0 0-1.452.612 57 57 0 0 1-3.039 1.178l-.711.268c-10.017 3.717-20.22 4.213-30.806 4.098q-1.839-.014-3.682-.012-1.8-.002-3.596-.012l-1.69-.006a41.6 41.6 0 0 1-12.419-1.874l-.907-.274c-9.652-2.945-9.652-2.945-12.782-4.995a117 117 0 0 0-1.942-1.227c-4.028-2.523-7.33-4.903-10.314-8.641a16 16 0 0 0-1.612-1.659c-1.014-.981-1.753-2.093-2.507-3.279l-.354-.547c-.594-.963-.989-1.64-.825-2.81l-.592-.008c-.719-.254-.719-.254-1.249-1.085a41 41 0 0 1-.5-1.116l-.27-.604c-.948-2.165-1.7-4.383-2.4-6.638l-.203-.641c-1.894-6.046-3.166-12.261-3.254-18.614l-.012-.864c-.074-6.547.117-12.784 1.552-19.188q.178-.825.34-1.657c.59-2.92 1.495-5.644 2.574-8.417l.489-1.278c1.128-2.92 2.347-5.786 3.787-8.569h1.311v-1.573h1.049l-.127-.784c0-.985.344-1.403 1.018-2.101a66 66 0 0 1 1.157-1.079q.58-.539 1.151-1.083l.539-.51c.522-.541.87-1.13 1.241-1.782.705-.082.705-.082 1.311 0l.004-.559c.403-1.167 1.286-1.612 2.29-2.275l.571-.399c1.712-1.155 1.712-1.155 2.904-.961l.063-.608c.199-.702.199-.702.664-1.106l.612-.338.692-.385.758-.397.782-.418c4.114-2.122 8.434-3.389 12.952-4.323a27 27 0 0 0 3.193-.897c2.464-.594 5.04-.487 7.557-.494m-2.623 29.407-.662.385c-2.843 1.759-4.332 5.241-5.566 8.182l-.36.831-.324.811-.291.715c-.209 1.303.096 2.478.383 3.754 4.555.018 9.107-.035 13.664-.115l1.036-.018 6.128-.111 2.591-.047q1.759-.031 3.516-.072l1.235-.025 1.665-.037.922-.018c.739-.01.739-.01 1.225-.604.002-2.56-.381-5.014-1.393-7.373l-.225-.541c-.246-.557-.246-.557-.739-1.262-.684-.272-.684-.272-1.311-.262l-.098-.92c-.506-1.942-2.32-2.851-3.94-3.83-2.546-1.448-4.729-1.88-7.643-1.819-.639.01-1.276 0-1.915-.012-3.09-.01-5.272.795-7.899 2.384" fill="#008037"/><path d="M304.796 488.471q1.217.004 2.435-.01c4.463-.053 8.788.104 13.189.897l.543.096c6.167 1.133 11.854 3.248 17.203 6.523l.559.332c1.21.729 2.269 1.55 3.324 2.486a65 65 0 0 0 3.375 2.785c1.712 1.389 3.004 3.095 4.276 4.882l.371.524c4.28 6.212 7.211 13.775 8.081 21.256l.068.559c.602 5.253.52 10.533.477 15.813q-.01 1.618-.01 3.234l-.012 3.869-.002.739-.012 2.046-.002.616c-.014 1.384-.014 1.384-.307 1.675a16 16 0 0 1-1.094.031l-.719.002-.799-.002h-.842l-2.812-.002h-2.007l-4.334-.002-6.265-.004-10.162-.004-13.539-.006q-12.665-.004-25.328-.012l.485 2.497.137.707c.872 4.438 2.832 8.688 6.644 11.346a53 53 0 0 0 1.356.819l.602.356c5.095 2.72 10.303 3.193 15.978 3.101l1.047-.01c11.088-.104 21.471-2.374 31.703-6.709 1.198-.5 2.093-.662 3.394-.573a602 602 0 0 1-.115 15.679l-.014.872q-.035 2.083-.094 4.166a76 76 0 0 0-.02 3.086c.008 3.273.008 3.273-.674 4.34-.637.471-1.212.7-1.964.954l-.913.371c-1.079.43-2.177.803-3.281 1.169l-.604.205c-6.197 2.089-12.526 3.705-19.057 4.284l-1.024.092a96 96 0 0 1-3.17.17l-.817.035c-14.459.602-31.4.989-44.085-7.346a35 35 0 0 0-1.489-.897c-2.449-1.438-4.538-3.129-6.642-5.032-.637-.559-1.311-1.069-1.985-1.585-1.253-1.02-2.175-2.142-3.105-3.463a31 31 0 0 0-1.249-1.647c-4.401-5.448-7.059-12.405-8.788-19.124l-.262-.993c-2.742-11.065-2.46-24.936.262-35.969l.135-.557c1.36-5.569 3.463-10.646 6.156-15.696l.299-.563c.551-1.008 1.198-1.86 1.946-2.728a72 72 0 0 0 2.533-3.125c1.03-1.343 2.03-2.58 3.357-3.647.53-.42.53-.42 1.026-.926 5.888-5.773 14.371-9.087 22.297-10.768l.629-.139c4.559-.975 9.071-1.09 13.711-1.075m-3.854 27.431-.6.26c-3.381 1.536-6.111 3.51-7.526 7.08l-.334.694c-1.274 2.857-1.176 4.801-1.501 8.219h32.506c.106-3.961.106-3.961-1.049-7.34l-.223-.5c-1.686-3.781-4.073-6.697-7.903-8.413l-.702-.332c-2.073-.774-4.084-.827-6.279-.848l-.907-.014a12.8 12.8 0 0 0-5.482 1.196" fill="#010101"/><path d="m666.647 627.968 1.829-.002c23.136-.027 46.24.156 88.76 1.88l6.076.268c16.787.719 33.528 1.847 50.274 3.213 9.193.75 18.387 1.473 27.585 2.195l5.347.422c10.177.805 20.355 1.595 30.544 2.261l.582.037 5.607.365c10.306.67 20.582 1.399 30.833 2.681l.668.084a317 317 0 0 1 8.262 1.145l.87.125q1.133.168 2.261.36l.635.09c.745.139 1.325.26 1.78.897.287.639.485 1.229.485 1.933q-.508.137-1.016.262l-.573.147c-2.255.336-4.489.012-6.732-.279-9.265-1.126-18.444-1.632-27.777-1.669l-.842-.004a1724 1724 0 0 0-10.295-.004q-4.788.006-9.576-.002l-4.276-.006-5.014-.004a1061 1061 0 0 1-24.918-.262l-2.105-.049a418 418 0 0 1-15.458-.657l-1.716-.1a1108 1108 0 0 1-19.558-1.327q-3.105-.233-6.207-.449l-2.503-.18a399 399 0 0 0-29.719-1.055q-2.413.004-4.825.002-4.805-.002-9.609.008-4.542.008-9.085.006c-16.519-.014-33.022.082-49.535.629l-.821.027-3.742.129c-3.146.111-6.285.137-9.431.117v1.049l.948.049 1.233.068.623.031.602.033.553.029c.498.053.498.053 1.284.315v1.049a37 37 0 0 1-3.629.379l-.514.029-1.681.09-1.196.066-2.54.137-2.652.143c-8.618.467-8.618.467-12.511.598l-.766.025-.739.025a221 221 0 0 0-15.288 1.098l-.956.098q-1.376.143-2.755.293l-.786.082a68 68 0 0 0-4.096.58c-4.62.807-9.236 1.188-13.908 1.513q-1.702.119-3.408.248l-5.839.424a8049 8049 0 0 0-14.694 1.071l-2.357.174q-10.287.752-20.564 1.599l-.582.049-5.093.426a1360 1360 0 0 1-48.071 3.174l-1.055.051a8313 8313 0 0 1-25.94 1.208l-.961.045q-3.062.139-6.124.27l-.874.037-2.554.111-.762.033c-5.954.252-5.954.252-7.027-.053-.782-.174-1.505-.145-2.304-.123l-.528.012-1.774.051-.639.018c-3.805.111-7.602.295-11.401.506l-.879.049q-5.542.309-11.082.709c-9.392.678-18.751 1.143-28.17 1.143l-2.181.004q-1.708.002-3.414-.008l-1.253-.004a152 152 0 0 1-1.718-.012l-.971-.006c-.922-.113-1.425-.319-2.154-.889-.082-.705-.082-.705 0-1.311 3.5-.371 7.006-.641 10.516-.891l.69-.051 6.449-.453c5.921-.414 11.829-.874 17.734-1.489-18.547-.492-18.547-.492-36.962 1.311-.92-1.389-1.223-2.357-1.182-4.014l.012-.592c.061-1.552.17-3.049 1.167-4.307 3.246-2.267 8.997-2.55 12.829-3.244l.858-.156a860 860 0 0 1 5.972-1.061l.682-.119.629-.109.528-.092c6.058-1.004 12.165-1.628 18.274-2.247l.676-.07c10.064-1.024 20.14-1.806 30.228-2.535 4.469-.324 8.94-.659 13.408-.989l2.251-.168c6.146-.457 12.29-.938 18.43-1.473l.997-.086 4.921-.43c15.538-1.36 31.093-2.476 46.651-3.559l5.708-.399c26.657-1.87 26.657-1.87 38.359-2.128l2.185-.055q5.122-.127 10.244-.209l2.589-.047c17.076-.309 34.161-.342 51.239-.36" fill="#018038"/><path d="M525.312 488.016q1.182 0 2.363-.01c4.999-.045 9.777.174 14.701 1.155l.592.115c1.098.215 2.177.471 3.258.754l.987.256c4.626 1.241 9.087 3.086 13.513 4.905l.526.213c1.534.635 1.534.635 1.964 1.458.436 1.057.451 1.21.133 2.261-.358.813-.756 1.604-1.151 2.396-1.462 3-2.703 6.076-3.918 9.185l-1.065 2.707c-1.3 3.289-1.3 3.289-2.533 6.603l-.25.692-.442 1.257c-.565 1.591-1.319 3.095-2.906 3.86-.903.055-1.499-.344-2.298-.752-8.161-3.994-19.188-7.279-28.176-4.502-.795.299-.795.299-1.599.731-.907.438-1.587.42-2.585.36l.072.598c-.072.713-.072.713-.569 1.206l-.649.44c-.848.584-1.352.983-1.737 1.95h-1.311a158 158 0 0 0-1.937 6.156l-.354 1.178c-1.409 4.647-1.782 9.013-1.806 13.865l-.004.915c-.004 3.727.113 7.307 1.104 10.914l.256.934c.559 1.808 1.352 3.338 2.382 4.923.385.748.438 1.182.36 2.007l.803.115c.965.266 1.237.651 1.753 1.491 1.657 2.347 5.476 3.383 8.192 3.899.723.068 1.444.074 2.171.07l.612.002 1.278-.002q.954-.002 1.905.004c3.604.004 7.262-.104 10.684-1.348a33 33 0 0 1 4.159-1.184c2.879-.588 5.394-1.778 8.032-3.043q1.364-.653 2.732-1.303a174 174 0 0 0 1.812-.868l.838-.397.741-.358c.795-.254 1.206-.15 2.003.039q.027 5.812.039 11.622.006 2.699.018 5.396.012 2.603.014 5.206l.008 1.989q.008 1.391.006 2.781l.008.834c-.01 2.347-.01 2.347-.885 3.371-.514.276-.514.276-1.09.434l-.629.188-.653.18q-.645.178-1.288.369l-.578.158c-.526.203-.526.203-.713.748-.344.641-.59.791-1.239 1.104l-.59.287-.641.295-.672.311c-2.472 1.114-5.03 1.855-7.635 2.576l-1.411.403c-1.069.303-2.136.608-3.211.895a21 21 0 0 0-1.227.387c-2.484.817-5.034.692-7.621.688l-1.561.004q-1.63.004-3.26 0a545 545 0 0 0-4.143.01l-3.222.004q-.764 0-1.524.004c-3.242.018-6.138-.289-9.257-1.184l-1.034-.289a133 133 0 0 1-1.681-.492q-.817-.233-1.645-.426c-2.058-.471-3.899-1.196-5.814-2.073l-1.692-.762-.786-.358a115 115 0 0 0-2.554-1.11v-1.311h-1.573v-1.049l-.95-.246c-2.871-.975-5.114-2.697-6.914-5.104a11.7 11.7 0 0 0-1.522-1.612c-1.104-1.069-1.942-2.304-2.802-3.572l-.43-.623-.399-.6-.358-.539c-.307-.657-.301-1.143-.256-1.86l-.582.004c-.985-.358-1.159-.823-1.618-1.739l-.309-.674-.334-.723c-7.322-16.579-9.064-38.222-2.542-55.314a96 96 0 0 1 3.809-8.139l.383-.741c.858-1.622 1.825-3.099 2.925-4.565.997-1.337 1.923-2.658 2.72-4.129h1.309l-.08-.586c.08-.725.08-.725.618-1.296l.737-.559.795-.61.811-.618q1.014-.858 2.021-1.722c.698-.438 1.102-.455 1.911-.375l.039-.598c.311-.997.776-1.157 1.686-1.647l.453-.248a123 123 0 0 1 1.444-.77l.94-.51a191 191 0 0 1 2.779-1.473l.844-.442a29.3 29.3 0 0 1 4.891-2.032l.725-.227a111 111 0 0 1 6.466-1.708l.954-.231c4.968-1.145 9.861-1.229 14.93-1.227" fill="#008037"/><path d="M398.721 468.189h25.952c.301 4.833.301 4.833.346 6.771l.016.674.031 1.395.051 2.056a401 401 0 0 1 .08 11.123l1.001-.002 9.339-.012 4.803-.006 4.631-.006 1.769-.002 2.47-.002.748-.002c1.681.002 1.681.002 1.976.295q.035.559.033 1.124l.002.733-.002.813.002.852v4.735l-.002 4.065q-.002 2.611.002 5.224v5.929l-.002 2.687.002.813-.002.733v.641c-.031.487-.031.487-.293.75a14 14 0 0 1-1.057.031l-.69.002-.764-.002h-.799l-2.626-.004-1.815-.002-4.788-.006-4.882-.006-9.587-.012.023.639c.203 6.027.299 12.052.356 18.082q.02 2.296.051 4.59c.098 8.522.098 8.522.111 12.517q.008 2.04.027 4.08.006.909.004 1.821c-.053 4.538-.053 4.538 1.788 8.606 1.706 1.692 3.287 2.433 5.693 2.484l.602.014q.981.018 1.96.023l.68.006c4.706.018 9.071-.844 13.603-2.044a17 17 0 0 1 2.562-.367l.782-.068.596-.053q.063 5.347.094 10.697a733 733 0 0 0 .045 4.968q.029 2.396.035 4.794.006.913.018 1.829.016 1.28.014 2.56l.018.766c-.018 1.671-.018 1.671-.621 2.353-.987.725-2.062 1.165-3.219 1.563l-.506.174a137 137 0 0 1-1.634.541l-.573.188c-14.189 4.651-32.24 6.353-46.057-.303-2.525-1.288-4.524-3.019-6.463-5.067a27 27 0 0 0-1.069-1.051c-5.192-5.499-7.475-13.814-7.858-21.205l-.033-.623a256 256 0 0 1-.24-6.588l-.016-.641a502 502 0 0 1-.125-13.761l.002-3.293.006-6.179.006-7.059q.004-7.236.012-14.469l-.856.002-1.13.002-.561.002a115 115 0 0 1-5.038-.119l-.831-.031-.815-.033-.713-.029a64 64 0 0 1-3.162-.317 238 238 0 0 1-.231-6.296 102 102 0 0 0-.104-2.925c-.319-6.273-.319-6.273.754-7.942 1.004-1.022 2.15-1.642 3.449-2.214 1.008-.485 1.874-1.157 2.769-1.823a1321 1321 0 0 1 5.72-4.016l1.235-.872c.563-.387.563-.387 1.057-.659 1.745-1.016 2.435-2.896 3.275-4.643l.266-.543c2.183-4.448 4.049-9.034 5.9-13.629.786-1.942 1.587-3.877 2.386-5.816" fill="#010101"/><path d="M781.171 488.077h.69l1.446.002q1.083.002 2.171-.002c6.812-.002 6.812-.002 9.345.559.913 3.254.545 6.756.336 10.099l-.033.532c-.289 4.532-.831 9.034-1.386 13.541q-.162 1.315-.315 2.634l-.311 2.583-.145 1.21a55 55 0 0 1-1.29 7.154c-3.15-.135-6.296-.272-9.437-.524v-1.049c-1.622.225-3.242.453-4.858.715l-.612.1-1.26.207a49 49 0 0 1-3.764.449c-4.022.348-7.743 2.087-10.74 4.819-.664.791-1.171 1.649-1.657 2.558l-.442.586c-.709.088-.709.088-1.311 0l-.033.999c-.104 1.124-.381 2.071-.784 3.123-.913 2.474-1.198 4.872-1.323 7.498l-.031.592c-.274 5.251-.281 10.508-.293 15.766l-.018 4.202q-.018 3.955-.031 7.909l-.035 9.023q-.039 9.261-.072 18.52c-1.145.358-2.152.59-3.351.592l-.879.006-.948-.002-1.012.004-2.732.004-2.288.002q-2.701.004-5.403.002a1636 1636 0 0 0-5.558.006q-2.392.006-4.786.006l-2.853.004q-1.591.004-3.183-.002l-.944.006c-4.26-.027-4.26-.027-5.386-1.151a37 37 0 0 1-.033-1.759l-.002-.565v-1.903l-.002-1.368-.002-3.779-.004-4.069q-.006-4.452-.006-8.905l-.004-5.554-.006-15.364v-4.991q-.002-8.04-.012-16.079a15358 15358 0 0 1-.01-16.488q0-4.633-.006-9.265-.006-3.944-.004-7.887.002-2.013-.002-4.028-.004-1.841 0-3.682.002-.67-.002-1.337-.002-.903.002-1.808v-1.018l.096-.778c.821-.547 1.012-.592 1.946-.596l.719-.008h.786l.831-.006q1.364-.008 2.726-.01l1.892-.006 3.967-.008q2.544-.004 5.087-.023 1.954-.01 3.908-.01.938-.002 1.874-.01 1.313-.008 2.621-.002l.784-.01c1.217.012 1.767.027 2.759.791.535.731.784 1.298 1.018 2.173l.242.87.246.926a82 82 0 0 0 2.736 8.122c.492 1.239.879 2.497 1.223 3.783.25.612.25.612.969.887l.625.182.262-1.311h1.049v-1.573h1.049l-.078-.836c.098-1.249.42-1.524 1.339-2.345.719-.649 1.298-1.171 1.794-2.009l.356-.582c.705-.082.705-.082 1.311 0l.055-.596c.27-.934.623-1.141 1.419-1.681l.788-.539.43-.287a59 59 0 0 0 1.417-.995c1.874-1.325 3.535-2.343 5.851-2.718l.027-.612c.236-.698.236-.698.942-1.083l.936-.307.502-.17q.795-.262 1.591-.516l1.061-.354c2.222-.735 4.119-1.194 6.457-1.188" fill="#008037"/><path d="m838.894 413.516.961.002c4.624.018 8.946.246 13.427 1.456l1.11.27c2.884.709 5.628 1.628 8.378 2.746a152 152 0 0 0 1.968.776l1.255.508.592.229c.539.225.539.225 1.38.715.254.715.254.715.262 1.311l.53.117c1.933.469 3.533 1.225 5.239 2.243v1.311l.469.125c1.413.418 2.216.834 3.201 1.972l.852.819c3.838 3.83 3.838 3.83 3.899 5.652l-.037.866.606.047c.705.213.705.213 1.133.791l.371.77.422.874.434.958.225.494c3.903 8.669 4.854 17.068 2.251 26.239-.326 1.253-.516 2.529-.721 3.807-.958 5.587-.958 5.587-2.662 7.182-.58.371-.58.371-1.532.78.201-3.494.201-3.494.397-5.057.879-7.137.596-13.474-1.446-20.371l-.35-1.294c-.549-1.985-1.335-3.631-2.435-5.37-.494-.92-.524-1.493-.362-2.511h-1.049V440.4l-.602-.057c-.911-.264-1.071-.584-1.561-1.384-1.524-2.3-3.252-3.871-5.679-5.19-.547-.446-.547-.446-.629-1.155l.084-.6-1.835-.262-.262-1.311h-1.573v-1.049l-2.359-.262-.262-1.311-.52-.137a82 82 0 0 1-5.509-1.698l-.262-1.311-.95-.066c-1.747-.186-3.406-.733-5.079-1.245l-.524.786h1.305v1.049l.537.096.709.135.7.127a6.6 6.6 0 0 1 1.724.69v1.049l2.621.524v1.049l.999.279c1.581.528 2.873 1.411 4.243 2.343l.766.483.725.469.659.42c.471.465.471.465.543 1.174l-.072.6.705.18c2.497.987 3.979 4.192 5.325 6.373l.477.774c3.938 6.504 7.922 15.806 7.619 23.579-.332.784-.799.944-1.544 1.337-3.201 1.178-6.783.895-10.134.874a367 367 0 0 0-3.041-.004l-1.942-.006h-.913c-1.395-.012-2.595-.031-3.895-.604v-1.049l-.596-.02c-2.351-.129-4.139-.762-6.22-1.815v-1.311h-1.573v-1.049l-.688-.197c-2.339-.866-4.149-2.544-5.37-4.69-.258-.684-.281-1.204-.233-1.929l-.614-.061c-.696-.201-.696-.201-1.059-.684l-.285-.645-.332-.748-.346-.831-.373-.87c-1.214-2.908-2.195-5.89-3.168-8.886a184 184 0 0 0-2.877-8.176 139 139 0 0 1-2.124-6.13 27 27 0 0 0-1.702-4.127c-.258-.659-.262-1.174-.223-1.874h-1.049v-1.573l-.594-.006c-.717-.256-.717-.256-1.247-1.141a45 45 0 0 1-.469-1.098l-.248-.563a96 96 0 0 1-.588-1.384c3.852-2.986 7.952-2.804 12.616-2.769" fill="#018038"/><path d="M951.38 437.092c.809.365 1.618.606 2.48.819 2.503.618 4.749 1.72 7.045 2.867l.52.258c4.516 2.253 4.516 2.253 5.362 3.297.051.702.051.702 0 1.311l-2.097.524-.033.598c-.229.713-.229.713-.924 1.206l-.862.44c-1.376.678-1.376.678-2.114 1.95h-1.311l-.18.705c-.606 1.532-1.958 2.445-3.178 3.506-1.393 1.231-2.322 2.492-3.242 4.114-.475.588-.475.588-1.192.674l-.596-.086-.106.442c-.487 1.726-1.284 2.738-2.515 4.014l-1.182 1.311-.604.67a121 121 0 0 0-1.526 1.741c-.731.844-1.509 1.62-2.31 2.394-.397.426-.674.84-.967 1.339l-.489.672c-.721.098-.721.098-1.311 0l-.176.719c-.416 1.02-.817 1.315-1.724 1.917a20.5 20.5 0 0 0-2.208 1.659c-1.12.95-2.445 1.536-3.756 2.175l-.772.385c-1.972.973-3.645 1.61-5.865 1.692l-.639.023c-6.287.193-11.364-.788-17.101-3.332l-.514-.227a109 109 0 0 1-6.042-2.914l-.524-.262v-1.311h-1.049c.102-1.72.373-3.131 1.049-4.719h1.049v-1.573h1.049l.262-1.835 1.311-.262.262-1.835 1.311-.262.053-.459c.276-1.743.864-2.474 2.259-3.504 1.184-.905 2.071-1.741 2.9-2.982.397-.528.807-.756 1.409-1.016 1.032-.508 1.681-1.102 2.458-1.95.993-1.057.993-1.057 1.702-1.249.51.004.51.004 1.28.152l.061-.483c.274-.772.608-.889 1.331-1.253l.717-.362.774-.373.795-.387a32.8 32.8 0 0 1 6.808-2.38l.707-.166a156 156 0 0 1 9.777-1.933 94 94 0 0 0-3.932-.262l-.698-.037c-7.608-.36-15.227 1.139-21.733 5.208-.895.469-1.487.492-2.472.336v1.049h-1.573v.606l-.262.705a78 78 0 0 1-1.559.506c-.872.453-1.133 1.198-1.55 2.056a5.3 5.3 0 0 1-1.61 1.896c-.735.082-.735.082-1.311 0l-.786 2.359-1.311.262-.121.426c-.506 1.636-1.225 3.058-2.075 4.54a293 293 0 0 0-1.475 2.636l-.34.602c-1.135 2.118-1.739 4.407-2.386 6.711-.754 2.658-1.729 4.819-3.303 7.105l-1.311-.262.213-.901c.549-2.486.961-5.003 1.343-7.522.459-3.013.915-5.968 1.849-8.878l.244-.768c1.108-3.463 2.263-6.646 4.213-9.718q.465-.834.92-1.671l.385-.711.268-.502h1.049l-.133-.786c-.008-.745.094-1.001.571-1.591a33 33 0 0 1 1.122-1.032c.563-.502.563-.502.907-1.184.645-1.012 1.595-1.417 2.617-2.001.721-.442.721-.442 1.104-1.192l.365-.604c.967-.082.967-.082 1.835 0v-1.049h1.573l.057-.618c.205-.692.205-.692.713-1.028l.674-.244.76-.281.827-.285.848-.303c12.02-4.243 25.915-5.503 37.859-.023" fill="#028138"/></svg>