<?xml version="1.0" encoding="UTF-8" standalone="no"?>
<svg
   xmlns="http://www.w3.org/2000/svg"
   viewBox="0 0 1000 666.66669"
   height="666.66669"
   width="1000"
   xml:space="preserve"
   id="svg2"
   version="1.1"><g
     transform="matrix(1.3333333,0,0,-1.3333333,0,666.66667)"
     id="g10"><g
       transform="scale(0.1)"
       id="g12"><path
         id="path14"
         style="fill:none;fill-opacity:1;fill-rule:nonzero;stroke:none"
         d="M 7500,0 H 0 V 5000 H 7500 V 0" /><path
         id="path16"
         style="fill:#f25260;fill-opacity:1;fill-rule:nonzero;stroke:none"
         d="M 364.973,2228.64 C 358.895,2224.6 116.07,2054.62 257.719,1793.57 l 244.855,68.81 54.633,252.94 -192.234,113.32" /><path
         id="path18"
         style="fill:#240f17;fill-opacity:1;fill-rule:nonzero;stroke:none"
         d="m 1280.71,781.801 c -101.68,0 -203.4,0.597 -305.073,-0.5 -29.168,-0.309 -58.313,-1.192 -87.477,-1.469 -10.719,-0.09 -10.683,-16.551 0.043,-16.652 50.875,-0.469 101.719,-1.578 152.607,-1.68 50.85,-0.098 101.7,-0.281 152.55,-0.281 h 87.53 c 13.25,0 13.08,20.582 -0.18,20.582" /><path
         id="path20"
         style="fill:#371422;fill-opacity:1;fill-rule:nonzero;stroke:none"
         d="m 886.813,0 161.827,776 h 57.28 V 0 h 529.74 v 1178.95 l -97.47,66.73 -916.276,5.73 L 340.078,0 h 546.735" /><path
         id="path22"
         style="fill:#240f17;fill-opacity:1;fill-rule:nonzero;stroke:none"
         d="m 804.441,0 c 10.77,42.2695 20.36,113.129 30.555,155.531 11.879,49.399 23.766,98.821 35.649,148.231 23.859,99.207 48.246,198.34 70.699,297.879 12.648,56.078 25.344,112.148 38.5,168.121 2.207,9.398 -12.211,13.41 -14.492,3.988 C 941.328,674.559 916.02,575.699 892.297,476.441 868.574,377.18 845.121,277.852 821.621,178.539 809.773,128.48 797.094,50.2617 786.074,0 h 18.367" /><path
         id="path24"
         style="fill:#240f17;fill-opacity:1;fill-rule:nonzero;stroke:none"
         d="m 1555.48,0 h 17.77 c 1.86,54.6797 0.97,137.762 1.07,192.461 0.09,58.418 0.19,116.828 0.29,175.238 0.19,115.981 0.3,231.961 0.3,347.942 0,32.961 -0.12,65.91 -0.26,98.871 -0.14,32.937 -1.6,65.859 -1.92,98.797 -0.1,10.769 -16.63,10.742 -16.73,-0.039 -0.56,-58.45 -2.18,-116.84 -2.18,-175.301 V 562.75 c 0,-115.969 0.36,-231.941 0.56,-347.918 0.1,-62.133 -1.05,-152.7109 1.1,-214.832" /><path
         id="path26"
         style="fill:#ffffff;fill-opacity:1;fill-rule:nonzero;stroke:none"
         d="m 2004.01,2110.05 -15.82,-9.44 -274.32,-163.67 -78.21,-46.65 V 1178.95 H 592.004 l -1.207,136.69 -1.301,148.12 -1.266,144.04 -1.214,138.45 -1.262,144.04 -0.106,11.75 -399.421,280.25 c 0,0 41.753,40.49 98.507,94.67 28.379,27.1 60.52,57.61 93.059,88.2 33.223,31.24 66.891,62.55 97.398,90.35 52.661,48 100.829,90.97 130.383,115.27 8.254,6.78 15.055,12.11 20.106,15.69 40.273,28.55 94.265,47.45 135.105,58.76 34.203,9.46 59.176,13.6 59.176,13.6 l 522.109,49.8 c 0,0 15.1,-2.76 39.39,-7.84 83.54,-17.47 275.8,-62.53 336.05,-118.02 1.97,-1.8 4.01,-3.83 6.13,-6.05 23.64,-24.64 56.93,-73.83 92.36,-131.37 18.78,-30.5 38.14,-63.35 56.98,-96.12 24.34,-42.32 47.81,-84.54 67.99,-121.46 37.05,-67.78 63.04,-117.72 63.04,-117.72" /><path
         id="path28"
         style="fill:#83ce35;fill-opacity:1;fill-rule:nonzero;stroke:none"
         d="M 1940.97,2227.77 1608.96,2016.4 H 617.859 l -333.125,260.56 c 28.379,27.1 60.52,57.61 93.059,88.2 l 254.57,-190.93 956.697,-3.21 283.92,178.21 c 24.34,-42.32 47.81,-84.54 67.99,-121.46" /><path
         id="path30"
         style="fill:#83ce35;fill-opacity:1;fill-rule:nonzero;stroke:none"
         d="M 1816,2445.35 1580.86,2313.82 H 654.945 l -179.754,141.69 c 52.661,48 100.829,90.97 130.383,115.27 l 128.739,-94.61 816.437,-0.2 172.89,100.75 c 23.64,-24.64 56.93,-73.83 92.36,-131.37" /><path
         id="path32"
         style="fill:#83ce35;fill-opacity:1;fill-rule:nonzero;stroke:none"
         d="M 1635.66,1890.29 V 1746.25 H 587.016 l -1.262,144.04 H 1635.66" /><path
         id="path34"
         style="fill:#83ce35;fill-opacity:1;fill-rule:nonzero;stroke:none"
         d="M 1635.66,1607.8 V 1463.76 H 589.496 l -1.266,144.04 h 1047.43" /><path
         id="path36"
         style="fill:#83ce35;fill-opacity:1;fill-rule:nonzero;stroke:none"
         d="M 1635.66,1315.64 V 1178.95 H 592.004 l -1.207,136.69 H 1635.66" /><path
         id="path38"
         style="fill:#67b230;fill-opacity:1;fill-rule:nonzero;stroke:none"
         d="m 1616.98,2076.92 c -8.25,61.78 -16.75,123.56 -25.74,185.23 -5.04,34.55 -9.7,69.13 -14.24,103.75 -1.25,9.51 -16.27,8.93 -15.02,-0.68 16.07,-123.52 30.24,-247.3 46.06,-370.86 4.43,-34.61 8.63,-69.3 14.23,-103.74 0.8,-4.99 4.31,-9.01 9.71,-8.79 4.83,0.18 9.28,4.74 8.79,9.71 -6.14,61.97 -15.55,123.67 -23.79,185.38" /><path
         id="path40"
         style="fill:#fab5b1;fill-opacity:1;fill-rule:nonzero;stroke:none"
         d="m 2128.77,1769.01 c 14.51,-99.79 -346.28,-635.78 -561.49,-861.151 -57.07,41.832 -151.97,190.841 -150.15,196.291 l 125.06,74.8 60.34,36.07 33.13,84.67 179.54,458.84 -66.29,116.71 -35.04,61.7 274.32,163.67 c 9.87,-18.85 21.72,-41.76 35.37,-68.65 29.35,-57.76 90.7,-163.15 105.21,-262.95" /><path
         id="path42"
         style="fill:#f25260;fill-opacity:1;fill-rule:nonzero;stroke:none"
         d="m 2012.11,2054.41 -273.08,-161.75 -25.16,44.28 274.32,163.67 c 7.01,-13.37 14.99,-28.77 23.92,-46.2" /><path
         id="path44"
         style="fill:#f68a82;fill-opacity:1;fill-rule:nonzero;stroke:none"
         d="m 1342.07,2708.63 c 0,0 -112.05,-155.63 -273.7,-162.58 -117.472,-5.05 -173.026,30.49 -248.409,112.78 85.754,12.45 100.969,17.99 118.254,26.28 17.293,8.3 20.047,21.44 14.523,53.25 -1,5.76 -2.84,15.97 -5.195,28.83 -10.594,58.12 -31.457,170.34 -31.457,170.34 l 235.804,78.14 c -0.31,-0.96 5.1,-42.01 11.77,-89.31 7.81,-55.35 17.34,-119.25 21.44,-137.52 7.6,-33.89 13.82,-44.26 40.8,-54.63 26.96,-10.37 116.17,-25.58 116.17,-25.58" /><path
         id="path46"
         style="fill:#f25260;fill-opacity:1;fill-rule:nonzero;stroke:none"
         d="m 1157.71,2969.32 c 5.12,-37.75 -3.67,-76.28 -25.6,-107.44 -3.55,-5.03 -7.32,-9.81 -11.32,-14.25 -40.06,-44.38 -133.06,-70.97 -173.247,-80.44 -10.594,58.12 -31.457,170.34 -31.457,170.34 l 235.804,78.14 c -0.21,-0.65 2.19,-19.57 5.82,-46.35" /><path
         id="path48"
         style="fill:#f68a82;fill-opacity:1;fill-rule:nonzero;stroke:none"
         d="m 790.563,2987.15 c 0,0 -26.458,-13.65 -51.204,-6.83 -24.746,6.83 -52.906,32.43 -64,64.86 -11.089,32.42 -15.359,99.84 36.696,104.96 52.05,5.12 73.16,-85.25 76.558,-104.88 4.203,-24.25 1.95,-58.11 1.95,-58.11" /><path
         id="path50"
         style="fill:#f25260;fill-opacity:1;fill-rule:nonzero;stroke:none"
         d="m 686.223,3105.83 c 3.945,12.14 13.812,21.62 26.89,22.58 14.289,1.04 23.371,-9.85 30.367,-20.79 8.391,-13.13 14.965,-27.42 19.325,-42.38 1.863,-6.4 -7.848,-8.83 -9.934,-2.62 -3.668,10.92 -8.109,21.54 -13.766,31.59 -4.64,8.26 -10.648,20.6 -20.605,23.27 -11.012,2.93 -20.801,-6.05 -24.27,-15.74 -3.988,-11.13 -2.011,-23.5 0.598,-34.71 0.309,-1.31 -1.547,-2.29 -2.254,-0.99 -6.617,12.12 -10.789,26.13 -6.351,39.79" /><path
         id="path52"
         style="fill:#f25260;fill-opacity:1;fill-rule:nonzero;stroke:none"
         d="m 713.145,3037.66 c 6.406,-11.12 20.726,-22.78 33.293,-25.88 3.898,-0.96 8.363,-0.71 8.667,4.23 0.204,3.21 -1.683,6.12 -3.816,8.3 -4.402,4.5 -10.391,7.12 -15.41,10.84 -10.094,7.47 -15.293,19.73 -9.918,31.8 4.891,10.98 18.352,17.11 29.785,12.83 5.742,-2.14 3.442,-10.46 -2.617,-9.18 -17.031,3.57 -25.449,-16.15 -12.008,-26.7 9.672,-7.59 23.828,-12.7 24.09,-27.22 0.105,-5.91 -2.676,-11.55 -8.215,-14.05 -6.051,-2.74 -12.785,-0.81 -18.519,1.76 -6.286,2.82 -12.039,6.75 -16.993,11.54 -5.808,5.62 -8.894,12.16 -12.339,19.35 -1.274,2.66 2.48,5.02 4,2.38" /><path
         id="path54"
         style="fill:#f25260;fill-opacity:1;fill-rule:nonzero;stroke:none"
         d="m 704.898,3081.29 c 1.797,16.63 13.383,29.88 31.231,28.5 6.512,-0.49 6.434,-10.72 -0.109,-10.19 -12.27,1.02 -25.086,-5.82 -27.332,-18.77 -0.368,-2.11 -4.024,-1.7 -3.79,0.46" /><path
         id="path56"
         style="fill:#a21f2e;fill-opacity:1;fill-rule:nonzero;stroke:none"
         d="m 742.113,3240.74 c 0,0 -20.504,-103.37 28.192,-180.26 48.695,-76.88 336.585,-121.31 409.205,-13.66 72.61,107.64 41.01,234.93 15.38,272.52 -25.63,37.58 -125.58,105.93 -269.956,75.17 -144.375,-30.75 -176.836,-118.74 -182.821,-153.77" /><path
         id="path58"
         style="fill:#fab5b1;fill-opacity:1;fill-rule:nonzero;stroke:none"
         d="m 1149.67,3075.77 c -2.11,-116.01 -21.1,-151.17 -38.66,-183.52 -23.96,-44.08 -140.119,-91.97 -215.229,-97.29 -2.843,-0.22 -5.636,-0.36 -8.355,-0.43 -17.871,12.38 -32.738,25.86 -45.113,39.9 -66.961,75.99 -61.012,168.77 -64.571,198.44 -4.222,35.16 -18.285,85.78 -18.285,85.78 21.106,73.83 77.352,100.54 77.352,100.54 h 212.331 l 59.75,-55.54 0.99,-17.6 c 0.8,-14.18 4.87,-27.76 11.68,-39.79 6.81,-12.03 16.36,-22.51 28.11,-30.49" /><path
         id="path60"
         style="fill:#f68a82;fill-opacity:1;fill-rule:nonzero;stroke:none"
         d="m 895.781,2794.96 c -2.843,-0.22 -5.636,-0.36 -8.355,-0.43 -17.871,12.38 -32.738,25.86 -45.113,39.9 11.835,5.99 33.98,15.12 45.769,6.7 11.981,-8.57 13.66,-29.92 7.699,-46.17" /><path
         id="path62"
         style="fill:#f25260;fill-opacity:1;fill-rule:nonzero;stroke:none"
         d="m 968.203,2931.75 c 0,0 -47.707,18.57 -62.871,-23 32.691,13.54 62.871,23 62.871,23" /><path
         id="path64"
         style="fill:#f68a82;fill-opacity:1;fill-rule:nonzero;stroke:none"
         d="m 938.844,2861.77 c -5.168,12.48 -43.36,4.65 -42.324,-8.26 1.031,-12.9 48.519,-6.71 42.324,8.26" /><path
         id="path66"
         style="fill:#ca3345;fill-opacity:1;fill-rule:nonzero;stroke:none"
         d="m 699.148,3123.77 c 0,0 32.637,-21.08 73.805,5.02 41.168,26.11 95.891,171.7 177.223,187.26 81.324,15.57 98.954,-96.86 98.954,-96.86 0,0 26.05,29.59 50.65,18.04 24.6,-11.55 -1.61,-55.03 3.01,-87.36 6.03,-42.16 43.59,-49.24 70.79,-51.2 21.57,-1.56 40.59,-2.14 57.25,-2.26 34.7,-0.25 62.94,27.73 63.18,62.44 0.44,61.88 -3.54,136.8 -38.59,178.79 -48.2,57.73 -87.86,58.74 -143.09,57.23 -33.63,57.74 -125.51,126.52 -240.978,101.41 -115.469,-25.1 -170.192,-120.48 -172.204,-200.81 -2.003,-80.33 0,-171.7 0,-171.7" /><path
         id="path68"
         style="fill:#f68a82;fill-opacity:1;fill-rule:nonzero;stroke:none"
         d="m 1090.14,2996.31 c 0,0 -57.01,10.91 -98.163,-25.78 49.583,7.43 98.163,25.78 98.163,25.78" /><path
         id="path70"
         style="fill:#f68a82;fill-opacity:1;fill-rule:nonzero;stroke:none"
         d="m 863.852,2969 c 0,0 -33.059,34.9 -77.157,21.61 30.785,-19.54 77.157,-21.61 77.157,-21.61" /><path
         id="path72"
         style="fill:#a21f2e;fill-opacity:1;fill-rule:nonzero;stroke:none"
         d="m 1101.06,3372.96 c -12.71,-37.3 -26.55,-74.19 -39.1,-111.55 -2.66,-7.91 9.87,-11.32 12.49,-3.43 12.41,37.32 23.49,75.05 35.73,112.42 1.9,5.81 -7.16,8.3 -9.12,2.56" /><path
         id="path74"
         style="fill:#fab5b1;fill-opacity:1;fill-rule:nonzero;stroke:none"
         d="m 1133.28,2981.28 c 0,0 28.15,-14.52 54.48,-7.26 26.34,7.26 56.3,34.51 68.11,69.01 11.8,34.51 16.34,106.25 -39.05,111.7 -55.39,5.45 -77.85,-90.72 -81.47,-111.61 -4.47,-25.81 -2.07,-61.84 -2.07,-61.84" /><path
         id="path76"
         style="fill:#f25260;fill-opacity:1;fill-rule:nonzero;stroke:none"
         d="m 1244.31,3107.58 c -4.2,12.92 -14.7,23.01 -28.62,24.02 -15.2,1.11 -24.86,-10.47 -32.31,-22.12 -8.93,-13.97 -15.93,-29.18 -20.56,-45.1 -1.99,-6.81 8.35,-9.39 10.57,-2.78 3.9,11.62 8.63,22.92 14.65,33.61 4.93,8.78 11.33,21.93 21.92,24.76 11.71,3.12 22.13,-6.43 25.83,-16.75 4.24,-11.84 2.14,-25 -0.64,-36.93 -0.33,-1.4 1.65,-2.44 2.4,-1.06 7.04,12.9 11.48,27.81 6.76,42.35" /><path
         id="path78"
         style="fill:#f25260;fill-opacity:1;fill-rule:nonzero;stroke:none"
         d="m 1215.66,3035.03 c -6.82,-11.83 -22.06,-24.23 -35.43,-27.53 -4.15,-1.03 -8.9,-0.76 -9.22,4.5 -0.21,3.42 1.79,6.51 4.06,8.83 4.69,4.79 11.06,7.58 16.4,11.53 10.74,7.95 16.27,20.99 10.55,33.85 -5.2,11.68 -19.52,18.19 -31.69,13.65 -6.11,-2.29 -3.66,-11.13 2.78,-9.78 18.13,3.81 27.08,-17.17 12.78,-28.41 -10.29,-8.07 -25.36,-13.51 -25.63,-28.96 -0.11,-6.29 2.85,-12.29 8.74,-14.95 6.43,-2.92 13.6,-0.87 19.71,1.87 6.68,3 12.8,7.19 18.08,12.28 6.18,5.99 9.46,12.94 13.13,20.59 1.35,2.83 -2.64,5.34 -4.26,2.53" /><path
         id="path80"
         style="fill:#f25260;fill-opacity:1;fill-rule:nonzero;stroke:none"
         d="m 1224.43,3081.47 c -1.91,17.7 -14.23,31.79 -33.23,30.33 -6.93,-0.54 -6.84,-11.42 0.12,-10.85 13.06,1.08 26.7,-6.19 29.09,-19.98 0.38,-2.25 4.27,-1.8 4.02,0.5" /><path
         id="path82"
         style="fill:#f25260;fill-opacity:1;fill-rule:nonzero;stroke:none"
         d="m 942.379,3061.29 c 0,0 37.789,41.91 87.021,43.98 -31.611,13.99 -79.814,-4.15 -87.021,-43.98" /><path
         id="path84"
         style="fill:#371422;fill-opacity:1;fill-rule:nonzero;stroke:none"
         d="m 934.75,3127.85 c 0,0 16.844,-21.24 23.512,-25.08 19.566,-3.88 112.618,5.8 118.138,6.37 -40.94,18.39 -119.584,10.9 -141.65,18.71" /><path
         id="path86"
         style="fill:#ffffff;fill-opacity:1;fill-rule:nonzero;stroke:none"
         d="m 1098.67,3065.98 c -0.08,-0.53 -18.71,-46.1 -77.79,-54.73 -44.923,-6.57 -73.493,4.73 -73.493,4.73 0,0 6.468,35.98 39.472,55.51 7.688,4.54 16.811,8.2 27.631,10.29 21.56,4.19 43.13,-0.08 59.04,-5.22 15.14,-4.89 25.14,-10.58 25.14,-10.58" /><path
         id="path88"
         style="fill:#371422;fill-opacity:1;fill-rule:nonzero;stroke:none"
         d="m 947.387,3015.97 c 0,0 14.996,45.45 69.233,57.27 39.82,8.68 82.06,-7.27 82.06,-7.27 0,0 -36.15,42.37 -98.3,20.09 -47.837,-17.15 -52.993,-70.09 -52.993,-70.09" /><path
         id="path90"
         style="fill:#371422;fill-opacity:1;fill-rule:nonzero;stroke:none"
         d="m 1074.35,3076.02 c 1.55,-16.43 -10.84,-39.6 -36.58,-44.2 -35.66,-5.72 -52.274,22.33 -50.911,39.67 7.688,4.54 16.811,8.2 27.631,10.29 21.56,4.19 42.35,1.51 59.86,-5.76" /><path
         id="path92"
         style="fill:#f25260;fill-opacity:1;fill-rule:nonzero;stroke:none"
         d="m 839.375,3106.13 c 0,0 47.695,-4.86 68.453,-44.17 -1.769,36.66 -31.359,64.92 -68.453,44.17" /><path
         id="path94"
         style="fill:#371422;fill-opacity:1;fill-rule:nonzero;stroke:none"
         d="m 792.168,3147.22 c 0,0 21.68,9.35 35.281,8.5 13.606,-0.85 41.239,-51.44 77.375,-57.39 l -8.648,21.48 c -2.93,7.28 -8.36,13.25 -15.281,16.94 -3.661,1.96 -8.215,4.97 -13.485,9.62 -14.449,12.75 -26.234,24.25 -35.281,25.08 -18.707,1.7 -39.961,-24.23 -39.961,-24.23" /><path
         id="path96"
         style="fill:#ffffff;fill-opacity:1;fill-rule:nonzero;stroke:none"
         d="m 907.641,3016.84 c -95.493,-34.29 -127.18,48.18 -127.18,48.18 16.004,11.92 34.152,17.76 51.762,17.51 24.57,-0.35 48.082,-12.59 63.16,-36.69 5.183,-8.26 9.363,-17.93 12.258,-29" /><path
         id="path98"
         style="fill:#371422;fill-opacity:1;fill-rule:nonzero;stroke:none"
         d="m 780.461,3065.02 c 0,0 37.25,19.67 73.738,6.98 36.492,-12.69 55.27,-56.32 55.27,-55.53 0,0.8 -5.559,47.86 -42.313,66.64 -36.758,18.77 -70.265,0.59 -86.695,-18.09" /><path
         id="path100"
         style="fill:#371422;fill-opacity:1;fill-rule:nonzero;stroke:none"
         d="m 895.383,3045.84 c -3.133,-6.28 -18.449,-32.3 -51.461,-17.12 -22.297,10.24 -23.899,38.92 -11.699,53.81 24.57,-0.35 48.082,-12.59 63.16,-36.69" /><path
         id="path102"
         style="fill:#f25260;fill-opacity:1;fill-rule:nonzero;stroke:none"
         d="m 930.863,2988.49 c 0.996,0.22 -34.617,12.9 -47.851,17.31 -13.239,4.41 -22.403,-8.83 -15.614,-24.78 6.786,-15.95 30.204,-24.43 30.204,-24.43 0,0 -20.805,16.09 -19.278,33.47 0.285,3.23 3.313,5.47 6.496,4.9 12.211,-2.23 34.118,-9.09 46.043,-6.47" /><path
         id="path104"
         style="fill:#f25260;fill-opacity:1;fill-rule:nonzero;stroke:none"
         d="m 921.117,3062.5 c 0.031,1.08 13.578,-37.33 -5.086,-73.64 -4.078,1.25 -11.476,4.08 -11.476,4.08 0,0 15.207,19.67 16.562,69.56" /><path
         id="path106"
         style="fill:#f25260;fill-opacity:1;fill-rule:nonzero;stroke:none"
         d="m 734.313,2492.27 c 0.792,3.98 -17.372,139.82 -12.754,169.81 3.187,20.72 98.05,78.92 117.984,96.46 17.535,3.98 19.93,-34.29 -23.918,-69.36 -12.676,-10.14 -21.547,-17.21 -27.922,-22.48 -12.855,-10.64 -19.734,-26.83 -18.469,-43.46 2.86,-37.56 7.329,-83.93 7.329,-83.93 l -42.25,-47.04" /><path
         id="path108"
         style="fill:#fab5b1;fill-opacity:1;fill-rule:nonzero;stroke:none"
         d="m 943.359,2583.16 c -5.336,-12.87 -18.093,-18.59 -27.504,-21.11 -6.347,-1.71 -11.183,-1.94 -11.183,-1.94 0,0 3.723,-43.87 -28.25,-93.7 -31.988,-49.84 -41.656,-74.39 -52.817,-101.17 C 812.461,2338.47 688.246,2026.09 616.109,1910.08 543.961,1794.05 500.824,1706.29 358.027,1721.9 215.23,1737.54 205.254,1937.2 286,2025.12 c 104.25,113.52 388.297,349.6 426.969,426.24 34.125,67.63 27.601,122.71 23.883,178.49 -3.715,55.78 -10.344,106.63 13.125,125.87 53.554,43.88 126.445,81.06 126.445,81.06 8.172,-6.68 8.172,-27.51 -2.984,-41.65 -11.157,-14.13 -65.45,-41.64 -79.575,-62.47 -14.129,-20.83 -5.953,-51.32 -5.953,-51.32 0,0 23.801,19.33 43.137,15.61 4.191,-0.8 7.687,-2.06 10.594,-3.55 10.468,-5.34 13.214,-13.54 13.214,-13.54 0,0 0,0 0.008,0.01 0.688,0.41 21.77,13.24 34.942,5.19 2.793,-1.71 5.129,-3.56 7.082,-5.45 7.41,-7.16 9.273,-14.63 9.273,-14.63 0,0 19.336,1.49 26.778,-7.44 7.445,-8.93 19.335,-52.8 10.421,-74.38" /><path
         id="path110"
         style="fill:#f25260;fill-opacity:1;fill-rule:nonzero;stroke:none"
         d="m 854.855,2679.86 c 0,0 -27.644,-6.22 -32.289,-31.37 -6.214,24.05 6.965,37.77 19.075,44.91 10.468,-5.34 13.214,-13.54 13.214,-13.54" /><path
         id="path112"
         style="fill:#f25260;fill-opacity:1;fill-rule:nonzero;stroke:none"
         d="m 906.16,2664.98 c 0,0 -22.015,-8 -30.992,-18.56 -8.969,-10.56 -11.086,-33.25 -11.086,-31.66 0,1.58 -6.324,22.7 2.117,41.15 4.324,9.46 18.172,17.8 30.688,23.7 7.41,-7.16 9.273,-14.63 9.273,-14.63" /><path
         id="path114"
         style="fill:#f25260;fill-opacity:1;fill-rule:nonzero;stroke:none"
         d="m 913.164,2587.32 2.691,-25.27 c -6.347,-1.71 -11.183,-1.94 -11.183,-1.94 l -5.762,66.78 12.149,-22.16 12.132,23.74 -6.859,-31.13 16.359,-14.25 -19.527,4.23" /><path
         id="path116"
         style="fill:#166eac;fill-opacity:1;fill-rule:nonzero;stroke:none"
         d="m 551.578,3243.8 c -13.258,15.84 -31.808,26.77 -52.113,32.67 -26.656,7.77 -56.34,6.89 -81.024,-2.83 -26.336,-10.38 -48.855,-29.13 -66.492,-51.27 -13.449,-16.88 -24.386,-36.11 -29.351,-57.11 -4.965,-21 -3.598,-43.9 6.281,-63.08 15.922,-30.93 56.672,-61.71 77.492,-20.29 7.168,14.26 2.828,32.56 -6.863,46.96 -19.528,29.02 -12.063,57.25 21.605,84.5 31.039,25.12 85.602,2.02 98.793,-31.76 12.063,-30.88 -15.492,-85.26 -19.816,-116.7 -4.68,-33.98 -5.445,-65.09 5.515,-98.02 3.782,-11.35 10.833,-22.08 21.333,-27.79 10.503,-5.72 24.734,-5.34 33.457,2.83 7.418,6.96 9.66,18.11 8.226,28.18 -2.766,19.54 -15.031,36.43 -18.644,56.17 -3.614,19.71 -3.497,40.13 0.597,59.76 6.594,31.59 23.02,61.29 23.637,93.55 0.441,23.19 -7.75,46.44 -22.633,64.23" /><path
         id="path118"
         style="fill:#166eac;fill-opacity:1;fill-rule:nonzero;stroke:none"
         d="m 546.445,2897.45 c -8.027,-11.59 -5.629,-27.76 3.836,-37.82 10.102,-10.73 25.563,-12.62 38.11,-4.96 23.761,14.52 14.461,40.55 -2.793,51.36 -12.02,7.53 -27.899,7.68 -39.153,-8.58" /><path
         id="path120"
         style="fill:#166eac;fill-opacity:1;fill-rule:nonzero;stroke:none"
         d="m 1239.5,3884.63 c 0.6,20.65 -6.03,41.13 -17.3,59.03 -14.79,23.49 -37.58,42.54 -62.49,51.64 -26.59,9.72 -55.88,10.64 -83.77,5.78 -21.26,-3.71 -42.2,-10.83 -59.86,-23.24 -17.642,-12.42 -31.818,-30.45 -37.158,-51.36 -8.617,-33.71 1.445,-83.77 44.508,-66.61 14.82,5.91 23.72,22.49 26.03,39.69 4.65,34.67 28.97,50.83 72.23,48.87 39.9,-1.8 65.38,-55.3 52.83,-89.31 -11.47,-31.11 -68.16,-53.5 -92.27,-74.15 -26.04,-22.31 -47.26,-45.08 -60.92,-77 -4.7,-10.99 -6.55,-23.69 -2.48,-34.94 4.06,-11.25 14.95,-20.41 26.9,-20.08 10.17,0.28 19.25,7.13 24.86,15.61 10.9,16.46 12.93,37.24 23.33,54.4 10.38,17.15 24.01,32.34 40.1,44.31 25.9,19.25 57.89,30.57 79.76,54.3 15.73,17.05 25.03,39.88 25.7,63.06" /><path
         id="path122"
         style="fill:#166eac;fill-opacity:1;fill-rule:nonzero;stroke:none"
         d="m 1005.81,3628.95 c -13.697,-3.34 -22.626,-17.03 -22.224,-30.84 0.434,-14.73 10.75,-26.41 25.214,-28.99 27.42,-4.92 37.73,20.73 32,40.26 -4,13.61 -15.78,24.25 -34.99,19.57" /><path
         id="path124"
         style="fill:#166eac;fill-opacity:1;fill-rule:nonzero;stroke:none"
         d="m 1808.16,3190.17 c 8.64,18.77 10.56,40.21 7.2,61.09 -4.41,27.41 -17.92,53.85 -37.28,71.99 -20.66,19.36 -47.25,31.67 -74.82,38.11 -21.01,4.92 -43.07,6.56 -64.18,2.05 -21.1,-4.51 -41.2,-15.55 -54.3,-32.7 -21.13,-27.64 -31.47,-77.65 14.87,-78.71 15.96,-0.37 30.63,11.39 39.49,26.32 17.86,30.08 46.56,35.43 85.61,16.68 36,-17.28 38.5,-76.47 13.63,-102.87 -22.73,-24.13 -83.66,-22.53 -113.93,-32.1 -32.71,-10.33 -61.14,-22.96 -86.2,-46.98 -8.64,-8.28 -15.31,-19.25 -15.97,-31.18 -0.67,-11.95 5.77,-24.64 16.89,-29.02 9.47,-3.72 20.5,-0.97 28.99,4.64 16.47,10.87 26.48,29.19 42.76,40.92 16.27,11.71 34.76,20.35 54.26,25.06 31.36,7.58 65.24,5.47 94.65,18.73 21.14,9.54 38.64,26.91 48.33,47.97" /><path
         id="path126"
         style="fill:#166eac;fill-opacity:1;fill-rule:nonzero;stroke:none"
         d="m 1493.02,3046.4 c -13.91,2.29 -27.49,-6.81 -32.52,-19.67 -5.37,-13.72 -0.45,-28.5 11.84,-36.55 23.31,-15.25 42.84,4.3 45.21,24.53 1.65,14.08 -5.02,28.49 -24.53,31.69" /><path
         id="path128"
         style="fill:#166eac;fill-opacity:1;fill-rule:nonzero;stroke:none"
         d="m 6841.89,3325.63 c 0.5,21.68 -6.59,43.15 -18.53,61.87 -15.68,24.58 -39.72,44.43 -65.94,53.84 -27.98,10.04 -58.74,10.82 -88,5.54 -22.29,-4.02 -44.24,-11.63 -62.7,-24.78 -18.45,-13.14 -33.22,-32.17 -38.7,-54.16 -8.84,-35.44 2.03,-87.95 47.15,-69.65 15.52,6.29 24.77,23.75 27.08,41.82 4.67,36.44 30.11,53.57 75.55,51.78 41.9,-1.65 68.99,-57.66 56.03,-93.46 -11.85,-32.74 -71.25,-56.6 -96.43,-78.43 -27.21,-23.59 -49.35,-47.63 -63.49,-81.23 -4.87,-11.57 -6.73,-24.92 -2.39,-36.7 4.34,-11.79 15.83,-21.34 28.38,-20.92 10.68,0.36 20.16,7.61 26,16.55 11.35,17.35 13.35,39.17 24.15,57.26 10.8,18.07 25.02,34.11 41.84,46.77 27.07,20.38 60.6,32.47 83.42,57.52 16.4,18 26.02,42.03 26.58,66.38" /><path
         id="path130"
         style="fill:#166eac;fill-opacity:1;fill-rule:nonzero;stroke:none"
         d="m 6598.11,3055.69 c -14.36,-3.6 -23.66,-18.02 -23.14,-32.52 0.54,-15.46 11.45,-27.66 26.65,-30.28 28.82,-4.99 39.49,22 33.35,42.48 -4.29,14.26 -16.72,25.37 -36.86,20.32" /><path
         id="path132"
         style="fill:#371422;fill-opacity:1;fill-rule:nonzero;stroke:none"
         d="m 6082.47,0 v 776 h 57.27 L 6297.43,0 h 546.47 l -277.44,1251.41 -916.27,-5.73 -131.08,-52.77 L 5551.77,0 h 530.7" /><path
         id="path134"
         style="fill:#240f17;fill-opacity:1;fill-rule:nonzero;stroke:none"
         d="m 5907.66,781.801 c 101.68,0 203.4,0.597 305.08,-0.5 29.16,-0.309 58.31,-1.192 87.47,-1.469 10.72,-0.09 10.69,-16.551 -0.04,-16.652 -50.87,-0.469 -101.72,-1.578 -152.6,-1.68 -50.86,-0.098 -101.71,-0.281 -152.56,-0.281 h -87.53 c -13.25,0 -13.08,20.582 0.18,20.582" /><path
         id="path136"
         style="fill:#240f17;fill-opacity:1;fill-rule:nonzero;stroke:none"
         d="M 6247.03,601.641 C 6269.48,502.102 6370.23,36 6379.09,0 h 19.01 c -9.98,43.8398 -78.3,377.18 -102.02,476.441 -23.73,99.258 -49.03,198.118 -73.05,297.309 -2.28,9.422 -16.71,5.41 -14.49,-3.988 13.14,-55.973 25.84,-112.043 38.49,-168.121" /><path
         id="path138"
         style="fill:#240f17;fill-opacity:1;fill-rule:nonzero;stroke:none"
         d="m 6029.38,0 c 0.18,81.1719 0.11,209.672 0.16,290.832 0.06,102.418 0.25,204.848 -0.43,307.277 -0.38,57.86 -1.19,115.723 -1.41,173.571 -0.04,12.379 -19.19,12.32 -19.24,-0.078 -0.4,-102.872 -1.61,-205.731 -1.72,-308.602 -0.08,-102.43 -0.09,-204.871 -0.04,-307.289 0.02,-36.129 0.05,-119.5821 0.1,-155.711 h 22.58" /><path
         id="path140"
         style="fill:#f68a82;fill-opacity:1;fill-rule:nonzero;stroke:none"
         d="m 5384.52,2217.32 c 0,0 -221.99,-566.28 -174.42,-631.97 47.57,-65.68 233.31,-63.42 294.47,70.23 61.16,133.64 197.07,516.44 197.07,516.44 l -317.12,45.3" /><path
         id="path142"
         style="fill:#764cab;fill-opacity:1;fill-rule:nonzero;stroke:none"
         d="m 5841.35,2309.52 c -35.8,-57.31 -153.44,-206.11 -214.28,-282.2 -22.47,-28.08 -37.19,-46.26 -37.19,-46.26 l -357.53,188.18 c 0,0 11.31,16.49 29.66,42.91 59.12,85.12 156.68,231.63 215.06,304.61 88.12,110.14 189.45,121.89 189.45,121.89 100.28,-4.49 267.13,-181.38 174.83,-329.13" /><path
         id="path144"
         style="fill:#5c3d97;fill-opacity:1;fill-rule:nonzero;stroke:none"
         d="m 5627.07,2024.07 c -22.47,-28.09 -37.19,-46.27 -37.19,-46.27 l -357.53,188.18 c 0,0 11.31,16.49 29.66,42.91 68.27,-33.49 252.32,-127.25 365.06,-184.82" /><path
         id="path146"
         style="fill:#f68a82;fill-opacity:1;fill-rule:nonzero;stroke:none"
         d="m 6909.79,1769.05 c -16.08,-51.97 -70.78,-68.96 -122.08,-50.37 -47.63,17.27 -254.76,341.05 -254.76,341.05 l 275.1,169.14 94.24,-131.43 c 43.37,-71.61 73.19,-116.06 52.86,-181.78 l -45.36,-146.61" /><path
         id="path148"
         style="fill:#764cab;fill-opacity:1;fill-rule:nonzero;stroke:none"
         d="m 6853.22,2242.89 c 14.3,-18.2 19.73,-24.61 21.62,-26.55 L 6506.16,1965.2 c 0,0 5.25,-8.21 -22.96,28.55 -2.9,3.78 -5.9,7.7 -8.99,11.73 -83.88,109.5 -234.47,307.18 -251.73,337.86 -24.08,42.79 26.74,303.6 254.11,291.57 0,0 60.19,-5.36 141.77,-100.32 54.55,-63.48 161.67,-198.67 226.71,-281.34 2.79,-3.55 5.53,-7.01 8.15,-10.36" /><path
         id="path150"
         style="fill:#5c3d97;fill-opacity:1;fill-rule:nonzero;stroke:none"
         d="m 6853.22,2242.89 c 14.3,-18.2 19.73,-24.61 21.62,-26.55 L 6506.16,1965.2 c 0,0 5.25,-8.21 -22.96,28.55 -2.9,3.78 -5.9,7.7 -8.99,11.73 l 370.86,247.77 c 2.79,-3.55 5.53,-7.01 8.15,-10.36" /><path
         id="path152"
         style="fill:#fab5b1;fill-opacity:1;fill-rule:nonzero;stroke:none"
         d="m 7090.12,2673.37 c 0,0 -263.93,-603.62 -305.76,-685.62 -36.73,-71.97 -86.18,-248.72 35.95,-282.66 137.99,-38.35 218.08,39.35 274.69,204.18 47,139.55 92.54,362.82 120.45,712.42 -45.54,16.16 -125.33,51.68 -125.33,51.68" /><path
         id="path154"
         style="fill:#fab5b1;fill-opacity:1;fill-rule:nonzero;stroke:none"
         d="m 7286.28,2694.46 c 0,0 74.14,55.99 90.82,64.33 16.68,8.34 24.33,-11.12 15.29,-19.46 -9.03,-8.34 -126.17,-132.65 -203.33,-141.68 -77.16,-9.04 -123.54,41.09 -128.4,83.29 -4.8,41.72 5.03,63.95 31.44,86.19 26.42,22.24 30.59,36.15 29.9,44.49 -0.7,8.34 -6.26,56.3 -0.7,63.26 5.56,6.95 21.55,2.08 30.58,-13.91 9.04,-15.98 24.34,-50.04 1.4,-90.36 59.78,70.21 130.68,129.29 140.41,129.29 9.73,0 18.77,-11.12 10.43,-22.94 -8.35,-11.81 -106.59,-109.07 -106.59,-109.07 l 10.43,-9.04 c 0,0 133.69,113.94 143.42,113.94 9.73,0 18.77,-11.12 13.9,-20.85 -4.86,-9.73 -126.19,-117.54 -126.19,-117.54 l 9.73,-7.65 c 0,0 112.9,96.8 127.95,98.95 7.41,1.06 19.1,-9.91 10.06,-22.42 -9.03,-12.51 -109.13,-99.96 -109.13,-99.96 l 8.58,-8.86" /><path
         id="path156"
         style="fill:#f68a82;fill-opacity:1;fill-rule:nonzero;stroke:none"
         d="m 7290.58,2688.48 c 0,0 -34.31,8.68 -74.81,-6.2 -40.51,-14.88 -62.42,-26.87 -62.42,-26.87 0,0 40.93,39.68 -16.94,90.93 13.22,18.19 16.87,24.27 16.87,24.27 0,0 19.09,11.69 45.54,3.01 26.45,-8.67 84.32,-74.4 91.76,-85.14" /><path
         id="path158"
         style="fill:#f25260;fill-opacity:1;fill-rule:nonzero;stroke:none"
         d="m 7194.77,2781.97 c 19.86,-11.64 37.93,-26.28 54.82,-41.85 16.77,-15.46 31.25,-33.22 45.14,-51.28 2.35,-3.06 -2.87,-7.2 -5.35,-4.2 -28.41,34.38 -64.44,61.33 -101.91,85.06 -7.74,4.9 -0.67,16.94 7.3,12.27" /><path
         id="path160"
         style="fill:#f25260;fill-opacity:1;fill-rule:nonzero;stroke:none"
         d="m 7132.47,2746.9 c 4.67,6.66 10.6,12.33 15.36,18.93 2.05,2.83 6.84,0.16 4.77,-2.71 -3.9,-5.41 -6.96,-11.38 -10.61,-16.94 13.14,-8.26 23.23,-22.49 26.5,-37.53 4.07,-18.77 -0.56,-37.59 -12.5,-52.51 -4.45,-5.56 -13.63,1.7 -9.81,7.62 8.1,12.6 12.07,28.15 9.01,43.02 -2.96,14.43 -10.77,25.86 -22.05,35.11 -1.3,1.07 -1.65,3.62 -0.67,5.01" /><path
         id="path162"
         style="fill:#764cab;fill-opacity:1;fill-rule:nonzero;stroke:none"
         d="m 6874.84,2216.34 0.45,0.3 c 0,0 1.33,-2.12 -0.45,-0.3" /><path
         id="path164"
         style="fill:#764cab;fill-opacity:1;fill-rule:nonzero;stroke:none"
         d="M 6587.88,1192.91 H 5519.11 c 0,0 17.5,1061.03 17.5,1169.19 0,205.26 50.91,262.48 141.58,278.38 36.7,6.44 94.67,11.83 135.11,15.1 26.89,2.16 46.04,3.41 46.04,3.41 L 6236,2656.7 c 0,0 19.72,-0.1 58.69,-1.3 30.45,-0.95 72.65,-2.58 126.38,-5.37 122.48,-6.36 127.26,-74.77 128.85,-125.66 1.59,-50.91 37.96,-1331.46 37.96,-1331.46" /><path
         id="path166"
         style="fill:#5c3d97;fill-opacity:1;fill-rule:nonzero;stroke:none"
         d="m 6294.69,2655.4 c -46.26,-54.1 -127.06,-122.96 -245.72,-215.81 -115.98,75.2 -199.23,167.06 -235.67,215.99 26.89,2.16 46.04,3.41 46.04,3.41 L 6236,2656.7 c 0,0 19.72,-0.1 58.69,-1.3" /><path
         id="path168"
         style="fill:#764cab;fill-opacity:1;fill-rule:nonzero;stroke:none"
         d="m 6874.84,2216.34 0.45,0.3 c 0,0 1.33,-2.12 -0.45,-0.3" /><path
         id="path170"
         style="fill:#5c3d97;fill-opacity:1;fill-rule:nonzero;stroke:none"
         d="m 5534.34,2326.62 c -0.72,27.4 -1.07,54.78 -1.22,82.19 -0.04,8.27 -12.81,8.36 -12.86,0.07 -0.26,-48.22 -1.72,-96.36 -2.63,-144.55 -0.92,-48.18 -0.8,-96.36 -0.98,-144.54 -0.1,-27.4 -0.17,-54.81 -0.14,-82.21 0.02,-13.1 20.34,-12.99 20.36,0.13 0.13,96.29 -0.02,192.63 -2.53,288.91" /><path
         id="path172"
         style="fill:#5c3d97;fill-opacity:1;fill-rule:nonzero;stroke:none"
         d="m 6559.66,2332.08 c -0.33,30.31 -0.59,60.63 -0.88,90.95 -0.11,10.72 -16.55,10.72 -16.66,0 -1.03,-107.63 -2.68,-215.25 -2.61,-322.87 0.02,-30.33 -0.03,-60.64 0.58,-90.96 0.27,-13.35 20.45,-13.2 20.72,0.14 2.16,107.53 0.02,215.2 -1.15,322.74" /><path
         id="path174"
         style="fill:#f68a82;fill-opacity:1;fill-rule:nonzero;stroke:none"
         d="m 5923.75,1968.02 c 0,0 62,102.73 99.19,125.76 37.2,23.02 88.56,23.02 109.81,35.42 21.26,12.39 62,40.73 69.08,30.11 7.09,-10.63 -12.4,-49.59 -42.51,-69.08 -30.11,-19.48 -235.57,-122.21 -235.57,-122.21" /><path
         id="path176"
         style="fill:#fab5b1;fill-opacity:1;fill-rule:nonzero;stroke:none"
         d="m 5939.02,1981.82 c 0,0 -530.03,-195.02 -625.57,-235.97 -95.55,-40.95 -126.74,-148.18 -91.64,-216.43 35.09,-68.25 103.21,-109.48 196.93,-87.74 134.54,31.19 581.71,412.44 611.93,427.06 30.23,14.62 98.46,17.55 155.01,31.19 56.54,13.65 117.63,54.27 117.71,67.29 -11.67,4.44 -50.57,-15.85 -82.72,-25.16 -32.13,-9.31 -66.81,-11.85 -67.66,-7.62 24.53,12.7 141.25,67.67 175.09,92.2 6.76,10.15 -1.7,20.3 -11,19.45 -6.85,-0.62 -181.01,-67.66 -181.01,-67.66 l 3.39,10.99 c 0,0 151.4,66.82 159.86,71.05 20.29,16.07 5.07,23.69 -22.84,19.46 -27.91,-4.24 -138.71,-40.6 -161.55,-46.52 10.15,23.68 134.21,59.77 139.56,65.13 5.92,5.91 20.3,27.91 -11,23.68 -31.29,-4.23 -149.71,-34.68 -198.76,-62.59 -40.78,-23.2 -105.73,-77.81 -105.73,-77.81" /><path
         id="path178"
         style="fill:#fab5b1;fill-opacity:1;fill-rule:nonzero;stroke:none"
         d="m 6236,2656.7 c -74.65,-82.68 -189.48,-164.22 -189.48,-164.22 0,0 -103.36,60.86 -187.18,166.51 48.23,0 59.71,18.38 63.16,43.64 1.65,12.09 1.19,55.42 0.27,97.35 -1,45.75 -2.56,89.83 -2.56,89.83 l 243.43,13.78 c 0,0 0.33,-47.32 0.83,-95.01 0.41,-40.23 0.94,-80.71 1.48,-93.32 2.29,-53.97 26.41,-60.86 70.05,-58.56" /><path
         id="path180"
         style="fill:#f68a82;fill-opacity:1;fill-rule:nonzero;stroke:none"
         d="m 6164.47,2808.58 c -32.07,-25.73 -75.25,-46.48 -116.8,-48.54 -66.61,-3.43 -98.15,24.14 -124.9,39.94 -1,45.75 -2.56,89.83 -2.56,89.83 l 243.43,13.78 c 0,0 0.33,-47.32 0.83,-95.01" /><path
         id="path182"
         style="fill:#371422;fill-opacity:1;fill-rule:nonzero;stroke:none"
         d="m 5803.48,3076.81 c 0,0 -44.56,346.9 -40.84,349.58 3.72,2.68 27.78,-20 27.78,-20 0,0 -2.79,31.67 -0.56,33.89 2.23,2.22 27.77,-26.67 27.77,-26.67 0,0 1.56,35.6 5.04,36.35 5.22,1.11 23.29,-30.24 23.29,-30.24 0,0 9.25,35.62 12.37,37.4 3.12,1.79 19.3,-33.51 19.3,-33.51 0,0 12.54,38.04 16.27,38.74 3.73,0.7 23.17,-35.96 23.17,-35.96 0,0 17.1,34.38 22.18,35.92 3.49,1.07 22.89,-41.82 22.89,-41.82 0,0 13.3,45.18 16.35,45.34 3.04,0.16 26.16,-40.86 26.16,-40.86 0,0 16.42,45.45 22.2,46.59 5.77,1.15 26.65,-44.72 26.65,-44.72 0,0 22.03,51.04 26.1,51.08 4.09,0.05 23.12,-50.34 23.12,-50.34 0,0 25.37,43.26 28.35,43.63 2.98,0.38 12.3,-40.64 12.3,-40.64 0,0 23.5,40.27 25.74,41.02 2.23,0.74 10.81,-42.89 10.81,-42.89 0,0 18.27,42.51 21.63,41.76 4.73,-1.05 14.17,-43.25 14.17,-43.25 0,0 18.27,36.92 21.26,37.66 2.98,0.75 14.91,-39.53 14.91,-39.53 0,0 17.88,35.09 21.06,35.64 3.18,0.53 9.09,-41.81 9.09,-41.81 0,0 26.53,16.43 30.82,14.28 4.29,-2.14 -49.71,-324.26 -49.71,-324.26 L 6156.49,2978.1 h -261.08 l -91.93,98.71" /><path
         id="path184"
         style="fill:#fab5b1;fill-opacity:1;fill-rule:nonzero;stroke:none"
         d="m 5875.3,2980.21 c 0,0 -23.75,-16.66 -48.55,-13.32 -24.8,3.34 -55.36,24.36 -70.34,54.21 -14.98,29.86 -27.97,94.41 21.63,106.2 49.6,11.79 81.87,-72.71 87.74,-91.22 7.25,-22.87 9.52,-55.87 9.52,-55.87" /><path
         id="path186"
         style="fill:#f25260;fill-opacity:1;fill-rule:nonzero;stroke:none"
         d="m 5758.92,3081.12 c 2.21,12.24 10.49,22.69 23,25.33 13.67,2.89 23.87,-6.43 32.06,-16.08 9.83,-11.58 18.07,-24.51 24.24,-38.38 2.64,-5.94 -6.42,-9.56 -9.25,-3.84 -4.98,10.07 -10.66,19.73 -17.45,28.7 -5.57,7.36 -12.99,18.5 -22.96,19.75 -11.02,1.39 -19.29,-8.57 -21.37,-18.39 -2.39,-11.27 1.15,-22.95 5.15,-33.44 0.47,-1.23 -1.2,-2.41 -2.05,-1.25 -7.99,10.83 -13.86,23.82 -11.37,37.6" /><path
         id="path188"
         style="fill:#f25260;fill-opacity:1;fill-rule:nonzero;stroke:none"
         d="m 5793.89,3018.82 c 7.65,-9.9 23.01,-19.27 35.55,-20.62 3.9,-0.42 8.18,0.42 7.82,5.23 -0.23,3.13 -2.43,5.69 -4.78,7.51 -4.84,3.77 -10.97,5.51 -16.3,8.43 -10.74,5.9 -17.37,17.05 -13.77,29.42 3.28,11.25 15.48,18.93 27.08,16.31 5.83,-1.32 4.7,-9.65 -1.32,-9.22 -16.92,1.22 -22.45,-18.94 -8.08,-27.36 10.33,-6.06 24.68,-9.13 26.84,-23.11 0.88,-5.7 -1.07,-11.51 -6.09,-14.66 -5.47,-3.44 -12.24,-2.46 -18.11,-0.74 -6.44,1.9 -12.52,4.94 -17.93,8.92 -6.35,4.66 -10.19,10.57 -14.46,17.06 -1.58,2.4 1.74,5.17 3.55,2.83" /><path
         id="path190"
         style="fill:#f25260;fill-opacity:1;fill-rule:nonzero;stroke:none"
         d="m 5780.19,3059.87 c -0.46,16.3 8.99,30.61 26.41,31.63 6.35,0.38 7.62,-9.51 1.23,-9.85 -11.98,-0.64 -23.46,-8.93 -23.92,-21.73 -0.08,-2.09 -3.67,-2.17 -3.72,-0.05" /><path
         id="path192"
         style="fill:#fab5b1;fill-opacity:1;fill-rule:nonzero;stroke:none"
         d="m 6202.3,2980.21 c 0,0 23.75,-16.66 48.55,-13.32 24.8,3.34 55.37,24.36 70.34,54.21 14.98,29.86 27.97,94.41 -21.63,106.2 -49.6,11.79 -81.87,-72.71 -87.73,-91.22 -7.25,-22.87 -9.53,-55.87 -9.53,-55.87" /><path
         id="path194"
         style="fill:#f25260;fill-opacity:1;fill-rule:nonzero;stroke:none"
         d="m 6318.68,3081.12 c -2.22,12.24 -10.5,22.69 -23.01,25.33 -13.65,2.89 -23.86,-6.43 -32.05,-16.08 -9.83,-11.58 -18.06,-24.51 -24.24,-38.38 -2.64,-5.94 6.42,-9.56 9.25,-3.84 4.98,10.07 10.67,19.73 17.45,28.7 5.57,7.36 12.99,18.5 22.95,19.75 11.03,1.39 19.3,-8.57 21.38,-18.39 2.38,-11.27 -1.15,-22.95 -5.15,-33.44 -0.47,-1.23 1.2,-2.41 2.05,-1.25 7.99,10.83 13.86,23.82 11.37,37.6" /><path
         id="path196"
         style="fill:#f25260;fill-opacity:1;fill-rule:nonzero;stroke:none"
         d="m 6283.71,3018.82 c -7.65,-9.9 -23.01,-19.27 -35.56,-20.62 -3.89,-0.42 -8.16,0.42 -7.81,5.23 0.23,3.13 2.43,5.69 4.78,7.51 4.84,3.77 10.97,5.51 16.31,8.43 10.73,5.9 17.36,17.05 13.76,29.42 -3.28,11.25 -15.48,18.93 -27.08,16.31 -5.83,-1.32 -4.7,-9.65 1.32,-9.22 16.92,1.22 22.45,-18.94 8.08,-27.36 -10.33,-6.06 -24.68,-9.13 -26.84,-23.11 -0.88,-5.7 1.07,-11.51 6.08,-14.66 5.49,-3.44 12.24,-2.46 18.12,-0.74 6.44,1.9 12.52,4.94 17.93,8.92 6.35,4.66 10.19,10.57 14.46,17.06 1.58,2.4 -1.73,5.17 -3.55,2.83" /><path
         id="path198"
         style="fill:#f25260;fill-opacity:1;fill-rule:nonzero;stroke:none"
         d="m 6297.42,3059.87 c 0.45,16.3 -9,30.61 -26.42,31.63 -6.35,0.38 -7.62,-9.51 -1.23,-9.85 11.98,-0.64 23.46,-8.93 23.93,-21.73 0.07,-2.09 3.66,-2.17 3.72,-0.05" /><path
         id="path200"
         style="fill:#fab5b1;fill-opacity:1;fill-rule:nonzero;stroke:none"
         d="m 6250.69,3174.67 c 0,0 -29.65,-208.5 -51.24,-258.01 -15.55,-35.69 -101.56,-94.28 -155.54,-94.28 -53.98,0 -147.2,50.61 -163.78,86.96 -23.79,52.15 -53.91,258.78 -53.91,258.78 l 9.68,5.87 c 21.86,13.26 37.63,34.57 43.9,59.35 l 4.57,18.05 c 0,0 137.83,-25.84 155.06,-25.84 17.23,0 151.47,29.43 151.47,29.43 l 3.05,-12.97 c 7.1,-30.21 28.18,-55.21 56.74,-67.34 v 0" /><path
         id="path202"
         style="fill:#f68a82;fill-opacity:1;fill-rule:nonzero;stroke:none"
         d="m 5890.98,2995.12 c 0,0 13.03,13.04 36.5,11.74 23.46,-1.31 37.8,-15.65 37.8,-15.65 l -74.3,3.91" /><path
         id="path204"
         style="fill:#f68a82;fill-opacity:1;fill-rule:nonzero;stroke:none"
         d="m 6184.2,2995.12 c 0,0 -13.03,13.04 -36.5,11.74 -23.46,-1.31 -37.8,-15.65 -37.8,-15.65 l 74.3,3.91" /><path
         id="path206"
         style="fill:#f25260;fill-opacity:1;fill-rule:nonzero;stroke:none"
         d="m 6053.24,2997.28 c -7.91,3.71 -26.42,14.53 -42.21,13.5 -10.67,-0.69 -3.81,-25.69 28.73,-32.88 -30.49,-1.09 -54.21,26.45 -43.69,37.02 11.34,11.38 47.21,-5.66 57.17,-17.64" /><path
         id="path208"
         style="fill:#f25260;fill-opacity:1;fill-rule:nonzero;stroke:none"
         d="m 6029.97,3079.01 c -0.24,1.49 18.84,-30.14 6.78,-72.34 -6.32,0.42 -11.78,2.13 -11.78,2.13 0,0 12.48,23.08 5,70.21" /><path
         id="path210"
         style="fill:#ffffff;fill-opacity:1;fill-rule:nonzero;stroke:none"
         d="m 5861.14,3091.68 c 0,0 12.35,-46.24 65.11,-59.43 48.95,-12.23 81.73,14.43 81.73,14.43 0.88,0.29 -6.56,19.35 -23.39,35.36 -7.97,7.58 -18.06,14.48 -30.37,18.38 -22.73,7.23 -42.56,6.99 -58,4.23 -21.97,-3.92 -35.08,-12.97 -35.08,-12.97" /><path
         id="path212"
         style="fill:#371422;fill-opacity:1;fill-rule:nonzero;stroke:none"
         d="m 5932.08,3048.8 c 34.09,-4.11 47.48,18.7 52.51,33.24 -7.97,7.58 -18.06,14.48 -30.37,18.38 -22.73,7.23 -42.56,6.99 -58,4.23 -1.55,-18.82 0.93,-51.64 35.86,-55.85" /><path
         id="path214"
         style="fill:#371422;fill-opacity:1;fill-rule:nonzero;stroke:none"
         d="m 6007.98,3046.68 c 0,0 -14.64,34.36 -60.11,47.27 -45.47,12.91 -86.73,-2.27 -86.73,-2.27 0,0 30.59,38.48 91.9,18.23 49.39,-16.31 54.94,-63.23 54.94,-63.23" /><path
         id="path216"
         style="fill:#f25260;fill-opacity:1;fill-rule:nonzero;stroke:none"
         d="m 6005.05,3089.07 c 0,0 -13.98,21.37 -41.92,30.82 -24.17,8.18 -50.55,7.4 -74.38,0.82 25.07,14.8 51.8,19.66 79.31,9.87 30,-10.69 36.99,-41.51 36.99,-41.51" /><path
         id="path218"
         style="fill:#371422;fill-opacity:1;fill-rule:nonzero;stroke:none"
         d="m 6011.17,3156.05 c 0,0 -16.4,-19.51 -22.99,-23.12 -19.47,-3.95 -112.71,2.61 -118.23,3 40.54,17.5 119.32,12.59 141.22,20.12" /><path
         id="path220"
         style="fill:#ffffff;fill-opacity:1;fill-rule:nonzero;stroke:none"
         d="m 6214.34,3086.13 c 0,0 -12.35,-46.24 -65.11,-59.43 -48.95,-12.23 -81.73,14.43 -81.73,14.43 -0.88,0.29 6.56,19.34 23.38,35.36 7.99,7.58 18.07,14.48 30.38,18.38 22.73,7.22 42.56,6.99 58,4.23 21.97,-3.92 35.08,-12.97 35.08,-12.97" /><path
         id="path222"
         style="fill:#371422;fill-opacity:1;fill-rule:nonzero;stroke:none"
         d="m 6143.39,3043.25 c -34.08,-4.11 -47.47,18.7 -52.51,33.24 7.99,7.58 18.07,14.48 30.38,18.38 22.73,7.22 42.56,6.99 58,4.23 1.55,-18.83 -0.93,-51.64 -35.87,-55.85" /><path
         id="path224"
         style="fill:#371422;fill-opacity:1;fill-rule:nonzero;stroke:none"
         d="m 6067.5,3041.13 c 0,0 14.63,34.36 60.11,47.27 45.47,12.91 86.73,-2.27 86.73,-2.27 0,0 -31.54,39.12 -92.86,18.88 -49.39,-16.3 -53.98,-63.88 -53.98,-63.88" /><path
         id="path226"
         style="fill:#f25260;fill-opacity:1;fill-rule:nonzero;stroke:none"
         d="m 6068.75,3089.07 c 0,0 13.96,21.37 41.91,30.82 24.17,8.18 50.55,7.4 74.38,0.82 -25.06,14.8 -52.4,22.43 -79.91,12.63 -30,-10.68 -36.38,-44.27 -36.38,-44.27" /><path
         id="path228"
         style="fill:#371422;fill-opacity:1;fill-rule:nonzero;stroke:none"
         d="m 6049.85,3143.21 c 0,0 7.27,-14.88 23.89,-20.77 15.13,-0.21 58.16,26.66 81.99,30.8 23.93,4.15 44.11,-10.55 44.11,-10.55 0,0 -23.87,29.83 -51.78,29.41 -27.92,-0.43 -55.15,-21.09 -74.25,-27.59 -11.1,-3.77 -23.96,-1.3 -23.96,-1.3" /><path
         id="path230"
         style="fill:#371422;fill-opacity:1;fill-rule:nonzero;stroke:none"
         d="m 5950.97,2948.02 67.85,-24.01 c 0,0 -7.17,24.05 -32.88,31.84 -17.22,5.22 -34.97,-7.83 -34.97,-7.83" /><path
         id="path232"
         style="fill:#f68a82;fill-opacity:1;fill-rule:nonzero;stroke:none"
         d="m 5944.3,2912.03 c 0,0 9.76,7.33 25.58,4 15.19,-3.2 15.58,-23.19 15.58,-23.19 0,0 -29.57,11.19 -41.16,19.19" /><path
         id="path234"
         style="fill:#ffffff;fill-opacity:1;fill-rule:nonzero;stroke:none"
         d="m 3824.68,3618.42 c 0,257.93 -258.13,377.89 -471.73,366.06 -283.17,-16.03 -443.14,-210.74 -413.61,-439.22 21.83,-191.41 157.17,-295.72 312.25,-327.98 12.45,-2.59 17.41,-17.77 8.8,-27.13 -36.17,-39.27 -81.89,-75.74 -138.88,-100.31 -8.58,-3.7 -6.36,-16.43 2.96,-17.03 76.7,-4.98 176.57,21.15 253.94,110.87 12.89,14.95 30.85,24.57 50.41,27.18 41.08,5.5 92.31,15.92 125.33,26.58 159.32,51.41 270.53,159.27 270.53,380.98" /><path
         id="path236"
         style="fill:#166eac;fill-opacity:1;fill-rule:nonzero;stroke:none"
         d="m 3519.31,3702.14 c -5.85,19.81 -18.52,37.22 -34.79,50.73 -21.36,17.74 -48.93,28.76 -75.44,29.67 -28.29,0.99 -56.41,-7.24 -81.42,-20.53 -19.05,-10.13 -36.75,-23.41 -49.67,-40.69 -12.92,-17.28 -20.79,-38.82 -19.37,-60.36 2.28,-34.71 27.4,-79.18 63,-49.48 12.25,10.22 15.56,28.74 12.41,45.81 -6.35,34.39 11.75,57.31 53.48,68.9 38.48,10.67 79.32,-32.25 77.96,-68.49 -1.24,-33.13 -48.17,-72.03 -64.67,-99.15 -17.83,-29.3 -30.92,-57.52 -33.99,-92.1 -1.05,-11.92 1.14,-24.57 8.5,-33.99 7.36,-9.43 20.55,-14.75 31.81,-10.73 9.58,3.43 16.08,12.76 18.78,22.57 5.24,19.03 0.72,39.4 5.27,58.95 4.54,19.52 12.78,38.2 24.36,54.57 18.63,26.35 45.52,47.05 58.95,76.39 9.64,21.09 11.39,45.69 4.83,67.93" /><path
         id="path238"
         style="fill:#166eac;fill-opacity:1;fill-rule:nonzero;stroke:none"
         d="m 3376.62,3386.5 c -11.98,-7.43 -16.22,-23.21 -11.55,-36.21 4.99,-13.86 18.42,-21.76 32.98,-19.73 27.58,3.85 29.42,31.43 17.89,48.22 -8.02,11.69 -22.52,18.15 -39.32,7.72" /><path
         id="path240"
         style="fill:#f68a82;fill-opacity:1;fill-rule:nonzero;stroke:none"
         d="m 1894.36,1673.6 c 0,0 65.9,4.52 167.46,96.57 101.56,92.04 209.47,234.86 209.47,234.86 l -280.88,180.91 -201.54,-171.39 105.49,-340.95" /><path
         id="path242"
         style="fill:#ffffff;fill-opacity:1;fill-rule:nonzero;stroke:none"
         d="m 2555.06,2333.91 c -17.9,-31.81 -179.13,-243.17 -260.72,-349.59 -28.21,-36.76 -46.89,-61.01 -46.89,-61.01 l -369.13,251.45 c 0,0 18.26,23.4 46,58.7 63.87,81.27 177.97,225.49 234.86,291.7 81.58,94.96 141.77,100.32 141.77,100.32 227.37,12.03 278.19,-248.78 254.11,-291.57" /><path
         id="path244"
         style="fill:#1d81cd;fill-opacity:1;fill-rule:nonzero;stroke:none"
         d="m 2294.34,1984.32 c -28.21,-36.76 -46.89,-61.01 -46.89,-61.01 l -369.13,251.45 c 0,0 18.26,23.4 46,58.7 l 370.02,-249.14" /><path
         id="path246"
         style="fill:#f68a82;fill-opacity:1;fill-rule:nonzero;stroke:none"
         d="m 3508.4,1677.22 c 0,0 -65.91,4.52 -167.47,96.56 -101.56,92.04 -209.47,234.86 -209.47,234.86 l 280.88,180.91 201.54,-171.39 -105.48,-340.94" /><path
         id="path248"
         style="fill:#ffffff;fill-opacity:1;fill-rule:nonzero;stroke:none"
         d="m 2847.69,2337.51 c 17.9,-31.81 179.13,-243.16 260.72,-349.59 28.21,-36.76 46.89,-61.01 46.89,-61.01 l 369.13,251.45 c 0,0 -18.25,23.41 -46,58.7 -63.87,81.27 -177.97,225.49 -234.86,291.7 -81.58,94.97 -141.77,100.32 -141.77,100.32 -227.37,12.04 -278.19,-248.77 -254.11,-291.57" /><path
         id="path250"
         style="fill:#1d81cd;fill-opacity:1;fill-rule:nonzero;stroke:none"
         d="m 3108.41,1987.92 c 28.21,-36.76 46.89,-61.01 46.89,-61.01 l 369.13,251.45 c 0,0 -18.25,23.41 -46,58.7 l -370.02,-249.14" /><path
         id="path252"
         style="fill:#1d81cd;fill-opacity:1;fill-rule:nonzero;stroke:none"
         d="m 3301.95,0 h -505.44 l -70.1,787.359 h -35.24 L 2615.4,0 h -522.08 l 83.56,1006.41 14.51,174.72 228.09,90.6 282.72,112.3 281.54,-113.86 220.12,-89.04 13.86,-166.97 L 3301.95,0" /><path
         id="path254"
         style="fill:#166eac;fill-opacity:1;fill-rule:nonzero;stroke:none"
         d="m 3217.72,1014.16 c -117.04,37.19 -207.22,134.69 -233.98,256.01 l 220.12,-89.04 13.86,-166.97" /><path
         id="path256"
         style="fill:#166eac;fill-opacity:1;fill-rule:nonzero;stroke:none"
         d="m 2419.48,1271.73 -47.23,-115.6 c -33.59,-82.21 -108.77,-138.88 -195.37,-149.72 l 14.51,174.72 228.09,90.6" /><path
         id="path258"
         style="fill:#166eac;fill-opacity:1;fill-rule:nonzero;stroke:none"
         d="m 2903.31,794.492 c -24.09,0.797 -48.32,0.078 -72.42,0.047 -23.73,-0.027 -47.45,-0.008 -71.17,-0.109 -47.85,-0.2 -95.71,-0.41 -143.56,-0.61 -27.47,-0.129 -54.93,-0.25 -82.4,-0.359 -15.12,-0.063 -14.89,-23.563 0.25,-23.5 95.71,0.418 191.42,0.687 287.12,1.41 27.42,0.199 54.99,-0.41 82.38,0.738 14.41,0.602 14.2,21.903 -0.2,22.383" /><path
         id="path260"
         style="fill:#166eac;fill-opacity:1;fill-rule:nonzero;stroke:none"
         d="m 2646.25,781.859 c -7.18,-61.847 -14.36,-123.687 -21.38,-185.539 -12.53,-110.16 -25.08,-220.3 -36.34,-330.59 -5.63,-54.941 -10.82,-109.91 -15.85,-164.91 -3.07,-33.5778 -5.63,-67.2184 -8.49,-100.82 h -23.11 c 3,40.3398 6.93,80.6211 10.67,120.832 10.29,110.418 22.15,220.688 34.79,330.867 12.68,110.231 26.84,220.313 40.75,330.391 0.63,5.121 3.99,9.441 9.59,9.371 4.75,-0.059 9.96,-4.512 9.37,-9.602" /><path
         id="path262"
         style="fill:#166eac;fill-opacity:1;fill-rule:nonzero;stroke:none"
         d="m 2872.65,0 h -23.1 c -2.85,33.6016 -5.41,67.2422 -8.48,100.82 -5.03,55 -10.22,109.969 -15.85,164.91 -11.28,110.29 -23.83,220.43 -36.34,330.59 -7.04,61.852 -14.2,123.692 -21.38,185.539 -0.59,5.09 4.61,9.543 9.36,9.602 5.61,0.07 8.96,-4.25 9.6,-9.371 13.91,-110.078 28.07,-220.16 40.73,-330.391 C 2839.85,341.52 2851.71,231.25 2862,120.832 2865.74,80.6211 2869.66,40.3398 2872.65,0" /><path
         id="path264"
         style="fill:#ffffff;fill-opacity:1;fill-rule:nonzero;stroke:none"
         d="m 2511.37,2659.85 c 0,0 -136.51,-18.54 -210.42,-34.38 -93.62,-20.06 -109.56,-104.32 -109.56,-223.65 0,-97.98 0,-1220.69 0,-1220.69 h 1012.48 c 0,0 0,1242.46 0,1286.01 0,43.55 -23.14,142.89 -102.07,161.94 -78.93,19.05 -215.77,30.77 -215.77,30.77 h -374.66" /><path
         id="path266"
         style="fill:#e90f5e;fill-opacity:1;fill-rule:nonzero;stroke:none"
         d="m 2961.95,2198.58 c 0,0 -27.69,51.91 -55.51,27.52 -32.66,-28.62 22.01,-86.68 56.76,-115.3 46.57,42.78 85.95,96.61 60.41,115.77 -20.14,15.11 -47.35,8.82 -61.66,-27.99" /><path
         id="path268"
         style="fill:#bfeaec;fill-opacity:1;fill-rule:nonzero;stroke:none"
         d="m 2207,2143.56 c -0.2,58.6 -0.75,117.18 -1.57,175.78 -0.47,33.48 -0.85,66.96 -1.13,100.45 -0.1,10.85 -16.65,10.86 -16.75,-0.01 -0.98,-117.25 -3.82,-234.51 -2.39,-351.75 0.4,-33.48 0.92,-66.96 1.14,-100.44 0.09,-12.49 19.16,-12.41 19.25,0.09 0.4,58.63 1.65,117.25 1.45,175.88" /><path
         id="path270"
         style="fill:#bfeaec;fill-opacity:1;fill-rule:nonzero;stroke:none"
         d="m 3213.53,2143.56 c -0.2,58.6 -0.74,117.18 -1.57,175.78 -0.47,33.48 -0.85,66.96 -1.13,100.45 -0.09,10.85 -16.65,10.86 -16.74,-0.01 -0.98,-117.25 -3.83,-234.51 -2.4,-351.75 0.41,-33.48 0.92,-66.96 1.15,-100.44 0.08,-12.49 19.16,-12.41 19.24,0.09 0.4,58.63 1.65,117.25 1.45,175.88" /><path
         id="path272"
         style="fill:#fab5b1;fill-opacity:1;fill-rule:nonzero;stroke:none"
         d="m 3751.09,2712.37 c 0,0 -293.21,-680.52 -324.91,-766.71 -31.7,-86.18 -53.51,-230.6 82.22,-268.44 161.13,-44.93 217.53,44.94 254.79,215.18 33.68,135.71 78.29,448.38 131.53,779.36 -92.12,35.66 -143.63,40.61 -143.63,40.61" /><path
         id="path274"
         style="fill:#fab5b1;fill-opacity:1;fill-rule:nonzero;stroke:none"
         d="m 3990.24,2753.2 c 0,0 84.64,63.92 103.68,73.44 19.05,9.52 27.77,-12.69 17.46,-22.22 -10.32,-9.52 -144.05,-151.43 -232.13,-161.75 -88.08,-10.31 -141.04,46.91 -146.58,95.09 -5.49,47.63 5.74,73.01 35.89,98.4 30.16,25.4 34.92,41.27 34.13,50.79 -0.8,9.52 -7.15,64.28 -0.8,72.22 6.35,7.93 24.6,2.38 34.92,-15.87 10.31,-18.26 27.77,-57.14 1.58,-103.17 68.25,80.15 149.19,147.6 160.31,147.6 11.1,0 21.42,-12.7 11.9,-26.18 -9.53,-13.49 -121.68,-124.53 -121.68,-124.53 l 11.9,-10.32 c 0,0 152.63,130.09 163.74,130.09 11.11,0 21.43,-12.7 15.87,-23.81 -5.55,-11.11 -144.07,-134.19 -144.07,-134.19 l 11.11,-8.72 c 0,0 128.89,110.51 146.07,112.96 8.46,1.21 21.81,-11.32 11.49,-25.6 -10.31,-14.29 -124.59,-114.12 -124.59,-114.12 l 9.8,-10.11" /><path
         id="path276"
         style="fill:#f68a82;fill-opacity:1;fill-rule:nonzero;stroke:none"
         d="m 3995.15,2746.37 c 0,0 -39.17,9.91 -85.41,-7.08 -46.24,-16.99 -71.25,-30.67 -71.25,-30.67 0,0 46.71,45.3 -19.35,103.81 15.1,20.76 19.25,27.7 19.25,27.7 0,0 21.8,13.35 52,3.44 30.2,-9.91 96.26,-84.93 104.76,-97.2" /><path
         id="path278"
         style="fill:#f25260;fill-opacity:1;fill-rule:nonzero;stroke:none"
         d="m 3885.76,2853.1 c 22.68,-13.29 43.31,-30 62.59,-47.78 19.15,-17.64 35.68,-37.91 51.53,-58.54 2.68,-3.49 -3.27,-8.22 -6.11,-4.8 -32.43,39.26 -73.56,70.02 -116.33,97.11 -8.85,5.6 -0.78,19.34 8.32,14.01" /><path
         id="path280"
         style="fill:#f25260;fill-opacity:1;fill-rule:nonzero;stroke:none"
         d="m 3814.64,2813.06 c 5.33,7.61 12.11,14.08 17.54,21.61 2.34,3.24 7.81,0.18 5.45,-3.09 -4.46,-6.17 -7.95,-12.99 -12.12,-19.34 15,-9.43 26.52,-25.67 30.25,-42.84 4.65,-21.43 -0.63,-42.91 -14.27,-59.95 -5.08,-6.35 -15.55,1.94 -11.2,8.7 9.25,14.39 13.78,32.14 10.29,49.11 -3.38,16.48 -12.3,29.52 -25.17,40.09 -1.48,1.22 -1.88,4.13 -0.77,5.71" /><path
         id="path282"
         style="fill:#fab5b1;fill-opacity:1;fill-rule:nonzero;stroke:none"
         d="m 1651.66,2708.76 c 0,0 293.21,-680.53 324.91,-766.71 31.7,-86.17 53.51,-230.59 -82.21,-268.45 -161.14,-44.92 -217.54,44.95 -254.8,215.19 -33.68,135.71 -78.3,448.39 -131.53,779.36 92.12,35.66 143.63,40.61 143.63,40.61" /><path
         id="path284"
         style="fill:#fab5b1;fill-opacity:1;fill-rule:nonzero;stroke:none"
         d="m 1412.51,2749.59 c 0,0 -84.63,63.93 -103.68,73.45 -19.04,9.52 -27.78,-12.7 -17.46,-22.22 10.32,-9.53 144.05,-151.44 232.13,-161.75 88.09,-10.32 141.04,46.91 146.58,95.09 5.49,47.62 -5.73,73 -35.89,98.4 -30.16,25.39 -34.92,41.26 -34.13,50.78 0.8,9.53 7.15,64.29 0.8,72.22 -6.35,7.94 -24.6,2.38 -34.92,-15.87 -10.31,-18.25 -27.77,-57.14 -1.58,-103.16 -68.25,80.14 -149.19,147.6 -160.3,147.6 -11.11,0 -21.43,-12.7 -11.91,-26.19 9.52,-13.49 121.68,-124.53 121.68,-124.53 l -11.91,-10.31 c 0,0 -152.62,130.08 -163.73,130.08 -11.11,0 -21.42,-12.7 -15.87,-23.81 5.56,-11.11 144.07,-134.18 144.07,-134.18 l -11.11,-8.73 c 0,0 -128.89,110.51 -146.07,112.96 -8.46,1.21 -21.81,-11.31 -11.49,-25.6 10.32,-14.28 124.58,-114.12 124.58,-114.12 l -9.79,-10.11" /><path
         id="path286"
         style="fill:#f68a82;fill-opacity:1;fill-rule:nonzero;stroke:none"
         d="m 1407.6,2742.76 c 0,0 39.17,9.91 85.41,-7.08 46.25,-16.98 71.25,-30.67 71.25,-30.67 0,0 -46.71,45.3 19.35,103.81 -15.1,20.76 -19.25,27.71 -19.25,27.71 0,0 -21.8,13.35 -52,3.44 -30.2,-9.91 -96.26,-84.94 -104.76,-97.21" /><path
         id="path288"
         style="fill:#f25260;fill-opacity:1;fill-rule:nonzero;stroke:none"
         d="m 1516.99,2849.49 c -22.68,-13.28 -43.3,-30 -62.6,-47.78 -19.14,-17.64 -35.67,-37.91 -51.52,-58.53 -2.68,-3.5 3.28,-8.22 6.1,-4.8 32.44,39.26 73.57,70.01 116.35,97.1 8.84,5.6 0.76,19.34 -8.33,14.01" /><path
         id="path290"
         style="fill:#f25260;fill-opacity:1;fill-rule:nonzero;stroke:none"
         d="m 1588.12,2809.46 c -5.34,7.61 -12.11,14.08 -17.55,21.61 -2.33,3.23 -7.81,0.18 -5.45,-3.1 4.46,-6.17 7.95,-12.98 12.12,-19.34 -15,-9.43 -26.52,-25.67 -30.25,-42.83 -4.65,-21.43 0.63,-42.91 14.27,-59.96 5.08,-6.35 15.55,1.94 11.2,8.71 -9.25,14.38 -13.78,32.13 -10.29,49.1 3.38,16.48 12.3,29.52 25.17,40.1 1.49,1.21 1.88,4.13 0.78,5.71" /><path
         id="path292"
         style="fill:#f68a82;fill-opacity:1;fill-rule:nonzero;stroke:none"
         d="m 2884.16,2653.95 c 0,0 -41.82,-136.54 -185.46,-208.36 -103.73,57.19 -168.08,205.28 -168.08,205.28 0,0 35.68,12.38 42.33,41.63 3.48,15.25 4.05,68.4 3.8,115.82 -0.23,43.6 -1.14,82.35 -1.14,82.35 l 242.05,10.63 c 0,0 -0.3,-43.99 0.7,-91.72 1.08,-51.84 3.71,-108.07 9.95,-117.08 18.29,-26.43 55.85,-38.55 55.85,-38.55" /><path
         id="path294"
         style="fill:#f25260;fill-opacity:1;fill-rule:nonzero;stroke:none"
         d="m 2818.36,2809.58 c -33.41,-26.55 -74.09,-50.72 -112.41,-51.9 -48.77,-1.5 -96.69,26.2 -129.2,50.64 -0.23,43.6 -1.14,82.35 -1.14,82.35 l 242.05,10.63 c 0,0 -0.3,-43.99 0.7,-91.72" /><path
         id="path296"
         style="fill:#1d81cd;fill-opacity:1;fill-rule:nonzero;stroke:none"
         d="m 2698.7,2445.59 -125.74,257.89 -61.59,-43.63 -1.28,-182.19 71.85,38.49 c 0,0 -11.54,-39.77 24.38,-46.19 35.93,-6.42 92.38,-24.37 92.38,-24.37" /><path
         id="path298"
         style="fill:#1d81cd;fill-opacity:1;fill-rule:nonzero;stroke:none"
         d="m 2698.7,2445.59 125.74,257.89 61.59,-43.63 1.28,-182.19 -71.85,38.49 c 0,0 11.55,-39.77 -24.38,-46.19 -35.92,-6.42 -92.38,-24.37 -92.38,-24.37" /><path
         id="path300"
         style="fill:#1e0d13;fill-opacity:1;fill-rule:nonzero;stroke:none"
         d="m 2395.26,3244.87 c 0,0 50.26,-192.11 134.03,-231.2 327.25,0 354.05,0 354.05,0 0,0 82.66,161.95 84.89,217.79 -93.82,77.07 -318.32,218.92 -572.97,13.41" /><path
         id="path302"
         style="fill:#fab5b1;fill-opacity:1;fill-rule:nonzero;stroke:none"
         d="m 2526.84,2975.22 c 0,0 -23.75,-16.66 -48.55,-13.33 -24.8,3.34 -55.37,24.36 -70.34,54.22 -14.98,29.86 -27.97,94.41 21.63,106.2 49.6,11.79 81.87,-72.72 87.73,-91.22 7.26,-22.87 9.53,-55.87 9.53,-55.87" /><path
         id="path304"
         style="fill:#f25260;fill-opacity:1;fill-rule:nonzero;stroke:none"
         d="m 2410.46,3076.12 c 2.21,12.25 10.5,22.7 23,25.34 13.66,2.89 23.87,-6.43 32.06,-16.08 9.83,-11.58 18.06,-24.52 24.24,-38.39 2.64,-5.94 -6.42,-9.56 -9.25,-3.84 -4.98,10.07 -10.67,19.74 -17.45,28.71 -5.57,7.35 -12.99,18.49 -22.95,19.75 -11.03,1.39 -19.3,-8.57 -21.38,-18.39 -2.39,-11.27 1.15,-22.96 5.15,-33.44 0.47,-1.23 -1.2,-2.42 -2.05,-1.25 -7.99,10.83 -13.86,23.82 -11.37,37.59" /><path
         id="path306"
         style="fill:#f25260;fill-opacity:1;fill-rule:nonzero;stroke:none"
         d="m 2445.42,3013.82 c 7.66,-9.89 23.02,-19.26 35.56,-20.61 3.9,-0.42 8.18,0.41 7.82,5.23 -0.23,3.13 -2.43,5.68 -4.78,7.51 -4.85,3.76 -10.97,5.51 -16.31,8.43 -10.73,5.9 -17.36,17.05 -13.75,29.42 3.27,11.25 15.47,18.93 27.07,16.31 5.83,-1.32 4.7,-9.65 -1.32,-9.22 -16.92,1.21 -22.45,-18.94 -8.08,-27.36 10.33,-6.06 24.68,-9.13 26.84,-23.12 0.88,-5.7 -1.07,-11.5 -6.09,-14.65 -5.48,-3.44 -12.24,-2.46 -18.11,-0.74 -6.44,1.9 -12.52,4.94 -17.93,8.92 -6.35,4.66 -10.19,10.56 -14.46,17.06 -1.58,2.4 1.73,5.17 3.54,2.82" /><path
         id="path308"
         style="fill:#f25260;fill-opacity:1;fill-rule:nonzero;stroke:none"
         d="m 2431.72,3054.88 c -0.45,16.3 9,30.61 26.42,31.63 6.35,0.37 7.62,-9.51 1.24,-9.85 -11.99,-0.64 -23.47,-8.93 -23.94,-21.73 -0.07,-2.09 -3.66,-2.17 -3.72,-0.05" /><path
         id="path310"
         style="fill:#fab5b1;fill-opacity:1;fill-rule:nonzero;stroke:none"
         d="m 2476.96,3182.42 c 0,0 38.6,-230.77 62.1,-271.77 37.9,-66.12 111.34,-104.03 156.44,-107.25 67.75,-4.84 125.95,61.2 154.04,106.45 20.16,33.87 52.41,200.8 52.41,200.8 l -61.29,52.42 -5.64,54.03 h -249.19 l -108.87,-34.68" /><path
         id="path312"
         style="fill:#f68a82;fill-opacity:1;fill-rule:nonzero;stroke:none"
         d="m 2545.34,2990.38 c 0,0 13.03,13.04 36.5,11.73 23.46,-1.3 37.8,-15.64 37.8,-15.64 l -74.3,3.91" /><path
         id="path314"
         style="fill:#f68a82;fill-opacity:1;fill-rule:nonzero;stroke:none"
         d="m 2838.56,2990.38 c 0,0 -13.03,13.04 -36.5,11.73 -23.46,-1.3 -37.8,-15.64 -37.8,-15.64 l 74.3,3.91" /><path
         id="path316"
         style="fill:#371422;fill-opacity:1;fill-rule:nonzero;stroke:none"
         d="m 2727.92,2895.92 c -0.67,-7.58 -2.69,-14.83 -6.03,-20.56 -4.36,-7.49 -11,-12.39 -19.9,-12.09 -9.48,0.64 -16.09,5.45 -20.25,12.4 -3.49,5.77 -5.28,13.04 -5.65,20.6 -0.55,11.22 2.02,23.11 6.86,31.84 4.1,7.36 9.8,12.47 16.63,13.02 10.16,0.81 17.6,-4.65 22.35,-13.02 4.99,-8.83 6.98,-20.87 5.99,-32.19" /><path
         id="path318"
         style="fill:#ffffff;fill-opacity:1;fill-rule:nonzero;stroke:none"
         d="m 2721.92,2928.11 h -38.97 c 4.1,7.36 9.8,12.47 16.63,13.02 10.16,0.82 17.6,-4.65 22.34,-13.02" /><path
         id="path320"
         style="fill:#ef2c78;fill-opacity:1;fill-rule:nonzero;stroke:none"
         d="m 2721.89,2875.36 c -4.36,-7.49 -11,-12.39 -19.9,-12.09 -9.48,0.64 -16.09,5.45 -20.25,12.4 4.01,2.98 11.59,7.47 20.9,7.47 9.27,0 15.47,-4.1 19.25,-7.78" /><path
         id="path322"
         style="fill:#f25260;fill-opacity:1;fill-rule:nonzero;stroke:none"
         d="m 2665.39,3006.04 c 4.57,0.3 9.37,-0.46 14.07,-1.69 -0.02,-0.05 -0.13,-0.29 -0.13,-0.29 0,0 2.22,-0.65 5.33,-1.25 9.55,-3.25 18.18,-8.04 22.94,-10.27 -3.17,3.82 -9.09,8.08 -15.89,11.84 10.64,40.96 -7.61,71.35 -7.38,69.89 5.46,-34.39 0.3,-55.82 -2.89,-64.98 -12.24,4.9 -25.02,6.9 -31.01,0.89 -10.52,-10.57 13.2,-38.1 43.69,-37.02 -32.55,7.19 -39.41,32.19 -28.73,32.88" /><path
         id="path324"
         style="fill:#ffffff;fill-opacity:1;fill-rule:nonzero;stroke:none"
         d="m 2868.7,3081.4 c 0,0 -12.35,-46.25 -65.11,-59.44 -48.95,-12.23 -81.73,14.43 -81.73,14.43 -0.88,0.29 6.56,19.34 23.38,35.36 7.98,7.58 18.07,14.48 30.38,18.39 22.73,7.22 42.56,6.98 58,4.22 21.97,-3.92 35.08,-12.96 35.08,-12.96" /><path
         id="path326"
         style="fill:#371422;fill-opacity:1;fill-rule:nonzero;stroke:none"
         d="m 2797.75,3038.51 c -34.08,-4.11 -47.47,18.7 -52.51,33.24 7.98,7.58 18.07,14.48 30.38,18.39 22.73,7.22 42.56,6.98 58,4.22 1.55,-18.83 -0.93,-51.65 -35.87,-55.85" /><path
         id="path328"
         style="fill:#371422;fill-opacity:1;fill-rule:nonzero;stroke:none"
         d="m 2721.86,3036.39 c 0,0 14.63,34.36 60.11,47.27 45.47,12.91 86.73,-2.26 86.73,-2.26 0,0 -31.54,39.12 -92.86,18.87 -49.38,-16.31 -53.98,-63.88 -53.98,-63.88" /><path
         id="path330"
         style="fill:#f25260;fill-opacity:1;fill-rule:nonzero;stroke:none"
         d="m 2723.11,3084.33 c 0,0 13.97,21.37 41.91,30.82 24.17,8.18 50.55,7.4 74.38,0.82 -25.07,14.8 -52.4,22.43 -79.91,12.64 -30,-10.69 -36.38,-44.28 -36.38,-44.28" /><path
         id="path332"
         style="fill:#371422;fill-opacity:1;fill-rule:nonzero;stroke:none"
         d="m 2712.99,3151.31 c 0,0 16.39,-19.51 22.98,-23.12 19.48,-3.95 112.71,2.61 118.23,3 -40.53,17.5 -119.32,12.58 -141.21,20.12" /><path
         id="path334"
         style="fill:#ffffff;fill-opacity:1;fill-rule:nonzero;stroke:none"
         d="m 2515.5,3086.95 c 0,0 12.35,-46.25 65.11,-59.44 48.95,-12.23 81.73,14.43 81.73,14.43 0.88,0.29 -6.56,19.34 -23.38,35.36 -7.99,7.58 -18.07,14.48 -30.39,18.39 -22.73,7.22 -42.55,6.98 -57.99,4.22 -21.97,-3.92 -35.08,-12.96 -35.08,-12.96" /><path
         id="path336"
         style="fill:#371422;fill-opacity:1;fill-rule:nonzero;stroke:none"
         d="m 2586.45,3044.06 c 34.08,-4.1 47.47,18.7 52.51,33.24 -7.99,7.58 -18.07,14.48 -30.39,18.39 -22.73,7.22 -42.55,6.98 -57.99,4.22 -1.55,-18.83 0.93,-51.64 35.87,-55.85" /><path
         id="path338"
         style="fill:#371422;fill-opacity:1;fill-rule:nonzero;stroke:none"
         d="m 2662.34,3041.94 c 0,0 -14.63,34.36 -60.11,47.27 -45.47,12.91 -86.73,-2.26 -86.73,-2.26 0,0 30.58,38.47 91.9,18.22 49.39,-16.3 54.94,-63.23 54.94,-63.23" /><path
         id="path340"
         style="fill:#f25260;fill-opacity:1;fill-rule:nonzero;stroke:none"
         d="m 2659.41,3084.33 c 0,0 -13.98,21.37 -41.92,30.82 -24.17,8.18 -50.55,7.4 -74.38,0.82 25.07,14.8 51.8,19.66 79.31,9.86 30,-10.68 36.99,-41.5 36.99,-41.5" /><path
         id="path342"
         style="fill:#371422;fill-opacity:1;fill-rule:nonzero;stroke:none"
         d="m 2674.3,3138.48 c 0,0 -7.27,-14.89 -23.89,-20.77 -15.13,-0.22 -58.16,26.65 -81.98,30.79 -23.94,4.16 -44.12,-10.55 -44.12,-10.55 0,0 23.87,29.83 51.79,29.41 27.92,-0.43 55.15,-21.1 74.25,-27.59 11.09,-3.77 23.95,-1.29 23.95,-1.29" /><path
         id="path344"
         style="fill:#fab5b1;fill-opacity:1;fill-rule:nonzero;stroke:none"
         d="m 2862.16,2973.6 c 0,0 23.76,-16.67 48.56,-13.33 24.79,3.34 55.36,24.36 70.33,54.22 14.98,29.86 27.97,94.4 -21.63,106.19 -49.6,11.8 -81.87,-72.71 -87.73,-91.22 -7.25,-22.87 -9.53,-55.86 -9.53,-55.86" /><path
         id="path346"
         style="fill:#f25260;fill-opacity:1;fill-rule:nonzero;stroke:none"
         d="m 2978.54,3074.5 c -2.21,12.24 -10.49,22.69 -23,25.33 -13.67,2.89 -23.87,-6.43 -32.06,-16.08 -9.83,-11.57 -18.06,-24.51 -24.24,-38.38 -2.64,-5.94 6.42,-9.56 9.25,-3.84 4.98,10.07 10.66,19.73 17.45,28.7 5.57,7.36 13,18.5 22.96,19.76 11.02,1.39 19.29,-8.58 21.37,-18.4 2.39,-11.27 -1.14,-22.95 -5.14,-33.44 -0.47,-1.22 1.19,-2.41 2.05,-1.25 7.98,10.83 13.85,23.82 11.36,37.6" /><path
         id="path348"
         style="fill:#f25260;fill-opacity:1;fill-rule:nonzero;stroke:none"
         d="m 2943.57,3012.2 c -7.64,-9.9 -23.01,-19.27 -35.55,-20.62 -3.89,-0.42 -8.17,0.42 -7.82,5.23 0.23,3.13 2.43,5.69 4.79,7.52 4.83,3.76 10.96,5.5 16.3,8.43 10.73,5.89 17.36,17.04 13.76,29.41 -3.28,11.25 -15.48,18.94 -27.08,16.31 -5.83,-1.32 -4.7,-9.65 1.32,-9.21 16.92,1.21 22.45,-18.94 8.08,-27.37 -10.33,-6.06 -24.68,-9.13 -26.84,-23.11 -0.88,-5.7 1.07,-11.5 6.09,-14.65 5.48,-3.45 12.24,-2.47 18.12,-0.74 6.44,1.9 12.51,4.93 17.93,8.91 6.34,4.67 10.19,10.57 14.45,17.06 1.59,2.4 -1.73,5.18 -3.55,2.83" /><path
         id="path350"
         style="fill:#f25260;fill-opacity:1;fill-rule:nonzero;stroke:none"
         d="m 2957.28,3053.26 c 0.45,16.29 -8.99,30.61 -26.42,31.63 -6.35,0.37 -7.62,-9.51 -1.23,-9.86 11.98,-0.64 23.47,-8.92 23.93,-21.73 0.07,-2.08 3.66,-2.17 3.72,-0.04" /><path
         id="path352"
         style="fill:#371422;fill-opacity:1;fill-rule:nonzero;stroke:none"
         d="m 2522.33,3182.56 c 102.64,21.06 182.76,175.41 243.18,44.83 23.48,24.42 47.16,16.75 75.16,-26.1 31.74,-48.57 129.4,-45.81 166.35,19.03 -17.06,4.83 -25.19,8.87 -25.19,8.87 l 29.21,8.19 c 0,0 -23.58,12.94 -31.79,48.65 -8.22,35.7 -8.53,161.57 -161.08,116.52 0,0 -75.86,133.8 -219.55,118.82 -143.69,-14.98 -183.06,-179.92 -219.52,-214.93 -31.59,-30.94 -39.71,-30.96 -39.71,-30.96 0,0 58.76,-118.4 182.94,-92.92" /><path
         id="path354"
         style="fill:#371422;fill-opacity:1;fill-rule:nonzero;stroke:none"
         d="m 4802.81,2641 c 0,0 105.1,2.21 168.41,-89.86 63.3,-92.08 235.93,-349.12 235.93,-349.12 L 4852.28,1998.7 c 0,0 -193.73,297.32 -232.09,397.06 -38.37,99.75 90.94,229.59 182.62,245.24" /><path
         id="path356"
         style="fill:#df5451;fill-opacity:1;fill-rule:nonzero;stroke:none"
         d="m 3731.58,2194.46 c 0,0 -216.49,-361.53 -248.96,-411.33 -32.48,-49.79 -60.62,-162.36 -2.17,-216.48 58.45,-54.12 205.66,34.64 283.6,149.38 77.94,114.73 231.64,402.67 231.64,402.67 l -264.11,75.76" /><path
         id="path358"
         style="fill:#371422;fill-opacity:1;fill-rule:nonzero;stroke:none"
         d="m 4223.09,2300.49 c -35.81,-57.32 -153.44,-206.12 -214.29,-282.19 -22.46,-28.09 -37.18,-46.27 -37.18,-46.27 l -357.53,188.18 c 0,0 11.31,16.49 29.65,42.91 59.13,85.11 191.25,273.2 252.61,343.7 80.41,92.37 163.58,87.89 163.58,87.89 100.28,-4.5 255.46,-186.48 163.16,-334.22" /><path
         id="path360"
         style="fill:#1e0d13;fill-opacity:1;fill-rule:nonzero;stroke:none"
         d="m 4008.8,2015.04 c -22.46,-28.1 -37.18,-46.27 -37.18,-46.27 l -357.53,188.17 c 0,0 11.31,16.5 29.65,42.91 68.27,-33.48 252.32,-127.24 365.06,-184.81" /><path
         id="path362"
         style="fill:#ca3347;fill-opacity:1;fill-rule:nonzero;stroke:none"
         d="M 5016.94,2.76172 H 4491.86 L 4446.32,792.309 h -43.66 L 4347.63,0 h -521.18 l 62.67,997.262 11.73,186.618 272.45,122.69 248.56,111.94 269.99,-119.78 258.89,-114.85 10.4,-185.431 55.8,-995.68728" /><path
         id="path364"
         style="fill:#a21f2e;fill-opacity:1;fill-rule:nonzero;stroke:none"
         d="m 4961.14,998.449 c -102.87,10.911 -238.01,71.721 -269.29,300.281 l 258.89,-114.85 10.4,-185.431" /><path
         id="path366"
         style="fill:#a21f2e;fill-opacity:1;fill-rule:nonzero;stroke:none"
         d="m 4173.3,1306.57 c -30.56,-245.61 -178.87,-302.35 -284.18,-309.308 l 11.73,186.618 272.45,122.69" /><path
         id="path368"
         style="fill:#a21f2e;fill-opacity:1;fill-rule:nonzero;stroke:none"
         d="m 4648.21,807.301 c -107.69,0.211 -215.37,0.59 -323.06,0.23 -30.34,-0.109 -60.67,-1.031 -91,-1.711 -11.43,-0.25 -11.4,-17.5 0.04,-17.761 107.7,-2.411 215.38,-1.868 323.11,-1.649 30.35,0.051 60.7,0.11 91.05,0.172 13.33,0.027 13.21,20.699 -0.14,20.719" /><path
         id="path370"
         style="fill:#a21f2e;fill-opacity:1;fill-rule:nonzero;stroke:none"
         d="m 4322.37,807.52 -1.47,-20.829 -21.72,-309.589 c -8,-114.082 -15.89,-228.172 -23.72,-342.27 C 4272.37,89.8789 4269.27,44.9492 4266.32,0 h 23.26 c 6.92,93.332 13.28,186.711 19.87,280.059 8.07,114.082 15.86,228.171 23.76,342.261 3.79,54.719 7.57,109.461 11.36,164.168 0.49,7.043 0.98,14.071 1.47,21.114 l -23.67,-0.082" /><path
         id="path372"
         style="fill:#a21f2e;fill-opacity:1;fill-rule:nonzero;stroke:none"
         d="m 4503.83,807.602 c 0.49,-7.043 0.97,-14.071 1.46,-21.114 3.8,-54.707 7.58,-109.449 11.36,-164.168 7.9,-114.09 15.69,-228.179 23.76,-342.261 6.6,-93.348 12.95,-186.727 19.87,-280.059 h 23.26 c -2.94,44.9492 -6.05,89.8789 -9.14,134.832 -7.83,114.098 -15.72,228.188 -23.72,342.27 l -21.72,309.589 -1.47,20.829 -23.66,0.082" /><path
         id="path374"
         style="fill:#371422;fill-opacity:1;fill-rule:nonzero;stroke:none"
         d="M 4950.74,1183.88 H 3900.85 c 0,0 17.49,1061.02 17.49,1169.19 0,205.26 50.92,262.48 141.59,278.39 36.7,6.43 94.66,11.82 135.11,15.08 26.88,2.17 46.03,3.42 46.03,3.42 l 376.66,-2.29 c 0,0 19.73,-0.1 58.7,-1.3 30.44,-0.95 72.65,-2.58 126.38,-5.37 122.48,-6.37 127.26,-74.77 128.84,-125.67 1.6,-50.91 19.09,-1331.45 19.09,-1331.45" /><path
         id="path376"
         style="fill:#1e0d13;fill-opacity:1;fill-rule:nonzero;stroke:none"
         d="m 4676.43,2646.37 c -46.26,-54.1 -127.07,-122.96 -245.72,-215.81 -115.98,75.2 -199.23,167.05 -235.67,215.98 26.88,2.17 46.03,3.42 46.03,3.42 l 376.66,-2.29 c 0,0 19.73,-0.1 58.7,-1.3" /><path
         id="path378"
         style="fill:#ffffff;fill-opacity:1;fill-rule:nonzero;stroke:none"
         d="m 4101.45,2388.51 v -947.89 h 1412.44 v 947.89 H 4101.45" /><path
         id="path380"
         style="fill:#166eac;fill-opacity:1;fill-rule:nonzero;stroke:none"
         d="m 4988.64,2106.9 c -8.03,27.21 -25.42,51.12 -47.76,69.67 -29.33,24.36 -67.19,39.49 -103.6,40.75 -38.86,1.34 -77.48,-9.96 -111.81,-28.2 -26.17,-13.91 -50.47,-32.14 -68.21,-55.88 -17.75,-23.73 -28.55,-53.32 -26.61,-82.88 3.14,-47.67 37.63,-108.74 86.51,-67.96 16.83,14.04 21.37,39.47 17.05,62.9 -8.72,47.25 16.13,78.72 73.45,94.62 52.84,14.67 108.92,-44.29 107.06,-94.05 -1.71,-45.5 -66.16,-98.91 -88.81,-136.15 -24.48,-40.24 -42.47,-79 -46.68,-126.49 -1.45,-16.36 1.57,-33.73 11.67,-46.67 10.1,-12.95 28.23,-20.26 43.69,-14.73 13.15,4.7 22.07,17.52 25.79,30.98 7.2,26.15 0.99,54.12 7.23,80.96 6.24,26.81 17.55,52.46 33.45,74.94 25.59,36.18 62.52,64.61 80.95,104.91 13.25,28.97 15.65,62.74 6.63,93.28" /><path
         id="path382"
         style="fill:#166eac;fill-opacity:1;fill-rule:nonzero;stroke:none"
         d="m 4792.7,1673.46 c -16.46,-10.21 -22.28,-31.89 -15.86,-49.74 6.85,-19.04 25.29,-29.88 45.28,-27.09 37.88,5.28 40.4,43.16 24.58,66.21 -11.02,16.06 -30.93,24.93 -54,10.62" /><path
         id="path384"
         style="fill:#f16a61;fill-opacity:1;fill-rule:nonzero;stroke:none"
         d="m 5334.11,2464.56 c 0,0 0.77,19.91 -20.67,24.5 -21.44,4.6 -31.39,-6.89 -37.52,-30.62 -6.13,-23.74 -35.98,-112.55 -37.52,-131.69 -1.53,-19.15 42.12,-26.81 53.6,3.05 16.85,-16.07 42.88,-8.41 52.07,4.6 16.08,-12.25 31.39,-9.96 43.64,0 10.72,-16.08 31.39,-9.96 37.51,-1.53 6.13,8.42 31.98,76.55 36.52,88.17 6.52,16.66 -13.54,37.4 -34.22,23.62 -13.01,25.26 -29.68,18.05 -42.53,8.88 -0.37,17.62 -32.32,37.45 -50.88,11.02" /><path
         id="path386"
         style="fill:#df5451;fill-opacity:1;fill-rule:nonzero;stroke:none"
         d="m 5318.13,2445.25 c -10.89,-38.19 -23.27,-75.94 -33.99,-114.2 -1.72,-6.12 7.83,-8.67 9.53,-2.55 10.57,38.26 19.46,76.94 29.85,115.23 0.94,3.48 -4.4,4.99 -5.39,1.52" /><path
         id="path388"
         style="fill:#df5451;fill-opacity:1;fill-rule:nonzero;stroke:none"
         d="m 5372.64,2431.28 c -10.41,-31.99 -25.01,-62.69 -33.82,-95.19 -1.54,-5.7 6.92,-7.87 8.78,-2.37 10.83,31.83 21.38,63.69 30.59,96 1.02,3.58 -4.41,5.07 -5.55,1.56" /><path
         id="path390"
         style="fill:#df5451;fill-opacity:1;fill-rule:nonzero;stroke:none"
         d="m 5418.43,2425.48 c -11.36,-30.25 -23.18,-60.29 -33.89,-90.78 -2.01,-5.69 6.93,-7.98 8.99,-2.42 11.15,30.24 21.19,60.84 31.69,91.31 1.49,4.33 -5.21,6.08 -6.79,1.89" /><path
         id="path392"
         style="fill:#f16a61;fill-opacity:1;fill-rule:nonzero;stroke:none"
         d="m 4388.37,1993.51 c -9.48,-5.92 -92.43,-43.85 -92.43,-43.85 0,0 36.74,-1.17 26.07,-33.18 29.63,-7.11 26.07,-29.61 18.96,-40.28 14.91,-7.84 19.42,-18.82 18.02,-27.39 -0.72,-4.38 -2.97,-8.13 -6.18,-10.54 0,0 16.47,-6.51 16.47,-31.64 0,-25.14 -13.83,-37.71 -23.25,-45.88 -9.42,-8.16 -40.84,-28.28 -50.28,-23.26 -9.41,5.04 -11.31,22.64 5.67,33.32 16.96,10.68 21.36,15.08 21.36,15.08 0.06,0.54 0.1,1.07 0.1,1.6 0,8.72 -8.74,15.12 -17.25,12.06 l -3.56,-1.28 c -18.16,-6.52 -33.88,-18.62 -44.41,-34.77 -8.25,-12.64 -21.29,-27.57 -40.46,-36.68 -19.66,-9.35 -43.95,-12.75 -62.95,-13.83 -23.45,-1.36 -46.42,-7.14 -67.73,-16.98 -90.52,-41.82 -326.53,-148.35 -439.93,-175.94 -142.02,-34.57 -209.01,68.47 -208.51,129.09 3.57,67.12 39.65,124.06 128.27,141.66 72.8,14.45 392.5,42.39 491.06,52.54 21.04,2.17 40.07,13.36 52.21,30.68 17.19,24.52 43.65,58.87 66.1,73.35 36.74,23.7 197.31,74.36 215.08,68.44 17.78,-5.93 7.05,-16.4 -2.43,-22.32" /><path
         id="path394"
         style="fill:#df5451;fill-opacity:1;fill-rule:nonzero;stroke:none"
         d="m 4356.5,1844.42 c -29.73,4.43 -60.04,-4.69 -86.79,-16.77 -2.77,-1.25 -0.8,-6.15 2.05,-4.97 12.98,5.36 27.22,8.56 41.11,10.51 14.2,2.02 28.13,1.33 42.38,1.41 5.44,0.03 6.97,8.97 1.25,9.82" /><path
         id="path396"
         style="fill:#df5451;fill-opacity:1;fill-rule:nonzero;stroke:none"
         d="m 4339.12,1882.09 c -32.91,-0.14 -64.76,-10.65 -92.89,-27.32 -3.12,-1.85 -0.34,-6.7 2.81,-4.89 27.51,15.86 58.59,22.53 90.14,22.7 6.13,0.03 6.07,9.54 -0.06,9.51" /><path
         id="path398"
         style="fill:#df5451;fill-opacity:1;fill-rule:nonzero;stroke:none"
         d="m 4318.85,1918.51 c -32.2,-5.93 -62.1,-17.58 -90.43,-33.82 -3.72,-2.13 -0.42,-7.83 3.34,-5.76 27.7,15.23 58.46,25.37 89.53,30.86 5.72,1.01 3.27,9.76 -2.44,8.72" /><path
         id="path400"
         style="fill:#df5451;fill-opacity:1;fill-rule:nonzero;stroke:none"
         d="m 4295.07,1954.57 c -27.7,-4.49 -54.17,-13.55 -79.17,-26.23 -4.2,-2.12 -0.51,-8.41 3.67,-6.3 24.43,12.3 50.75,20.26 77.76,24.42 5.32,0.82 3.06,8.97 -2.26,8.11" /><path
         id="path402"
         style="fill:#df5451;fill-opacity:1;fill-rule:nonzero;stroke:none"
         d="m 4617.73,2647.67 c -74.64,-82.68 -189.47,-164.22 -189.47,-164.22 0,0 -103.36,60.86 -187.19,166.51 48.24,0 59.72,18.37 63.16,43.64 1.65,12.08 1.19,55.41 0.28,97.34 -1,45.75 -2.57,89.84 -2.57,89.84 l 243.44,13.78 c 0,0 0.33,-47.32 0.83,-95.01 0.41,-40.23 0.94,-80.72 1.48,-93.31 2.29,-53.98 26.41,-60.87 70.04,-58.57" /><path
         id="path404"
         style="fill:#9b423c;fill-opacity:1;fill-rule:nonzero;stroke:none"
         d="m 4546.21,2799.55 c -32.07,-25.74 -75.25,-46.48 -116.8,-48.53 -66.61,-3.45 -98.15,24.13 -124.9,39.92 -1,45.75 -2.57,89.84 -2.57,89.84 l 243.44,13.78 c 0,0 0.33,-47.32 0.83,-95.01" /><path
         id="path406"
         style="fill:#9b423c;fill-opacity:1;fill-rule:nonzero;stroke:none"
         d="m 4125.94,3265.25 c 0,-2.04 44.68,-110.99 70.59,-178.79 172.43,0 457.83,0 457.83,0 l 62.8,188.49 -294.08,102.11 -297.14,-111.81" /><path
         id="path408"
         style="fill:#f16a61;fill-opacity:1;fill-rule:nonzero;stroke:none"
         d="m 4198.84,3181.24 c 0,0 43.11,-222.53 56.43,-268.81 13.31,-46.29 85.59,-116.66 170.54,-114.12 84.32,0 150.89,83.68 167.38,131.87 16.48,48.18 45.64,258.67 45.64,258.67 l -59.59,97.63 -348.06,-19.65 -32.34,-85.59" /><path
         id="path410"
         style="fill:#9b423c;fill-opacity:1;fill-rule:nonzero;stroke:none"
         d="m 4420.63,2995.23 c 6.95,37.29 -9.27,64.1 -9.04,62.72 4.48,-28.3 1.77,-47.92 -1.1,-59.09 -8.67,3.08 -17.51,6.16 -22.79,7.91 -13.23,4.41 -22.39,-8.83 -15.6,-24.77 6.69,-15.7 29.48,-24.17 30.19,-24.42 -0.61,0.48 -20.77,16.33 -19.27,33.45 0.29,3.23 3.32,5.49 6.5,4.9 5.06,-0.93 11.78,-2.64 18.78,-4.16 3.7,-0.79 7.5,-1.54 11.14,-2.07 6.06,-0.89 11.76,-1.18 16.12,-0.23 0.44,0.09 -6.21,2.6 -14.93,5.76" /><path
         id="path412"
         style="fill:#9b423c;fill-opacity:1;fill-rule:nonzero;stroke:none"
         d="m 4364.26,2918.9 c 0,0 17.21,24.55 49.39,20.04 32.17,-4.52 34.99,-38.67 34.99,-38.67 0,0 -31.89,42.33 -84.38,18.63" /><path
         id="path414"
         style="fill:#df5451;fill-opacity:1;fill-rule:nonzero;stroke:none"
         d="m 4275.86,2981.59 c 0,0 11.58,14.05 30.59,17.36 19,3.3 34.71,-17.36 34.71,-17.36 h -65.3" /><path
         id="path416"
         style="fill:#df5451;fill-opacity:1;fill-rule:nonzero;stroke:none"
         d="m 4561.01,2984.89 c 0,0 -11.58,14.06 -30.59,17.36 -19,3.31 -34.71,-17.36 -34.71,-17.36 h 65.3" /><path
         id="path418"
         style="fill:#9b423c;fill-opacity:1;fill-rule:nonzero;stroke:none"
         d="m 4125.82,3224.96 c 0,0 -10.49,-26.25 6.75,-47.25 17.25,-20.99 60.74,-38.99 98.24,3.75 24.74,-23.24 44.24,-25.49 65.23,-20.24 21,5.24 34.5,33.74 35.24,50.24 28.5,-36.75 83.99,-26.25 91.49,12.74 0,0 18,-14.24 45.74,-2.25 0,0 -1.5,-29.24 35.99,-34.49 37.5,-5.25 53.99,20.25 53.99,20.25 0,0 1.5,-44.24 50.24,-47.24 48.74,-3 59.24,30.74 59.24,30.74 0,0 48.74,-9 74.24,32.99 25.49,42 -10.5,76.49 -24.75,79.49 23.99,20.99 38.24,77.23 -16.5,102.73 8.25,53.99 -38.99,92.23 -86.23,73.48 -11.25,59.24 -81.73,72.74 -129.73,35.25 -25.49,51.74 -108.72,66.73 -139.47,-3 -35.99,47.99 -97.48,23.25 -95.98,-32.25 0,0 -80.23,34.5 -91.48,-50.98 -56.24,0.74 -83.98,-61.49 -50.99,-92.24 -49.49,-23.24 -50.99,-100.48 18.74,-111.72" /><path
         id="path420"
         style="fill:#ffffff;fill-opacity:1;fill-rule:nonzero;stroke:none"
         d="m 4395.76,3031.19 c -5.01,-0.77 -9.92,-1.44 -14.72,-1.99 -2.07,-0.24 -4.15,-0.46 -6.22,-0.67 -35.12,-3.52 -64.31,-1.56 -86.02,1.75 -3.12,0.47 -6.09,0.97 -8.89,1.5 -22.04,4.06 -34.21,9.08 -34.21,9.08 0,0 16.85,67.3 87.39,54.84 51.67,-9.14 62.67,-64.51 62.67,-64.51" /><path
         id="path422"
         style="fill:#371422;fill-opacity:1;fill-rule:nonzero;stroke:none"
         d="m 4381.04,3029.2 c -2.07,-0.24 -4.15,-0.46 -6.22,-0.67 -35.12,-3.52 -64.31,-1.56 -86.02,1.75 -3.12,0.47 -6.09,0.97 -8.89,1.5 2.29,14.07 12.89,38.68 39.38,44.07 32.33,6.56 61.43,-12.24 61.75,-46.65" /><path
         id="path424"
         style="fill:#371422;fill-opacity:1;fill-rule:nonzero;stroke:none"
         d="m 4245.7,3040.86 c 0,0 27.64,52.4 76.87,50.56 49.24,-1.84 69.08,-50.99 73.19,-60.23 0,0 -5.01,77.79 -74.56,76.33 -65.8,-1.38 -75.5,-66.66 -75.5,-66.66" /><path
         id="path426"
         style="fill:#df5451;fill-opacity:1;fill-rule:nonzero;stroke:none"
         d="m 4390.22,3082.44 c 0,0 -22.39,36.04 -68.57,36.78 -46.19,0.75 -66.3,-33.52 -66.3,-33.52 0,0 11.2,45.88 61.08,49.16 62.2,4.1 73.79,-52.42 73.79,-52.42" /><path
         id="path428"
         style="fill:#371422;fill-opacity:1;fill-rule:nonzero;stroke:none"
         d="m 4392.96,3153.17 c 0,0 -16.39,-19.51 -22.98,-23.12 -19.48,-3.96 -112.71,2.61 -118.24,2.99 40.54,17.51 119.32,12.59 141.22,20.13" /><path
         id="path430"
         style="fill:#ffffff;fill-opacity:1;fill-rule:nonzero;stroke:none"
         d="m 4590.72,3036.35 c 0,0 -3.21,-1.33 -9.32,-3.16 -15.56,-4.68 -49.91,-12.71 -97.94,-10.71 -13.26,0.53 -27.58,1.85 -42.82,4.2 0,0 11.01,55.37 62.68,64.51 70.53,12.48 87.4,-54.84 87.4,-54.84" /><path
         id="path432"
         style="fill:#371422;fill-opacity:1;fill-rule:nonzero;stroke:none"
         d="m 4581.4,3033.19 c -15.56,-4.68 -49.91,-12.71 -97.94,-10.71 1.19,9.53 7.94,44 43.57,51.38 34.69,7.18 51.7,-23.71 54.37,-40.67" /><path
         id="path434"
         style="fill:#371422;fill-opacity:1;fill-rule:nonzero;stroke:none"
         d="m 4440.64,3026.68 c 0,0 20.76,59.47 81.01,62.25 54.26,2.5 69.07,-52.58 69.07,-52.58 0,0 -8.03,69.62 -73.43,66.45 -70.48,-3.42 -76.65,-76.12 -76.65,-76.12" /><path
         id="path436"
         style="fill:#df5451;fill-opacity:1;fill-rule:nonzero;stroke:none"
         d="m 4447.74,3078.25 c 0,0 16.77,40.23 62.95,40.97 46.18,0.75 66.3,-33.52 66.3,-33.52 0,0 -11.21,45.88 -61.09,49.16 -62.19,4.1 -68.16,-56.61 -68.16,-56.61" /><path
         id="path438"
         style="fill:#371422;fill-opacity:1;fill-rule:nonzero;stroke:none"
         d="m 4431.65,3140.33 c 0,0 7.27,-14.89 23.89,-20.77 15.12,-0.21 58.16,26.66 81.98,30.79 23.94,4.16 44.12,-10.55 44.12,-10.55 0,0 -23.87,29.84 -51.79,29.41 -27.92,-0.42 -55.15,-21.09 -74.25,-27.58 -11.09,-3.78 -23.95,-1.3 -23.95,-1.3" /><path
         id="path440"
         style="fill:#f16a61;fill-opacity:1;fill-rule:nonzero;stroke:none"
         d="m 4591.17,2975.09 c 0,0 25.33,-17.78 51.78,-14.22 26.45,3.56 59.05,25.99 75.02,57.83 15.98,31.85 29.83,100.68 -23.07,113.26 -52.9,12.58 -87.32,-77.55 -93.58,-97.29 -7.73,-24.39 -10.15,-59.58 -10.15,-59.58" /><path
         id="path442"
         style="fill:#9b423c;fill-opacity:1;fill-rule:nonzero;stroke:none"
         d="m 4715.29,3082.71 c -2.36,13.05 -11.19,24.2 -24.53,27.02 -14.57,3.07 -25.46,-6.86 -34.2,-17.16 -10.48,-12.34 -19.26,-26.14 -25.85,-40.93 -2.81,-6.34 6.85,-10.2 9.87,-4.1 5.31,10.74 11.37,21.05 18.61,30.61 5.94,7.85 13.86,19.73 24.48,21.07 11.76,1.48 20.58,-9.14 22.8,-19.62 2.54,-12.02 -1.23,-24.48 -5.49,-35.66 -0.5,-1.31 1.28,-2.57 2.19,-1.34 8.51,11.56 14.77,25.41 12.12,40.11" /><path
         id="path444"
         style="fill:#9b423c;fill-opacity:1;fill-rule:nonzero;stroke:none"
         d="m 4678,3016.26 c -8.16,-10.56 -24.55,-20.56 -37.93,-21.99 -4.15,-0.45 -8.71,0.45 -8.33,5.58 0.24,3.33 2.59,6.06 5.1,8.01 5.16,4.01 11.69,5.88 17.38,9 11.45,6.28 18.52,18.17 14.68,31.37 -3.5,11.99 -16.5,20.19 -28.88,17.39 -6.21,-1.41 -5.01,-10.29 1.41,-9.83 18.04,1.3 23.95,-20.19 8.62,-29.18 -11.02,-6.46 -26.32,-9.74 -28.62,-24.66 -0.94,-6.08 1.13,-12.27 6.48,-15.63 5.85,-3.66 13.06,-2.62 19.33,-0.78 6.87,2.02 13.35,5.27 19.12,9.51 6.77,4.97 10.87,11.27 15.42,18.19 1.69,2.57 -1.85,5.52 -3.78,3.02" /><path
         id="path446"
         style="fill:#9b423c;fill-opacity:1;fill-rule:nonzero;stroke:none"
         d="m 4692.61,3060.05 c 0.48,17.38 -9.59,32.65 -28.17,33.73 -6.78,0.4 -8.13,-10.14 -1.32,-10.51 12.78,-0.68 25.03,-9.52 25.52,-23.18 0.08,-2.22 3.91,-2.31 3.97,-0.04" /><path
         id="path448"
         style="fill:#f16a61;fill-opacity:1;fill-rule:nonzero;stroke:none"
         d="m 4261.92,2968.97 c 0,0 -25.33,-17.77 -51.78,-14.21 -26.45,3.56 -59.05,25.98 -75.02,57.82 -15.97,31.85 -29.83,100.69 23.07,113.26 52.9,12.58 87.32,-77.54 93.58,-97.29 7.73,-24.38 10.15,-59.58 10.15,-59.58" /><path
         id="path450"
         style="fill:#9b423c;fill-opacity:1;fill-rule:nonzero;stroke:none"
         d="m 4137.8,3076.59 c 2.36,13.06 11.19,24.2 24.53,27.02 14.57,3.08 25.46,-6.86 34.2,-17.15 10.48,-12.35 19.26,-26.14 25.85,-40.94 2.82,-6.34 -6.85,-10.2 -9.87,-4.09 -5.31,10.73 -11.37,21.04 -18.61,30.61 -5.94,7.84 -13.86,19.72 -24.48,21.07 -11.76,1.47 -20.58,-9.15 -22.8,-19.62 -2.54,-12.02 1.23,-24.48 5.49,-35.66 0.5,-1.31 -1.28,-2.58 -2.19,-1.35 -8.51,11.56 -14.77,25.41 -12.12,40.11" /><path
         id="path452"
         style="fill:#9b423c;fill-opacity:1;fill-rule:nonzero;stroke:none"
         d="m 4175.09,3010.14 c 8.16,-10.56 24.55,-20.55 37.93,-21.99 4.15,-0.44 8.71,0.45 8.33,5.58 -0.24,3.34 -2.59,6.06 -5.1,8.01 -5.16,4.02 -11.69,5.88 -17.38,9 -11.45,6.29 -18.52,18.18 -14.68,31.37 3.5,12 16.5,20.19 28.88,17.4 6.21,-1.41 5.01,-10.3 -1.41,-9.83 -18.04,1.29 -23.95,-20.2 -8.62,-29.19 11.02,-6.46 26.32,-9.73 28.62,-24.65 0.94,-6.08 -1.13,-12.27 -6.48,-15.63 -5.85,-3.67 -13.06,-2.63 -19.33,-0.79 -6.87,2.03 -13.35,5.27 -19.12,9.51 -6.77,4.98 -10.87,11.27 -15.42,18.2 -1.69,2.56 1.85,5.52 3.78,3.01" /><path
         id="path454"
         style="fill:#9b423c;fill-opacity:1;fill-rule:nonzero;stroke:none"
         d="m 4160.48,3053.93 c -0.48,17.38 9.59,32.65 28.17,33.74 6.78,0.4 8.13,-10.15 1.32,-10.51 -12.78,-0.69 -25.03,-9.52 -25.52,-23.18 -0.08,-2.23 -3.91,-2.31 -3.97,-0.05" /></g></g></svg>