<svg xmlns="http://www.w3.org/2000/svg" xmlns:xlink="http://www.w3.org/1999/xlink" xml:space="preserve" width="800" fill="none"
     height="600" viewBox="0 0 600 500"><path  d="M0 0h600v500H0z"/>
    <defs><path id="a" d="M97.733 407.269S-49.005 326.145 76.012 216.72c125.018-109.425 302.392-136.733 405.13-94.559 102.737 42.174 158.672 216.333 36.131 285.108z"/></defs>
    <use xlink:href="#a" fill="#E6F5FF" overflow="hidden"/>
    <clipPath id="b"><use xlink:href="#a" overflow="hidden"/></clipPath>
    <g clip-path="url(#b)" fill="none" stroke="#FFF" stroke-miterlimit="10"><path d="M-118.397 226.966c-52.847 105.76 47.178 195.862 150.421 191.364s86.812 180.428-42.374 195.028"/>
        <path stroke-width=".244"
              d="M-100.282 220.77c-52.847 105.76 47.178 195.862 150.421 191.364s86.812 180.428-42.374 195.028"/>
        <path stroke-width=".289"
              d="M-82.167 214.574c-52.847 105.76 47.178 195.862 150.421 191.364s86.812 180.428-42.374 195.028"/>
        <path stroke-width=".333"
              d="M-64.053 208.378C-116.9 314.138-16.875 404.24 86.368 399.742S173.18 580.17 43.994 594.769"/>
        <path stroke-width=".378"
              d="M-45.938 202.182C-98.785 307.942 1.24 398.044 104.483 393.546s86.812 180.428-42.374 195.028"/>
        <path stroke-width=".422"
              d="M-27.823 195.986c-52.847 105.76 47.178 195.862 150.421 191.365s86.812 180.428-42.374 195.027"/>
        <path stroke-width=".467"
              d="M-9.708 189.79C-62.555 295.55 37.47 385.652 140.713 381.154s86.812 180.428-42.374 195.028"/>
        <path stroke-width=".511"
              d="M8.406 183.594c-52.847 105.76 47.178 195.862 150.421 191.364s86.812 180.428-42.374 195.027"/>
        <path stroke-width=".556"
              d="M26.521 177.398c-52.847 105.76 47.178 195.862 150.421 191.365s86.812 180.428-42.374 195.028"/>
        <path stroke-width=".6"
              d="M44.636 171.202c-52.847 105.76 47.178 195.862 150.421 191.364s86.812 180.428-42.374 195.028"/>
        <path stroke-width=".644"
              d="M62.751 165.006C9.904 270.765 109.929 360.868 213.172 356.371s86.812 180.428-42.374 195.027"/>
        <path stroke-width=".689"
              d="M80.866 158.81c-52.847 105.76 47.178 195.862 150.421 191.364s86.812 180.428-42.374 195.027"/>
        <path stroke-width=".733"
              d="M98.98 152.614c-52.847 105.76 47.178 195.862 150.421 191.364s86.812 180.428-42.374 195.027"/>
        <path stroke-width=".778"
              d="M117.095 146.418c-52.847 105.76 47.178 195.862 150.421 191.365s86.812 180.428-42.374 195.027"/>
        <path stroke-width=".822"
              d="M135.21 140.222c-52.847 105.76 47.178 195.862 150.421 191.365s86.812 180.428-42.374 195.027"/>
        <path stroke-width=".867"
              d="M153.325 134.026c-52.847 105.76 47.178 195.862 150.421 191.365s86.812 180.428-42.374 195.027"/>
        <path stroke-width=".911"
              d="M171.44 127.83c-52.847 105.76 47.177 195.862 150.421 191.364 103.243-4.497 86.811 180.428-42.374 195.027"/>
        <path stroke-width=".956"
              d="M189.554 121.634c-52.847 105.76 47.177 195.862 150.421 191.364 103.243-4.497 86.812 180.428-42.374 195.027"/>
        <path d="M207.669 115.438C154.822 221.198 254.847 311.3 358.09 306.803s86.812 180.428-42.374 195.027"/>
        <path stroke-width="1.044"
              d="M225.784 109.242c-52.847 105.76 47.178 195.862 150.421 191.364s86.812 180.428-42.374 195.027"/>
        <path stroke-width="1.089"
              d="M243.899 103.046c-52.847 105.76 47.178 195.862 150.421 191.365s86.812 180.428-42.374 195.027"/>
        <path stroke-width="1.133"
              d="M262.013 96.85c-52.847 105.76 47.178 195.862 150.421 191.365s86.812 180.428-42.374 195.027"/>
        <path stroke-width="1.178"
              d="M280.128 90.654c-52.847 105.76 47.178 195.862 150.421 191.364s86.812 180.428-42.374 195.027"/>
        <path stroke-width="1.222"
              d="M298.243 84.458c-52.847 105.76 47.178 195.862 150.421 191.365s86.812 180.428-42.374 195.027"/>
        <path stroke-width="1.267"
              d="M316.358 78.262c-52.847 105.76 47.178 195.862 150.421 191.365s86.811 180.428-42.374 195.027"/>
        <path stroke-width="1.311"
              d="M334.473 72.066c-52.847 105.76 47.178 195.862 150.421 191.365s86.812 180.428-42.374 195.027"/>
        <path stroke-width="1.356"
              d="M352.588 65.87c-52.847 105.76 47.177 195.862 150.421 191.365 103.243-4.497 86.811 180.428-42.374 195.027"/>
        <path stroke-width="1.4"
              d="M370.702 59.674c-52.847 105.76 47.178 195.862 150.421 191.364s86.811 180.428-42.374 195.027"/>
        <path stroke-width="1.444"
              d="M388.817 53.478c-52.847 105.76 47.178 195.862 150.421 191.365s86.812 180.428-42.374 195.027"/>
        <path stroke-width="1.489"
              d="M406.932 47.282c-52.847 105.76 47.178 195.862 150.421 191.365s86.811 180.428-42.374 195.027"/>
        <path stroke-width="1.533"
              d="M425.047 41.086c-52.847 105.76 47.177 195.862 150.421 191.365 103.243-4.497 86.811 180.428-42.374 195.027"/>
        <path stroke-width="1.578"
              d="M443.162 34.89c-52.847 105.76 47.178 195.862 150.421 191.365s86.812 180.428-42.374 195.027"/>
        <path stroke-width="1.622"
              d="M461.276 28.694c-52.847 105.76 47.178 195.862 150.421 191.365s86.811 180.428-42.374 195.027"/>
        <path stroke-width="1.667"
              d="M479.391 22.498c-52.847 105.76 47.178 195.862 150.421 191.365s86.811 180.428-42.374 195.027"/>
        <path stroke-width="1.711"
              d="M497.506 16.302c-52.847 105.76 47.178 195.862 150.421 191.365s86.811 180.428-42.374 195.027"/>
        <path stroke-width="1.756"
              d="M515.621 10.106c-52.847 105.76 47.178 195.862 150.421 191.365s86.811 180.428-42.374 195.027"/>
        <path stroke-width="1.8"
              d="M533.735 3.91c-52.847 105.76 47.178 195.862 150.421 191.365s86.811 180.428-42.374 195.027"/></g>
    <path fill="#AAA" d="M147.2 414.134h351.604v19.679H147.2z"/>
    <path fill="#C9C9C9" d="M147.2 396.045h370.072v19.68H147.2z"/>
    <path fill="#BBE2EF" d="M242.631 171.727h99.17v56.761h-99.17z"/>
    <path d="M248.651 176.86h8.385v8.385h-8.385zm11.341 0h44.022v3.279h-44.022zm0 5.106h22.307v3.279h-22.307zm-11.341 7.842h8.385v8.385h-8.385zm11.341 0h44.022v3.279h-44.022zm0 5.107h22.307v3.279h-22.307zm-11.341 7.842h8.385v8.385h-8.385zm11.341 0h44.022v3.279h-44.022zm0 5.107h22.307v3.279h-22.307zm-11.341 7.842h8.385v8.385h-8.385zm11.341 0h44.022v3.278h-44.022zm0 5.106h22.307v3.279h-22.307zm47.623-44.435h31.445v24.537h-31.444zm0 27.536h31.445v20.947h-31.444z"
          fill="#FFF"/>
    <path fill="#8ECC36"
          d="M310.518 194.915c2.016-5.316 5.402-11.497 8.063-7.95s6.45 7.245 7.337 6.122 2.822-4.752 5.16-5.074 6.369 6.902 6.369 6.902zm0 25.288c2.016-5.316 5.402-11.498 8.063-7.95s6.45 7.246 7.337 6.122c.887-1.123 2.822-4.751 5.16-5.074s6.369 6.902 6.369 6.902z"/>
    <path fill="#FF8500"
          d="m249.189 180.757 2.043 3.279 5.214-4.3-.269-.269-4.898 3.245-1.935-2.157zm0 12.519 2.043 3.279 5.214-4.3-.269-.269-4.898 3.245-1.935-2.157zm0 12.519 2.043 3.279 5.214-4.3-.269-.269-4.898 3.245-1.935-2.157zm0 12.519 2.043 3.279 5.214-4.3-.269-.269-4.898 3.245-1.935-2.157z"/>
    <path fill="#BBE2EF" d="M421.509 247.741h99.17v56.761h-99.17z"/>
    <path fill="#FFF"
          d="M429.32 254.103h39.668v2.365H429.32zm0 4.408h23.328v2.365H429.32zm0 8.385h39.668v2.365H429.32zm0 4.408h23.328v2.365H429.32zm0 8.385h39.668v2.365H429.32zm0 4.408h23.328v2.365H429.32zm0 8.385h39.668v2.365H429.32zm0 4.408h23.328v2.365H429.32z"/>
    <path fill="#FF8500"
          d="M512.848 277.27c0 9.707-7.87 17.577-17.577 17.577s-17.576-7.869-17.576-17.577c0-9.707 7.869-17.576 17.576-17.576q.934 0 1.845.097l-1.845 17.479 17.371-2.689a17.6 17.6 0 0 1 .206 2.689"/>
    <path fill="#8ECC36" d="m514.202 273.029-17.371 2.689 1.845-17.48c7.95.829 14.324 6.956 15.526 14.79"/>
    <path fill="#BBE2EF" d="M421.599 132.866h55.11v71.226h-55.11z"/>
    <path fill="#FFF"
          d="M429.054 138.698h40.199v3.129h-40.199zm0 6.172h40.199v3.129h-40.199zm0 6.172h40.199v3.129h-40.199zm0 6.172h27.218v3.129h-27.218zm0 6.171h40.199v3.129h-40.199zm0 6.172h40.199v3.129h-40.199zm20.1 12.546h20.1v17.226h-20.1zm-20.1 0h18.45v17.226h-18.45zm0-6.374h20.1v3.129h-20.1z"/>
    <path fill="#BBE2EF" d="M354.266 155.835h55.11v71.226h-55.11z"/>
    <path fill="#FFF"
          d="M361.721 181.746h40.199v3.129h-40.199zm0 6.172h40.199v3.129h-40.199zm19.659-23.011h20.54v3.129h-20.54zm0 6.171h13.393v3.129H381.38zm0 34.142h20.54v3.129h-20.54zm0 6.171h13.393v3.129H381.38zm-19.011-8.814h17.154v16.016h-17.154zm-.648-8.488h20.099v3.129h-20.099z"/>
    <path d="M372.164 167.719a4.775 4.775 0 0 1-4.775 4.775 4.775 4.775 0 0 1-4.774-4.775 4.775 4.775 0 0 1 9.549 0zm-1.601 3.565 7.667 7.209"
          fill="none" stroke="#FF8500" stroke-miterlimit="10" stroke-width="8"/>
    <path fill="#BBE2EF" d="M282.651 237.291h99.17v56.76h-99.17z"/>
    <path fill="#FF8500" d="M298.93 273.9h6.176v10.861h-6.176z"/>
    <path fill="#8ECC36" d="M309.813 267.481h6.175v17.28h-6.175z"/>
    <path fill="#FF8500" d="M320.695 263.039h6.176v21.723h-6.176z"/>
    <path fill="#8ECC36" d="M331.578 272.065h6.176v12.697h-6.176z"/>
    <path fill="#FF8500" d="M342.46 261.182h6.175v23.58h-6.175z"/>
    <path fill="#8ECC36" d="M353.343 252.371h6.175v32.39h-6.175z"/>
    <path fill="none" stroke="#8ECC36" stroke-miterlimit="10" stroke-width="1.2"
          d="M292.219 268.566c-.323.39 32.573-18.1 32.573-18.1l7.422 10.715 26.764-17.165"/>
    <path fill="#E6F5FF" d="M289.961 244.016h18.49v2.365h-18.49zm0 5.106h11.61v2.365h-11.61z"/>
    <path d="M424.769 213.746h34.547v2.82h-34.547zm0 5.078h23.752v2.82h-23.752zm0 5.078h28.417v2.82h-28.417zm0 5.078h16.527v2.82h-16.527z"
          fill="#8ECC36"/>
    <path d="M273.497 134.973h33.433v4.069h-33.433zm-16.419 7.328h49.853v4.069h-49.853zm1.645 7.328h32.646v4.069h-32.646zm-1.645 7.328h23.848v4.07h-23.848z"
          fill="#FF8500"/>
    <path d="M291.868 305.858h42.065v3.434h-42.065zm0 6.183h25.33v3.434h-25.33zm0 6.183h42.065v3.434h-42.065zm0 6.183h20.123v3.434h-20.123z"
          fill="#BBE2EF"/>
    <path fill="#565656" d="M267.853 390.377h174.19v5.649h-174.19z"/>
    <path fill="#AAA" d="M309.242 390.377h132.805l47.534-75.927H356.777z"/>
    <path fill="#FFF" d="m481.108 323.462-38.197 61.012H315.769l38.197-61.012z"/>
    <path fill="#565656" d="m489.58 314.45 1.07 3.106-48.607 78.47.003-5.649z"/>
    <path fill="#FFCC7B"
          d="M225.668 398.52c2.234.861 1.237.937 4.702 3.527s10.711 4.999 13.915 5.164 5.654-.086 6.842-1.737.544-3.295-1.183-3.92c-1.727-.626-3.599-1.017-3.599-1.017s14.015-1.175 21.856-1.724 13.635-1.085 14.172-3.744-4.196-3.646-8.063-3.234-9.726.578-9.726.578 21.031-4.382 21.418-7.22-2.815-1.739-9.675-1.102c-6.859.638-11.706.565-11.706.565s19.139-5.378 19.553-8.147-.879-3.447-8.948-1.465-12.157 2.637-12.157 2.637 14.282-6.079 14.193-9.124-1.76-2.271-9.065-.352c-7.305 1.918-16.819.32-29.477 3.391s-20.099 7.058-20.099 7.058z"/>
    <path fill="#424242"
          d="M422.689 396.055h-30.977s1.399 0 5.38-3.606c3.983-3.607 11.945-14.221 23.89-20.513 0 0 3.435 12.01 3.65 19.079.091 2.982-.392 5.084-1.944 5.04"/>
    <path fill="#EAEAEA"
          d="M485.385 409.059c-9.215 8.571-28.239 34.856-38.254 20.363-5.413-7.834 17.947-19.51 25.114-22.752s7.167-10.41 7.167-10.41-2.239.181-5.703.411c-11.041.73-34.523 1.956-37.641-.616-1.91-1.577-4.971-4.2-7.695-6.549-3.114-2.688-5.787-5.02-5.787-5.02l.504-16.005c7.336-14.029 38.915-14.563 53.762-5.689 14.846 8.874 17.747 37.696 8.532 46.267"/>
    <path fill="#424242"
          d="M473.709 396.671c-4.543.3-11.194.684-17.665.855-9.254.24-18.141.043-19.976-1.471-1.645-1.359-4.143-3.491-6.544-5.558l-1.15-.992c.311-6.319.635-12.844.635-12.844l-1.195-13.507c9.897-2.56 16.885.683 18.425 3.242 1.541 2.559 3.418 1.706 9.049 3.754s10.239-2.219 12.969 3.413-4.471 10.98-3.686 15.046 4.71 4.72 6.928 4.393c1.413-.208 2.341 1.652 2.21 3.669"/>
    <path fill="#EAEAEA"
          d="M422.689 396.055h-30.796c1.785-.705 3.954-2.241 7.807-2.739 2.213-.286 14.997-1.371 15.624-2.346 1.171-1.821 4.116-3.568 7.933-.532.37.294.835.479 1.376.578.09 2.982-.392 5.084-1.944 5.039m37.147 1.471c-9.254.24-21.934.043-23.769-1.471-1.645-1.359-4.143-3.491-6.544-5.558 5.486-1.427 12.363-4.763 14.046-3.253 2.503 2.246 6.66-.021 7.197 2.707.54 2.725 1.23 3.322 4.635 5.063.945.483 3.942 1.85 4.435 2.512"/>
    <path fill="#F4F4F4"
          d="M449.88 382.893c-1.273 4.998-2.761 8.276-4.7 10.41-2.738 3.013-6.373 3.744-11.57 3.811-8.873.114-10.921-1.058-10.921-1.058-14.334-12.708-5.346-32.162 6.599-33.185 6.5-.556 12.932 1.85 16.951 6.102 3.368 3.563 5.042 8.423 3.641 13.921"/>
    <path fill="#EAA03D"
          d="M447.377 379.366c15.642-6.086 17.19 0 17.19 0s.728 5.233-16.735 6.029c-7.061.322-.455-5.44-.455-5.44z"/>
    <path fill="#EAA03D"
          d="M449.88 382.893c-1.273 4.998-2.761 8.276-4.7 10.41-6.179.249-9.015-3.292-9.175-5.66-.169-2.5-6.57-1.621-5.457-4.607 1.111-2.986 3.068-3.669 4.86-6.373s5.29-.623 10.831-7.689c3.368 3.563 5.042 8.423 3.641 13.921"/>
    <path fill="#F4F4F4"
          d="M425.611 371.118c-11.956-11.78-7.037-15.684-7.037-15.684s4.477-2.806 12.352 12.801c3.184 6.31-4.777 2.642-4.777 2.642z"/>
    <path fill="#232323"
          d="M421.837 392.192c0 2.264 2.104 3.329 3.641 2.589 1.536-.739.91-1.766-1.138-2.589-2.048-.824-2.503-1.167-2.503 0"/>
    <path fill="#A0A0A0"
          d="m431.682 389.82 20.132 1.15-20.141-.98zm-.376 1.069 18.687 6.232-18.741-6.07zm-.715.797 15.648 9.494-15.736-9.348zm-9.025-4.362-18.73-7.47 18.792 7.311zm.696-.895-15.75-11.832 15.852 11.695zm.931-.53-11.833-13.963 11.963 13.852z"/>
    <path fill="#EAA03D"
          d="M446.239 357.122c.261 4.412 4.527 7.666 6.148 6.465 1.621-1.2 2.832-3.324 4.232-1.366s1.57 3.021 4.386.57 7.661-3.502 7.661-3.502-10.714-3.707-22.427-2.167m23.81 24.804c-2.753 1.931-3.413 1.874-1.963 4.435 1.451 2.561 5.042 3.414 5.635.428s-1.849-6.144-3.673-4.863"/>
    <path fill="#FFCC7B"
          d="M338.041 381.542c1.765-1.618.809-1.323 3.088-5s8.144-8.567 11.067-9.89 5.295-1.986 7.005-.882c1.709 1.103 1.709 2.868.331 4.081s-2.978 2.261-2.978 2.261 13.476-4.026 20.976-6.379 13.089-3.971 14.56-1.691-2.574 4.927-6.324 5.956-9.265 3.016-9.265 3.016 21.178-3.604 22.575-1.103c1.397 2.5-1.986 2.647-8.604 4.559s-11.104 3.75-11.104 3.75 19.781-1.986 21.178.441.441 3.529-7.795 4.633c-8.236 1.103-12.28 1.986-12.28 1.986s15.516.441 16.545 3.309c1.029 2.867-.809 2.757-8.309 3.64-7.501.883-15.774 5.846-28.679 7.611s-21.288.772-21.288.772z"/>
    <path fill="#B6D2FC"
          d="M133.09 235.35c-26.094 15.815-19.791 40.522-16.766 83.32s3.466 88.584 3.466 88.584h24.708l23.825-66.524z"/>
    <path fill="#FFCC7B"
          d="M157.734 193.588c-1.682 11.133-3.088 24.928-9.265 29.12 0 0-.662 7.501 24.928 9.707s39.488 5.074 39.488 5.074-18.237-6.618-17.795-18.531-.588-15.482 7.942-14.653 11.766 0 11.766 0-5.641-38.599-20.531-41.246-33.559 10.855-36.532 30.53"/>
    <path fill="#FFC166"
          d="M193.803 179.689c2.537 8.714 10.111 17.354 15.038 21.399s7.942 4.339 9.486.515 5.147-15.074 5.368-17.943l.221-2.868s3.364-2.978 2.096-5.074-5.736-4.522-6.122-8.769 12.262-25.498-3.18-31.528-37.944-.735-41.032 2.059-7.059 18.236-5.294 22.943c1.765 4.706 7.794 17.795 7.794 17.795z"/>
    <path fill="#1F1F1F"
          d="M142.513 107.993c15.4-12.975 37.723-15.222 52.724-8.824s28.017 18.531 29.12 37.944-9.817 27.024-13.677 26.693-6.398-1.103-6.729 5.625c-.331 6.729-4.633 9.376-4.191-1.654.441-11.03 1.103-18.531-5.405-15.883s-7.059 9.045-6.177 17.317 5.625 10.479 5.625 10.479-9.302 13.677-28.274 18.09-4.927-10.589-16.839-17.207c-11.913-6.618-34.194-48.974-6.177-72.579"/>
    <path fill="#9CBDEF"
          d="M148.469 222.707c-27.355 19.193-38.385 39.008-28.679 72.78s18.09 61.127 19.854 80.099c1.765 18.972-4.853 31.668-4.853 31.668H236.71s-5.054-33.42-1.745-55.92 4.301-27.464 4.301-27.464l7.865-63.169s-9.318-10.638-34.246-23.213c-24.928-12.574-64.417-14.781-64.417-14.781"/>
    <path fill="#B6D2FC"
          d="M221.709 269.696c13.351-16.751 28.237-16.766 41.032 12.795s43.459 88.242 43.459 88.242 22.502 3.309 28.679 6.839c6.177 3.529 10.369 9.706 11.031 15.663.662 5.956 0 14.02 0 14.02h-66.274s-30.111-41.03-46.655-82.391-16.471-48.642-11.271-55.167"/>
    <path fill="#8E8E8E"
          d="M57.8 250.305c72.897 9.432 156.642 23.905 163.769 60.777 7.353 38.04 15.141 91.881 15.141 91.881h101.331c14.171 0 16.832.357 17.316 8.582.484 8.224 0 22.268 0 22.268H81.4s13.014-39.023 9.143-98.539C86.672 275.757 57.8 250.305 57.8 250.305"/>
    <path fill="#775757"
          d="M57.8 250.305c8.467 7.241 11.067 9.041 61.2 17.176 60.064 9.746 91.333 24.21 96.533 49.198S231.2 433.813 231.2 433.813H81.4s13.943-28.614-.458-95.221S57.8 250.305 57.8 250.305"/>
    <path fill="#775757" d="M225.922 413.02h114.294c7.8 0 5.988-.207 5.988 7.393v13.4H220.822z"/></svg>