<svg width="100" height="100" viewBox="0 0 120 120" fill="none" xmlns="http://www.w3.org/2000/svg"><path d="M37.947 108.915c-3.353-.295-6.728-1.125-9.922-2.205-9.433-3.216-14.502-10.115-15.559-19.867-.75-6.933-1.114-13.911-1.534-20.89C10.511 59.032 10 52.111 10 45.189c0-5.887.705-11.774 3.057-17.298 2.659-6.217 7.263-10.411 13.514-12.843 5.001-1.944 10.263-2.58 15.537-3.194 10.115-1.159 20.253-1.58 30.414-.909 7.99.523 15.934 1.466 23.322 4.796 4.955 2.239 8.467 5.967 10.217 11.24 1.955 5.865 2.682 11.922 3.182 18.037.761 9.411.966 18.832.534 28.266-.295 6.308-1.318 12.479-3.83 18.276-3.933 9.081-10.388 15.377-20.492 17.014-3.523.568-7.126.761-10.695.852-5.296.136-10.604.034-15.912.034zm23.708-7.274c7.433-.33 14.048-.557 20.662-.955 5.194-.307 9.479-2.523 12.741-6.66 4.478-5.683 5.944-12.4 6.376-19.344.705-11.343.352-22.674-.909-33.971-.455-4.08-1.08-8.092-3.398-11.638-.614-.943-1.102-1.978-1.671-2.955-1.478-2.534-3.398-4.796-6.251-5.569-6.319-1.728-12.832-2.568-19.367-2.557-7.251.011-14.525.171-21.742.773-5.444.455-10.865 1.512-16.207 2.694-6.626 1.466-10.502 5.978-12.195 12.411-1.762 6.705-1.75 13.559-1.341 20.424.398 6.558.92 13.116 1.409 19.674.318 4.16.534 8.331 1.057 12.468.818 6.33 4.183 10.786 10.445 12.593 2.989.864 6.092 1.625 9.172 1.819 7.331.466 14.673.568 21.219.795" fill="#000"/><path d="M61.656 101.641c-6.546-.227-13.889-.33-21.219-.795-3.091-.193-6.183-.966-9.172-1.819-6.262-1.807-9.627-6.262-10.445-12.593-.534-4.126-.75-8.308-1.057-12.468-.5-6.558-1.012-13.104-1.409-19.674-.409-6.853-.42-13.707 1.341-20.424 1.694-6.421 5.569-10.945 12.195-12.411 5.342-1.182 10.763-2.239 16.207-2.694 7.217-.614 14.491-.761 21.742-.773a73.4 73.4 0 0 1 19.367 2.557c2.853.784 4.774 3.035 6.251 5.569.568.977 1.057 2.012 1.671 2.955 2.318 3.535 2.944 7.558 3.398 11.638 1.262 11.297 1.614 22.629.909 33.971-.432 6.944-1.898 13.661-6.376 19.344-3.262 4.137-7.535 6.353-12.741 6.66-6.615.386-13.229.614-20.662.955M48.051 81.604c.364.648.67 1.659 1.341 2.273 1.591 1.478 4.023.75 4.989-1.478.716-1.659 1.262-3.398 1.773-5.137 3.955-13.479 7.888-26.97 11.831-40.461.648-2.216-.352-4.308-2.387-4.933-1.989-.614-4.069.625-4.694 2.83-.284 1-.489 2.023-.773 3.034-3.523 12.616-7.046 25.231-10.559 37.858-.523 1.875-.955 3.773-1.523 6.012M31.151 57.623c4.899-3.921 9.513-7.638 14.15-11.331 1.546-1.228 2.057-2.705 1.318-4.126-.739-1.432-2.478-2.023-4.251-1.284-1.114.466-2.228 1.068-3.171 1.819a1415 1415 0 0 0-14.468 11.741c-1.205.989-1.819 2.398-1.398 3.887.352 1.273.932 2.614 1.784 3.591 3.967 4.58 9.047 7.797 14.048 11.081 2.023 1.33 4.648.114 5.239-2.114.455-1.739-.204-3.126-1.58-4.171-2.159-1.648-4.376-3.239-6.524-4.899-1.682-1.307-3.296-2.682-5.149-4.194m56.838-.068c-.511.443-.852.795-1.25 1.091-4.637 3.478-9.286 6.944-13.934 10.422-1.875 1.409-2.364 3.432-1.239 5.092 1.171 1.705 3.41 2.068 5.274.58a869 869 0 0 0 17.321-14.252c2.273-1.921 2.103-4.239-.216-6.126a338 338 0 0 0-7.797-6.149c-2.125-1.625-4.308-3.171-6.478-4.739-.477-.341-.977-.671-1.5-.921-1.625-.75-3.341-.273-4.194 1.114-.818 1.341-.534 3.069.841 4.137 1.83 1.421 3.751 2.705 5.603 4.092 2.512 1.841 4.989 3.728 7.569 5.66" fill="#fff"/><path d="M48.052 81.604c.568-2.25 1-4.148 1.523-6.012 3.512-12.616 7.046-25.231 10.559-37.858.284-1 .489-2.034.773-3.035.625-2.205 2.705-3.444 4.694-2.83 2.034.625 3.034 2.716 2.387 4.933-3.944 13.491-7.876 26.982-11.832 40.461-.511 1.739-1.057 3.478-1.773 5.137-.955 2.228-3.398 2.944-4.989 1.478-.659-.614-.966-1.614-1.341-2.273M31.151 57.623c1.841 1.512 3.466 2.887 5.137 4.182 2.148 1.659 4.364 3.251 6.524 4.899 1.375 1.046 2.046 2.444 1.58 4.171-.591 2.228-3.216 3.444-5.239 2.114-5.001-3.285-10.081-6.501-14.048-11.081-.853-.989-1.421-2.319-1.784-3.591-.421-1.5.193-2.898 1.398-3.887 4.796-3.944 9.615-7.865 14.468-11.741.943-.75 2.057-1.353 3.171-1.818 1.773-.739 3.512-.148 4.251 1.284s.227 2.898-1.319 4.126c-4.626 3.705-9.24 7.422-14.139 11.343m56.838-.069c-2.58-1.932-5.058-3.819-7.569-5.671-1.864-1.375-3.785-2.671-5.603-4.092-1.375-1.068-1.659-2.796-.841-4.137.852-1.387 2.569-1.864 4.194-1.114.534.25 1.023.58 1.5.921 2.171 1.568 4.353 3.114 6.478 4.739a337 337 0 0 1 7.797 6.149c2.319 1.887 2.489 4.205.216 6.126-5.705 4.83-11.502 9.57-17.321 14.252-1.853 1.489-4.103 1.125-5.274-.58-1.137-1.659-.648-3.683 1.239-5.092a6369 6369 0 0 0 13.934-10.422c.398-.284.75-.636 1.25-1.08" fill="#000"/></svg>