<svg width="100" height="92.105" viewBox="0 0 100 92.105" fill="none" xmlns="http://www.w3.org/2000/svg"><path fill="#CB6CE6" d="M30.447 45.668a15.224 15.224 0 0 1-15.223 15.224A15.224 15.224 0 0 1 0 45.668a15.224 15.224 0 0 1 30.447 0"/><path fill="#FF66C4" d="M64.334 45.668a15.224 15.224 0 0 1-15.223 15.224 15.224 15.224 0 0 1-15.224-15.224 15.224 15.224 0 0 1 30.447 0"/><path fill="#00BF63" d="M98.221 45.668a15.224 15.224 0 0 1-15.224 15.224 15.224 15.224 0 0 1-15.223-15.224 15.224 15.224 0 0 1 30.447 0"/><path fill="#FFBD59" d="M47.389 76.116a15.224 15.224 0 0 1-15.223 15.223 15.224 15.224 0 0 1-15.224-15.223 15.224 15.224 0 0 1 30.447 0"/><path fill="#5271FF" d="M81.276 76.116a15.224 15.224 0 0 1-15.223 15.223 15.224 15.224 0 0 1-15.224-15.223 15.224 15.224 0 0 1 30.447 0"/><path fill="#38B6FF" d="M45.803 15.224a15.224 15.224 0 0 1-15.224 15.223 15.224 15.224 0 0 1-15.224-15.223 15.224 15.224 0 0 1 30.448 0"/><path fill="#FF3131" d="M79.689 15.224a15.224 15.224 0 0 1-15.223 15.223 15.224 15.224 0 0 1-15.224-15.223 15.224 15.224 0 0 1 30.447 0"/></svg>