<svg width="40" height="40" viewBox="0 0 0.75 0.75" fill="none" xmlns="http://www.w3.org/2000/svg"><path d="M.394.147A.02.02 0 0 1 .375.129.13.13 0 0 1 .506 0a.02.02 0 0 1 .019.018.13.13 0 0 1-.131.129" fill="#000"/><path d="M.394.147A.02.02 0 0 1 .375.129.13.13 0 0 1 .506 0a.02.02 0 0 1 .019.018.13.13 0 0 1-.131.129m.273.386q.011.01.006.023C.607.686.554.75.506.75A.12.12 0 0 1 .44.729.1.1 0 0 0 .336.727.15.15 0 0 1 .262.75C.191.75.074.537.074.42.074.295.141.2.243.2Q.315.2.367.221A.06.06 0 0 0 .413.22.3.3 0 0 1 .525.2Q.609.2.671.281a.02.02 0 0 1-.004.026Q.599.357.599.421t.068.114" fill="#000"/><path d="M.667.533q.011.01.006.023C.607.686.554.75.506.75A.12.12 0 0 1 .44.729.1.1 0 0 0 .336.727.15.15 0 0 1 .262.75C.191.75.074.537.074.42.074.295.141.2.243.2Q.315.2.367.221A.06.06 0 0 0 .413.22.3.3 0 0 1 .525.2Q.609.2.671.281a.02.02 0 0 1-.004.026Q.599.357.599.421t.068.114" fill="#000"/></svg>